<?xml version="1.0" encoding="UTF-8" standalone="no"?>
<!-- Generator: Adobe Illustrator 21.1.0, SVG Export Plug-In . SVG Version: 6.00 Build 0)  -->

<svg
   version="1.1"
   id="Layer_1"
   x="0px"
   y="0px"
   width="72px"
   height="17.8px"
   viewBox="0 0 72 17.8"
   enable-background="new 0 0 72 17.8"
   xml:space="preserve"
   sodipodi:docname="logo-outline.svg"
   inkscape:version="1.2.2 (b0a8486541, 2022-12-01)"
   xmlns:inkscape="http://www.inkscape.org/namespaces/inkscape"
   xmlns:sodipodi="http://sodipodi.sourceforge.net/DTD/sodipodi-0.dtd"
   xmlns="http://www.w3.org/2000/svg"
   xmlns:svg="http://www.w3.org/2000/svg"><defs
   id="defs19"><style
   id="style18547">.cls-1{fill:#22282b;}</style>
	
	
</defs><sodipodi:namedview
   id="namedview17"
   pagecolor="#ffffff"
   bordercolor="#000000"
   borderopacity="0.25"
   inkscape:showpageshadow="2"
   inkscape:pageopacity="0.0"
   inkscape:pagecheckerboard="0"
   inkscape:deskcolor="#d1d1d1"
   showgrid="false"
   inkscape:zoom="8.38301"
   inkscape:cx="40.200358"
   inkscape:cy="5.8451559"
   inkscape:window-width="1280"
   inkscape:window-height="736"
   inkscape:window-x="0"
   inkscape:window-y="33"
   inkscape:window-maximized="1"
   inkscape:current-layer="Layer_1" />

<path
   style="fill:#9292a8;fill-opacity:1;stroke-width:0.0162949"
   d="m 8.4030121,13.739038 c -0.250943,-0.03923 -1.350847,-0.20732 -2.4442318,-0.37354 -1.7872417,-0.271702 -1.9908564,-0.305646 -2.0164934,-0.336156 -0.015674,-0.01867 -0.028515,-0.04249 -0.028515,-0.05295 0,-0.03922 0.051756,-0.09144 0.090624,-0.09144 0.021953,0 1.1269304,0.165575 2.4555303,0.367946 1.3285995,0.202369 2.4412998,0.367676 2.4726673,0.36735 0.04893,-4.94e-4 0.8716463,-0.124437 4.2820795,-0.645035 0.325211,-0.04964 0.608935,-0.09026 0.630503,-0.09026 0.03819,0 0.08994,0.05262 0.08994,0.09144 0,0.01046 -0.01283,0.03443 -0.02851,0.05327 -0.025,0.03003 -0.101799,0.04539 -0.62328,0.124635 -0.327119,0.04971 -1.437075,0.218423 -2.466568,0.374922 -1.0294925,0.156499 -1.8910842,0.283777 -1.914647,0.282842 -0.02356,-9.88e-4 -0.2481592,-0.0338 -0.4990996,-0.07302 z M 6.383911,13.016482 C 4.1075995,12.668729 3.9555825,12.643498 3.9274585,12.608766 c -0.028161,-0.03478 -0.029983,-0.08346 -0.029983,-0.80108 V 11.043631 H 3.654236 3.410994 L 3.377223,11.000701 C 3.344066,10.958542 3.3434504,10.94273 3.3434504,10.131762 V 9.3057604 l 0.037714,-0.03543 c 0.035187,-0.033058 0.053746,-0.035432 0.2770125,-0.035432 H 3.8974754 V 8.3542366 7.4735717 l 0.039998,-0.039996 c 0.048097,-0.0481 0.035439,-0.047776 0.2958533,-0.00759 0.1155146,0.017825 0.2191947,0.032495 0.2303963,0.032589 0.015328,1.31e-4 0.020371,-0.056149 0.020371,-0.2275805 0,-0.2207917 0.00124,-0.2285149 0.038124,-0.2527303 0.03519,-0.023066 0.1565732,-0.00742 1.5780743,0.2033082 0.8469735,0.1255592 1.5484246,0.2282899 1.5587758,0.2282899 0.010359,0 0.018814,-0.021335 0.018814,-0.0474 V 7.3150602 L 7.5071998,7.3094977 C 7.355393,7.3045532 7.3324187,7.2998313 7.2994417,7.2668296 l -0.037081,-0.037113 -0.00455,-1.5516384 c -0.00252,-0.8534013 -4.944e-4,-1.5683234 0.00447,-1.5887168 0.00497,-0.020396 0.023536,-0.051556 0.041224,-0.069252 0.031592,-0.031593 0.060641,-0.032176 1.60156,-0.032176 1.5568523,0 1.5696663,2.473e-4 1.6050433,0.033224 l 0.03566,0.033224 v 1.5937379 1.5937379 l -0.03426,0.031041 c -0.02804,0.025405 -0.06503,0.032052 -0.203686,0.036599 l -0.169429,0.00556 v 0.049215 c 0,0.046626 0.0028,0.048713 0.05296,0.039642 0.02913,-0.00527 0.492922,-0.076065 1.030652,-0.1573297 0.537731,-0.081265 1.215387,-0.1841435 1.505903,-0.2286213 0.484449,-0.074167 0.531359,-0.0788 0.566247,-0.055941 0.03685,0.024154 0.03804,0.03203 0.03804,0.2526759 0,0.1714511 0.005,0.2277016 0.02037,0.2275409 0.0112,-1.137e-4 0.112026,-0.014685 0.224053,-0.032379 0.256411,-0.040493 0.254243,-0.040547 0.302197,0.00742 l 0.03999,0.039998 v 0.8888109 0.8888109 h 0.233437 c 0.222938,0 0.235027,0.00173 0.268865,0.037714 0.03541,0.037697 0.03543,0.038129 0.03543,0.8614312 0,0.808659 -4.94e-4,0.824503 -0.03377,0.866652 -0.0337,0.04284 -0.0343,0.04293 -0.268866,0.04293 h -0.235094 v 0.756804 0.756802 l -0.03666,0.04192 c -0.03587,0.04101 -0.08957,0.05005 -2.472746,0.416414 -1.339848,0.20597 -2.4727493,0.373842 -2.5175608,0.373046 -0.044811,-7.42e-4 -1.1733859,-0.168257 -2.5079459,-0.372139 z m 5.009209,-0.226755 2.289432,-0.352949 0.0043,-0.696573 0.0043,-0.696574 h -0.229044 c -0.221454,0 -0.230369,-0.0012 -0.26904,-0.03999 l -0.03999,-0.04 v -0.821433 c 0,-0.8063503 4.94e-4,-0.8222244 0.03377,-0.8643709 0.0337,-0.042839 0.0343,-0.042935 0.268867,-0.042935 h 0.235093 V 8.4264898 7.6180805 l -0.05296,0.00969 c -0.174721,0.031956 -4.6917039,0.7109147 -4.7295833,0.7109147 -0.037879,0 -4.5549094,-0.6636112 -4.7295941,-0.6948403 l -0.052958,-0.00947 V 8.4346382 9.234899 h 0.2269451 c 0.2257658,0 0.2271206,2.25e-4 0.2607181,0.042935 0.033152,0.042146 0.033773,0.058021 0.033773,0.86437 v 0.821433 l -0.039996,0.04 c -0.03853,0.03853 -0.0481,0.04 -0.2607181,0.04 H 4.1256121 v 0.700679 c 0,0.385375 0.00549,0.700947 0.012213,0.701276 0.00672,2.47e-4 1.0827963,0.163758 2.3912748,0.363179 2.122435,0.323478 2.3895982,0.361041 2.4768231,0.34825 0.053771,-0.0079 1.128011,-0.173164 2.387197,-0.367288 z m -2.7456867,-0.02435 -0.097769,-0.01894 v -0.841916 c 0,-0.463052 0.0044,-0.846306 0.00977,-0.851673 0.011867,-0.01184 0.2460726,0.02153 0.2745353,0.03913 0.01602,0.0099 0.01738,0.187921 0.00648,0.849784 l -0.01377,0.837263 -0.040737,0.0026 c -0.022398,0.0015 -0.084733,-0.0059 -0.1385063,-0.01629 z m 0.4038226,-0.006 c -0.01152,-0.03002 0.024599,-4.0479447 0.036505,-4.0598435 0.012361,-0.012361 0.2585648,-0.048992 0.2724537,-0.040535 0.00665,0.00405 0.00727,0.6449138 0.00148,1.4241365 -0.0092,1.21571 -0.00744,1.416697 0.012336,1.416279 0.012682,-2.47e-4 0.3456934,-0.05061 0.7400274,-0.111883 0.394337,-0.06127 0.722475,-0.108278 0.729197,-0.104466 0.0067,0.0038 0.01221,0.06437 0.01221,0.13458 0,0.101092 -0.0053,0.129703 -0.02564,0.137493 -0.01412,0.0054 -0.338576,0.05783 -0.721048,0.116496 -0.382475,0.05866 -0.711906,0.113522 -0.7320719,0.121913 -0.036248,0.01508 -0.036663,0.01886 -0.036663,0.333359 v 0.318099 l 0.044809,-1.78e-4 c 0.024648,-8.9e-5 0.07231,-0.0047 0.1059174,-0.01028 l 0.061106,-0.01009 v -0.232402 c 0,-0.18242 0.00482,-0.234253 0.022448,-0.241017 0.046705,-0.01792 0.6811295,-0.11078 0.7235055,-0.105897 l 0.04434,0.0051 v 0.353624 c 0,0.21431 -0.0064,0.359877 -0.01629,0.369491 -0.009,0.0087 -0.283937,0.05684 -0.6110571,0.106912 -0.3271195,0.05007 -0.608043,0.09405 -0.6242757,0.09772 -0.01649,0.0037 -0.033793,-0.0045 -0.039217,-0.01862 z m 0.9445793,-0.405251 0.061106,-0.01051 v -0.08781 c 0,-0.08497 -0.0015,-0.0878 -0.04481,-0.08763 -0.024648,8.9e-5 -0.072308,0.0047 -0.1059151,0.01028 l -0.061106,0.01011 v 0.09693 0.09693 l 0.044809,-0.0089 c 0.024648,-0.0049 0.07231,-0.01362 0.1059174,-0.01941 z m -1.8779841,0.329656 -0.089623,-0.01879 -0.00485,-0.120632 c -0.00267,-0.06635 0.00198,-0.12753 0.010482,-0.135958 0.017157,-0.01716 0.2461567,0.01303 0.2685352,0.03541 0.020767,0.02077 0.032579,0.138902 0.020396,0.203852 -0.00989,0.05268 -0.015748,0.05792 -0.063113,0.05649 -0.02872,-7.42e-4 -0.09255,-0.01004 -0.1418413,-0.02037 z M 7.6534466,12.61614 c -0.00895,-0.003 -0.043793,-0.01014 -0.0774,-0.01575 l -0.061106,-0.01021 v -0.137767 c 0,-0.07577 0.00549,-0.137713 0.012213,-0.137646 0.023981,2.42e-4 0.2245767,0.03386 0.2525722,0.04233 0.02403,0.0073 0.028515,0.02893 0.028515,0.137888 v 0.12926 l -0.069252,-0.0012 c -0.038089,-7.42e-4 -0.076587,-0.0038 -0.085549,-0.0068 z M 7.1483049,12.53823 C 7.0855699,12.53013 7.0250745,12.51598 7.0138728,12.50672 7.0008688,12.49599 6.9935018,12.44553 6.9935018,12.367284 v -0.122608 l 0.1198064,0.01014 c 0.1787787,0.01511 0.1735005,0.01028 0.1735005,0.158385 0,0.07021 -0.00549,0.130368 -0.012213,0.133685 -0.00672,0.0033 -0.063551,-4.94e-4 -0.1262861,-0.0087 z m 3.4137781,-0.130555 v -0.138294 l 0.05296,-0.0094 c 0.02913,-0.0052 0.09109,-0.01422 0.137696,-0.0201 0.08,-0.01011 0.08529,-0.0085 0.09461,0.02863 0.0054,0.02163 0.0076,0.08253 0.0049,0.13532 -0.0057,0.109047 -0.0058,0.109129 -0.191118,0.130639 l -0.09903,0.0115 z m -3.9514321,0.05061 c -0.053731,-0.0088 -0.1068939,-0.02356 -0.1181376,-0.0329 -0.02356,-0.01956 -0.027869,-0.204152 -0.00559,-0.239329 0.0111,-0.0175 0.037303,-0.02007 0.1153341,-0.01125 0.1801137,0.02037 0.1815476,0.02176 0.1760321,0.168196 -0.00546,0.144929 -0.00173,0.142335 -0.167634,0.115272 z m 4.4599511,-0.12902 0.0048,-0.13667 0.120061,-0.02146 c 0.06603,-0.01179 0.130195,-0.01758 0.142581,-0.01281 0.01642,0.0063 0.02252,0.04203 0.02252,0.131767 0,0.143181 -0.0032,0.145982 -0.187907,0.164907 l -0.106795,0.01095 z M 5.6084392,12.305753 C 5.2992428,12.257898 5.022433,12.214325 4.9933077,12.208926 l -0.05296,-0.0098 2.472e-4,-2.015754 c 1.558e-4,-1.1849112 0.00638,-2.0254272 0.015105,-2.0392271 0.012633,-0.019976 0.033857,-0.020519 0.1418586,-0.00373 0.069855,0.010853 0.1330945,0.025835 0.1405359,0.033274 0.00744,0.00744 0.011323,0.6492204 0.00863,1.4261756 -0.00487,1.4013085 -0.00465,1.4127075 0.027677,1.4201415 0.017924,0.0041 0.3515629,0.05544 0.7414175,0.114039 0.3898571,0.0586 0.7216615,0.110392 0.7373453,0.115096 0.024005,0.0072 0.028515,0.02879 0.028515,0.136855 0,0.07057 -0.00596,0.13198 -0.013226,0.136479 -0.00727,0.0045 -0.3497577,-0.04273 -0.7610613,-0.104953 -0.4113036,-0.06223 -0.7536525,-0.113136 -0.76077,-0.113136 -0.017652,0 -0.016539,0.647653 0.00124,0.65858 0.00774,0.0048 0.055412,0.01357 0.1059174,0.01951 l 0.091829,0.0108 v -0.222737 c 0,-0.178057 0.00467,-0.224527 0.023288,-0.231672 0.019234,-0.0074 0.5907722,0.07022 0.7466433,0.101364 l 0.044811,0.0089 v 0.373489 0.373486 l -0.044811,-0.0017 C 6.1908849,12.393415 5.9177438,12.35357 5.608548,12.305716 Z m 0.358487,-0.323856 c 0,-0.09752 0.011496,-0.08867 -0.1515991,-0.116778 l -0.061979,-0.01068 0.00494,0.09567 c 0.00492,0.09532 0.00514,0.09571 0.061976,0.105749 0.031367,0.0055 0.077198,0.01105 0.1018432,0.01221 0.043637,0.002 0.044811,-1.78e-4 0.044811,-0.08618 z m 5.6114748,0.390156 c -0.0042,-0.01085 -0.0054,-0.07383 -0.0027,-0.139958 l 0.0048,-0.120236 0.122212,-0.02069 c 0.06722,-0.01137 0.131376,-0.0173 0.142581,-0.01318 0.01382,0.0051 0.02037,0.04673 0.02037,0.12927 0,0.07982 -0.007,0.126106 -0.02037,0.134376 -0.0112,0.0069 -0.07414,0.02106 -0.139854,0.03137 -0.0928,0.01456 -0.121174,0.01436 -0.12705,-9.88e-4 z m 0.499105,-0.192356 c 0,-0.160482 -0.0066,-0.154087 0.1735,-0.169308 l 0.119809,-0.01014 v 0.122607 c 0,0.139335 -0.0072,0.149795 -0.114066,0.165548 -0.04033,0.0059 -0.09716,0.01508 -0.126283,0.02032 l -0.05296,0.0095 z m -3.9759493,0.0354 c -0.040332,-0.008 -0.300642,-0.04849 -0.5784704,-0.09003 -0.2778258,-0.04153 -0.5111962,-0.0837 -0.5186005,-0.0937 -0.013498,-0.01822 -9.889e-4,-1.198805 0.012979,-1.212642 0.00873,-0.0087 0.2502383,0.02571 0.2711953,0.03866 0.00796,0.0049 0.014462,0.219927 0.014462,0.477807 v 0.468872 l 0.3462669,0.0519 c 0.1904477,0.02854 0.3540346,0.05177 0.3635279,0.0516 0.010136,-1.78e-4 0.016885,-0.03734 0.016341,-0.0901 -9.889e-4,-0.104575 0.017058,-0.09465 -0.2372814,-0.129868 -0.1030645,-0.01426 -0.2075554,-0.02993 -0.232201,-0.03479 l -0.044811,-0.0089 1.78e-4,-0.312383 c 2.225e-4,-0.380564 0.00714,-0.434594 0.055704,-0.434594 0.036146,0 0.6559597,0.09127 0.7221979,0.10634 0.034233,0.0078 0.036663,0.01691 0.036663,0.137433 0,0.071 -0.00621,0.13292 -0.013795,0.137607 -0.00759,0.0047 -0.1075936,-0.0059 -0.2222503,-0.02349 -0.2922587,-0.04486 -0.2716577,-0.0496 -0.2658455,0.06109 l 0.0049,0.09309 0.2281268,0.03378 c 0.1254702,0.01857 0.2372938,0.03945 0.2484979,0.04638 0.015254,0.0094 0.020371,0.09817 0.020371,0.352505 0,0.186944 -0.00445,0.351498 -0.00989,0.365673 -0.01115,0.02904 -0.095356,0.03201 -0.2182379,0.0077 z m 4.4850193,-0.832138 0.0042,-0.852598 0.128267,-0.02111 c 0.07055,-0.01159 0.132874,-0.01649 0.138506,-0.01088 0.01572,0.0157 0.02181,1.554951 0.0065,1.627844 -0.01501,0.07114 -0.02741,0.07757 -0.1886,0.09771 l -0.09305,0.01162 z m -2.024493,0.556505 c 0,-0.151847 0.0017,-0.153471 0.187209,-0.17247 l 0.106098,-0.01088 -2.23e-4,0.104093 c -2.47e-4,0.164406 -0.0036,0.169484 -0.121015,0.191123 -0.179988,0.03316 -0.172069,0.03831 -0.172069,-0.111876 z m -3.9678032,0.04378 -0.097769,-0.01894 -0.00477,-0.136838 -0.00477,-0.136837 0.116318,0.0108 c 0.1760272,0.01637 0.180628,0.02084 0.1749815,0.170099 -0.00457,0.120768 -0.00623,0.125451 -0.045479,0.127992 -0.022398,0.0015 -0.084733,-0.0059 -0.1385063,-0.01629 z m 4.4729452,-0.554626 c 0,-0.308076 0.0045,-0.582584 0.01,-0.610016 0.01189,-0.05941 0.02435,-0.06516 0.170635,-0.07876 l 0.112696,-0.01048 v 0.466746 c 0,0.393928 0.0036,0.466743 0.02331,0.466743 0.03303,0 0.648677,-0.09653 0.673298,-0.105564 0.013,-0.0048 0.02037,-0.04071 0.02037,-0.09938 0,-0.08695 -0.002,-0.09144 -0.03666,-0.08343 -0.02017,0.0046 -0.12704,0.02151 -0.237499,0.03741 -0.173785,0.02504 -0.202831,0.02579 -0.215657,0.0055 -0.0082,-0.01288 -0.01493,-0.179427 -0.01508,-0.370095 -2.47e-4,-0.344766 -4.4e-5,-0.346744 0.03642,-0.360118 0.06097,-0.02237 0.727575,-0.119028 0.745296,-0.108078 0.02099,0.01298 0.02176,0.247518 7.42e-4,0.260446 -0.0086,0.0053 -0.105769,0.02408 -0.215907,0.04166 -0.299702,0.04787 -0.273578,0.03467 -0.273578,0.138286 0,0.105435 -0.02213,0.100689 0.262831,0.05639 0.116472,-0.0181 0.218641,-0.02867 0.227039,-0.02349 0.01797,0.0111 0.02064,0.707433 0.0028,0.734531 -0.01117,0.01696 -1.15474,0.201791 -1.248512,0.201791 h -0.04261 z M 9.5658169,11.202521 c -0.00247,-0.07436 0.00319,-0.197021 0.00934,-0.203664 0.00435,-0.0047 0.9437861,-0.150749 0.9696471,-0.150749 0.01169,0 0.01728,-0.123233 0.01728,-0.380539 0,-0.209298 0.0046,-0.425064 0.01033,-0.4794852 0.01164,-0.1112895 0.0064,-0.1076232 0.181123,-0.1269239 l 0.101843,-0.011249 v 0.2302331 c 0,0.227969 2.47e-4,0.230231 0.03666,0.229986 0.02017,-1.31e-4 0.175985,-0.02203 0.346267,-0.04864 0.170281,-0.02662 0.315102,-0.0485 0.321824,-0.04864 0.0067,-1.31e-4 0.01221,-0.04474 0.01221,-0.09911 0,-0.08636 -0.0036,-0.09785 -0.02852,-0.09083 -0.07362,0.02077 -0.426488,0.0633 -0.450051,0.05426 -0.02099,-0.0081 -0.02652,-0.03341 -0.02633,-0.1207014 1.34e-4,-0.060775 0.0056,-0.1189584 0.01221,-0.1292972 0.01108,-0.01738 0.333849,-0.073146 1.022254,-0.1766131 0.152358,-0.022893 0.322843,-0.049546 0.378856,-0.059217 L 12.58263,9.573769 V 9.2412032 8.9086399 l -0.06925,0.011199 c -0.03809,0.00616 -0.307564,0.048416 -0.598837,0.093888 l -0.529582,0.082676 -0.0049,0.093695 c -0.0036,0.068654 7.42e-4,0.093601 0.01629,0.093334 0.01164,-1.978e-4 0.230164,-0.032488 0.485587,-0.071751 0.255422,-0.039266 0.469902,-0.068001 0.476624,-0.063857 0.02186,0.013474 0.01434,0.2666292 -0.0081,0.2743351 -0.0252,0.00863 -1.718716,0.2690075 -1.749696,0.2690075 -0.01721,0 -0.02237,-0.031746 -0.02237,-0.1372108 0,-0.1584423 -0.02991,-0.1370847 0.25257,-0.1803313 0.08962,-0.013721 0.183115,-0.029128 0.207761,-0.034238 l 0.04481,-0.0093 V 9.0951072 c 0,-0.1292378 0.0038,-0.2349797 0.0085,-0.2349797 0.0047,0 0.388124,-0.058661 0.852123,-0.1303603 0.463999,-0.071697 0.863565,-0.1303578 0.887928,-0.1303578 h 0.04429 l -0.0043,0.6069849 -0.0043,0.6069825 -0.09777,0.018517 c -0.05377,0.010186 -0.279064,0.04628 -0.500649,0.080211 l -0.402879,0.061697 -0.0045,0.2375412 -0.0045,0.237538 -0.488844,0.0765 c -0.268867,0.04207 -0.494348,0.07691 -0.501068,0.0774 -0.0067,4.95e-4 -0.01221,0.106736 -0.01221,0.236083 0,0.209906 -0.0031,0.236082 -0.02851,0.2436 -0.03636,0.01073 -1.200027,0.189313 -1.2336467,0.189313 -0.018344,0 -0.025748,-0.01869 -0.027412,-0.06925 z M 6.0728437,10.951976 c -0.3136781,-0.04833 -0.5794865,-0.09123 -0.5906906,-0.09536 -0.013993,-0.0051 -0.020371,-0.04852 -0.020371,-0.13836 v -0.13087 l 0.05296,9.89e-4 c 0.029125,4.94e-4 0.2566983,0.03199 0.5057129,0.07004 0.2490171,0.03804 0.4561646,0.06576 0.4603303,0.0616 0.00415,-0.0042 0.00756,-0.215333 0.00756,-0.469262 V 9.789065 h 0.054809 c 0.085986,0 0.2272245,0.030918 0.242797,0.053148 0.00776,0.0111 0.00984,0.1167186 0.00457,0.234715 l -0.00957,0.214537 0.045155,0.0094 c 0.039971,0.0083 0.6853371,0.107415 0.6995005,0.107415 0.012386,0 0.00462,-0.177921 -0.00811,-0.18579 -0.00754,-0.0047 -0.1120287,-0.02354 -0.232201,-0.04193 C 7.1651235,10.16217 7.0539675,10.14304 7.0382837,10.13809 7.0142787,10.13049 7.0097667,10.10862 7.0097667,9.9998138 V 9.8705445 l 0.061106,1.24e-5 c 0.033607,7.4e-6 0.3764107,0.0476 0.7617857,0.1057616 0.3853749,0.058164 0.7061804,0.1058185 0.7128999,0.1059055 0.00672,8.1e-5 0.012213,-0.1501681 0.012213,-0.3338913 0,-0.1837257 -0.00363,-0.3340467 -0.00806,-0.3340467 -0.00443,0 -0.2781349,-0.040329 -0.6082285,-0.089621 -0.330096,-0.049294 -0.605111,-0.089623 -0.6111482,-0.089623 -0.00603,0 -0.010977,0.042404 -0.010977,0.094229 V 9.4235 l 0.4967238,0.075739 c 0.2731979,0.041657 0.5041776,0.080347 0.5132878,0.085976 0.00912,0.00564 0.016564,0.065032 0.016564,0.1319994 0,0.091262 -0.00591,0.1240289 -0.023585,0.1308176 C 8.3093816,9.8530016 8.094899,9.826796 7.8457336,9.7897869 6.6446514,9.6113617 6.5294483,9.5919918 6.5087088,9.5649605 6.4973366,9.5501519 6.4883377,9.4927345 6.4883377,9.4351021 c 0,-0.081793 0.00571,-0.1055046 0.027424,-0.113836 0.01508,-0.00579 0.1318782,0.00391 0.2595462,0.021558 l 0.2321219,0.03207 0.00524,-0.2234098 c 0.00289,-0.1228744 0.00962,-0.2277733 0.014982,-0.2331034 0.00838,-0.00833 1.6977467,0.235405 1.805323,0.2604758 l 0.038923,0.00907 -0.00791,0.6022432 c -0.00435,0.3312331 -0.012534,0.6068711 -0.018196,0.6125271 -0.00841,0.0084 -0.8186121,-0.1034 -0.9764932,-0.134756 l -0.044811,-0.0089 v 0.228461 c 0,0.125653 -0.00635,0.232386 -0.014116,0.237187 -0.00776,0.0048 -0.2295804,-0.024 -0.4929215,-0.06403 -0.2633412,-0.04002 -0.4916336,-0.07284 -0.5073174,-0.07294 -0.02581,-1.66e-4 -0.028517,0.02148 -0.028517,0.227944 v 0.228129 l -0.069252,-0.002 c -0.03809,-9.89e-4 -0.3258983,-0.04144 -0.6395738,-0.08977 z m 2.5705178,-0.09075 -0.085549,-0.0156 v -0.138863 -0.138864 l 0.09903,0.0115 c 0.1927469,0.02237 0.1854637,0.01597 0.190863,0.168005 l 0.00472,0.133305 -0.061764,-0.002 c -0.033971,-9.89e-4 -0.1002609,-0.0089 -0.1473123,-0.01753 z m -0.4195954,-0.06398 c -0.044809,-0.0069 -0.1053043,-0.01691 -0.1344321,-0.0223 l -0.052957,-0.0098 v -0.128657 c 0,-0.07076 0.0067,-0.132808 0.014907,-0.137876 0.00821,-0.0051 0.070765,-9.89e-4 0.1390353,0.0092 0.091915,0.01367 0.1283355,0.02633 0.1403604,0.0488 0.01644,0.03073 0.00341,0.239106 -0.015526,0.248268 -0.00546,0.0026 -0.046589,-7.41e-4 -0.091401,-0.0077 z m 1.3446961,-0.02047 c -0.017973,-0.01797 -0.022473,-0.106414 -0.00739,-0.145683 0.00672,-0.0175 0.089507,-0.03664 0.3014554,-0.06967 l 0.2921924,-0.04553 v -0.04777 c 0,-0.04337 -0.0041,-0.04696 -0.04481,-0.039 -0.1804054,0.0353 -0.5128056,0.07889 -0.5354141,0.07021 -0.024648,-0.0095 -0.026559,-0.03324 -0.018072,-0.224157 0.00522,-0.117467 0.015476,-0.219076 0.022819,-0.225797 0.020668,-0.01899 0.7141921,-0.1203359 0.7442991,-0.1087832 0.02905,0.01115 0.03745,0.1157712 0.01246,0.1551892 -0.0086,0.01352 -0.120412,0.03813 -0.297131,0.06536 l -0.283376,0.04366 -0.00514,0.04463 c -0.00284,0.02455 7.417e-4,0.04474 0.00813,0.04487 0.00732,1.31e-4 0.1363703,-0.01918 0.286788,-0.04291 0.150415,-0.02373 0.278735,-0.0379 0.285158,-0.03149 0.0064,0.0064 0.01407,0.100886 0.01698,0.209931 0.0039,0.146838 -2.47e-4,0.2052 -0.01629,0.225004 -0.02793,0.03459 -0.736665,0.147886 -0.7626406,0.121913 z M 5.8394189,10.432139 c -0.1911176,-0.02972 -0.3579358,-0.05805 -0.3707073,-0.06295 -0.034693,-0.01333 -0.031676,-0.154366 0.00358,-0.167899 0.02309,-0.0089 0.4504166,0.04589 0.5557308,0.07121 0.031832,0.0077 0.036663,0.0025 0.036663,-0.04007 V 10.18355 L 5.8732216,10.15509 C 5.7679149,10.13944 5.6304272,10.11826 5.567692,10.10803 L 5.4536287,10.08944 5.4490587,9.8712412 c -0.00257,-0.1225629 0.00223,-0.2249698 0.010878,-0.2336497 0.015451,-0.015451 0.6880319,0.076508 0.7636102,0.1044118 0.030675,0.011323 0.036663,0.025662 0.036663,0.087779 0,0.051964 -0.00756,0.077146 -0.025207,0.083917 -0.021039,0.00808 -0.3944504,-0.039296 -0.5491868,-0.06967 -0.039358,-0.00771 -0.044811,-0.00381 -0.044811,0.032272 0,0.022596 0.0063,0.04497 0.014017,0.049734 0.00771,0.00477 0.1415322,0.027931 0.2973811,0.051482 0.1558514,0.023536 0.2887531,0.051247 0.2953366,0.061551 0.014413,0.02255 0.016638,0.388171 0.00257,0.424775 -0.012213,0.03185 0.00749,0.03337 -0.4109253,-0.0317 z m 6.2496911,-0.03412 c -0.0064,-0.0064 -0.01159,-0.06556 -0.01159,-0.131502 0,-0.139493 0.0039,-0.142825 0.187906,-0.161678 l 0.106795,-0.01095 -0.0048,0.135626 c -0.0046,0.129873 -0.0065,0.136096 -0.04629,0.146687 -0.0751,0.02 -0.220199,0.03364 -0.232031,0.02181 z m 0.496952,-0.205785 0.0047,-0.134432 0.117561,-0.02232 c 0.161253,-0.03063 0.167651,-0.02653 0.167347,0.107368 -1.31e-4,0.06078 -0.0062,0.119841 -0.01342,0.131258 -0.01251,0.0197 -0.163678,0.05227 -0.24363,0.05248 -0.03627,9.6e-5 -0.03719,-0.0037 -0.03259,-0.134341 z M 9.5777157,9.8276341 C 9.5649096,9.7942517 9.5655524,9.2476112 9.5787046,8.8980217 l 0.010606,-0.2798506 0.099324,-0.017182 C 10.100188,8.529804 12.849994,8.1128043 12.861396,8.1198526 c 0.0079,0.00492 0.01444,0.06323 0.01444,0.1296038 0,0.098528 -0.0052,0.1233441 -0.02851,0.1352108 -0.01567,0.00799 -0.690292,0.1164095 -1.499126,0.240923 l -1.4706116,0.2263863 -2.5e-6,0.09923 -2.4e-6,0.099228 0.2312915,-0.037128 c 0.12721,-0.020421 0.237202,-0.033479 0.244423,-0.029014 0.0072,0.00445 0.01313,0.1681037 0.01313,0.3636441 0,0.2691558 -0.0051,0.3597405 -0.02089,0.3728581 -0.01147,0.00952 -0.167301,0.039627 -0.3462648,0.066886 -0.1789666,0.027261 -0.3448923,0.053044 -0.368727,0.057296 -0.029276,0.00522 -0.04646,-4.945e-4 -0.05296,-0.01733 z M 10.01213,9.5014615 10.073236,9.4913501 V 9.3939 9.29645 l -0.06111,0.010507 C 9.8500913,9.334849 9.8613992,9.326092 9.8613992,9.4235742 c 0,0.085536 0.00148,0.08832 0.044811,0.088147 0.024648,-9.89e-5 0.072308,-0.00472 0.1059158,-0.010284 z M 5.8610088,9.4943909 C 5.6996914,9.4690605 5.5437807,9.4439601 5.5145466,9.4386176 l -0.053158,-0.00972 0.00428,-0.6062087 0.00428,-0.6062087 0.040737,-0.00475 c 0.042203,-0.00492 3.319532,0.4806693 3.3433197,0.4953716 0.00739,0.00457 0.013424,0.066527 0.013424,0.1376953 0,0.1268127 -7.417e-4,0.1293961 -0.040329,0.1293961 -0.022176,0 -0.7059554,-0.099151 -1.519497,-0.2203368 C 6.494056,8.6326805 5.8137647,8.5318559 5.795841,8.5298114 c -0.028275,-0.00321 -0.033232,0.00727 -0.037425,0.079203 -0.00314,0.053721 0.0026,0.088666 0.016292,0.099237 0.011619,0.00897 0.1091214,0.028764 0.216668,0.043981 0.1075466,0.015204 0.2157039,0.031635 0.2403495,0.03649 l 0.044811,0.00883 v 0.373486 0.3734885 l -0.061106,-0.00198 c -0.03361,-0.00124 -0.1930954,-0.022769 -0.3544154,-0.04809 z M 5.9798263,9.1290138 c -0.00408,-0.049281 -0.010532,-0.092711 -0.014339,-0.096511 -0.00381,-0.00381 -0.05269,-0.012089 -0.1086492,-0.018418 l -0.1017442,-0.01152 v 0.091415 c 0,0.098021 -0.00747,0.089976 0.1059149,0.1139546 0.017924,0.00378 0.053665,0.00774 0.07942,0.00878 l 0.046829,0.00198 z m 4.6102817,0.079608 c -0.01043,-0.010433 -0.01778,-0.2665352 -0.0077,-0.2673436 0.0022,-1.805e-4 0.06439,-0.010136 0.138111,-0.022126 0.07372,-0.01199 0.137881,-0.017948 0.14258,-0.013251 0.01844,0.018443 0.0082,0.2438278 -0.01182,0.2597786 -0.0112,0.00892 -0.05703,0.02136 -0.101843,0.027607 -0.04481,0.00625 -0.09636,0.014907 -0.114553,0.019209 -0.0182,0.00433 -0.03836,0.00257 -0.04481,-0.00388 z M 6.6302705,9.1297554 c -0.060864,-0.011026 -0.1180511,-0.027417 -0.1270846,-0.03645 -0.00902,-0.00902 -0.01424,-0.067027 -0.011545,-0.1288745 l 0.00487,-0.112449 0.1274628,0.00307 c 0.070105,0.00173 0.1379302,0.011743 0.1507265,0.022374 0.023931,0.019852 0.033447,0.1979557 0.013375,0.2502605 -0.011199,0.029202 -0.00823,0.029162 -0.1578044,0.00198 z M 4.4189116,10.139278 V 9.4630407 H 3.9952469 3.5715797 v 0.6762373 0.676236 h 0.4236672 0.4236647 z m 9.8095194,0 V 9.4630407 h -0.423668 -0.423667 v 0.6762373 0.676236 h 0.423667 0.423668 z M 10.196093,7.9227102 c 0.680771,-0.1033216 1.600734,-0.2427821 2.044362,-0.3099129 0.443628,-0.067131 0.830427,-0.1263997 0.859554,-0.1317076 l 0.05296,-0.00964 V 7.3103135 c 0,-0.1180239 -0.0054,-0.1611468 -0.02037,-0.1611765 -0.0112,-1.73e-5 -0.965588,0.1432529 -2.120852,0.3183901 L 8.9112614,7.7859592 8.510482,7.7274689 C 8.2900513,7.6953003 7.8677215,7.6328396 7.5719696,7.5886709 5.9587481,7.347743 4.7186735,7.165471 4.6927473,7.165471 c -0.026396,0 -0.029414,0.016737 -0.029414,0.1629491 0,0.1190103 0.00549,0.1631963 0.020371,0.1638638 0.011199,4.945e-4 0.9442881,0.1390106 2.0735251,0.3077942 1.1292345,0.168786 2.0864419,0.3076977 2.1271247,0.3086916 0.040685,9.888e-4 0.630968,-0.082731 1.3117389,-0.1860496 z M 9.4012781,7.5235106 C 9.9852714,7.4355538 9.9265833,7.4520337 9.9265833,7.3760005 V 7.3121158 H 8.9081514 7.8897219 v 0.064869 c 0,0.053855 0.00623,0.066332 0.036663,0.073487 0.09097,0.021385 0.8921311,0.1355297 0.9616055,0.1370081 0.042683,9.889e-4 0.2736651,-0.027879 0.5132877,-0.063969 z M 10.317659,5.6500383 V 4.2323844 H 8.9081514 7.498646 v 1.4176539 1.4176538 h 1.4095054 1.4095076 z m -1.6872593,0.953991 c -0.038055,-0.038055 -0.039998,-0.049561 -0.039998,-0.2370169 0,-0.1874538 0.00198,-0.198962 0.039998,-0.2370144 C 8.6692087,6.091187 8.6774457,6.09 8.9081514,6.09 c 0.2307077,0 0.2389427,0.00124 0.2777541,0.039998 0.038055,0.038052 0.039998,0.049561 0.039998,0.2370144 0,0.1874562 -0.00198,0.198962 -0.039998,0.2370169 -0.038811,0.038811 -0.047046,0.039998 -0.2777541,0.039998 -0.2307054,0 -0.2389428,-0.00124 -0.2777517,-0.039998 z"
   id="path391" /><rect
   style="fill:none;stroke:#9292a8;stroke-width:1.15584;stroke-linecap:round;stroke-linejoin:round;stroke-dasharray:none;stroke-opacity:1"
   id="rect3679"
   width="16.644157"
   height="16.644157"
   x="0.57792175"
   y="0.57792121"
   ry="0.036148928" /><g
   aria-label="AI Projek"
   id="text514"
   style="font-weight:bold;font-size:10.3619px;font-family:Poppins;-inkscape-font-specification:'Poppins Bold';fill:#9292a8;stroke-width:4.31747;stroke-linecap:round;stroke-linejoin:round;fill-opacity:1"><path
     d="m 29.205381,11.630361 -0.404114,-1.222705 h -2.611199 l -0.404114,1.222705 h -1.885866 l 2.528304,-7.2947782 h 2.155275 l 2.517942,7.2947782 z M 26.63563,9.0606093 h 1.720076 L 27.495668,6.4701342 Z"
     id="path1402"
     style="fill:#9292a8;fill-opacity:1" /><path
     d="M 31.972002,11.630361 V 4.3563066 h 1.771885 v 7.2740544 z"
     id="path1404"
     style="fill:#9292a8;fill-opacity:1" /><path
     d="m 43.950343,6.5841151 q 0,0.735695 -0.528457,1.4195804 -0.279772,0.3523046 -0.839314,0.5802664 -0.549181,0.2175999 -1.3056,0.2175999 H 40.178611 V 11.630361 H 38.406726 V 4.3563066 h 2.870246 q 1.264152,0 1.968761,0.6527997 0.70461,0.6527997 0.70461,1.5750088 z m -3.771732,0.8703997 h 1.098361 q 0.404114,0 0.632076,-0.2383237 0.238324,-0.2383237 0.238324,-0.6217141 0,-0.3937522 -0.238324,-0.6424378 -0.238324,-0.2486856 -0.632076,-0.2486856 h -1.098361 z"
     id="path1406"
     style="fill:#9292a8;fill-opacity:1" /><path
     d="m 46.789508,5.8484202 v 1.0776377 q 0.621714,-1.1398091 1.657904,-1.1398091 v 1.8029707 h -0.4352 q -0.611352,0 -0.922209,0.2901332 -0.300495,0.2901332 -0.300495,1.0154662 V 11.630361 H 45.017623 V 5.8484202 Z"
     id="path1408"
     style="fill:#9292a8;fill-opacity:1" /><path
     d="m 52.882304,9.817028 q 0.352304,-0.3730284 0.352304,-1.0776376 0,-0.7046092 -0.362666,-1.0672757 -0.362667,-0.3730284 -0.860038,-0.3730284 -0.497371,0 -0.860038,0.3730284 -0.352304,0.3626665 -0.352304,1.0672757 0,0.7046092 0.362666,1.0776376 0.373029,0.373028 0.8704,0.373028 0.497371,0 0.849676,-0.373028 z m -3.015313,1.067276 q -0.8704,-0.81859 -0.8704,-2.1552755 0,-1.3366851 0.8704,-2.1345515 0.870399,-0.8082282 2.155275,-0.8082282 1.284876,0 2.144913,0.8082282 0.8704,0.7978664 0.8704,2.1345515 0,1.3366855 -0.860038,2.1552755 -0.860038,0.81859 -2.144913,0.81859 -1.284876,0 -2.165637,-0.81859 z"
     id="path1410"
     style="fill:#9292a8;fill-opacity:1" /><path
     d="m 56.177386,5.8484202 h 1.771885 v 6.6316158 q 0,1.046552 -0.538819,1.47139 -0.528456,0.4352 -1.502475,0.4352 H 55.21373 v -1.502475 h 0.424837 q 0.538819,0 0.538819,-0.404115 z m 1.616457,-0.6527997 q -0.300495,0.3004951 -0.735695,0.3004951 -0.4352,0 -0.735695,-0.3004951 -0.300495,-0.3004951 -0.300495,-0.7356949 0,-0.4455617 0.300495,-0.7460568 0.300495,-0.3004952 0.735695,-0.3004952 0.4352,0 0.735695,0.3004952 0.300495,0.3004951 0.300495,0.7460568 0,0.4351998 -0.300495,0.7356949 z"
     id="path1412"
     style="fill:#9292a8;fill-opacity:1" /><path
     d="m 61.959319,11.702894 q -1.264152,0 -2.07238,-0.808228 -0.808228,-0.81859 -0.808228,-2.1656375 0,-1.347047 0.797866,-2.1449134 0.808228,-0.7978663 2.082742,-0.7978663 1.274514,0 2.113828,0.7875044 0.839314,0.7875045 0.839314,2.186361 0,0.3004951 -0.04145,0.5595426 h -3.97897 q 0.05181,0.3833903 0.341943,0.6320759 0.290133,0.2383233 0.621714,0.2383233 0.341943,0 0.507733,-0.06217 0.165791,-0.07253 0.238324,-0.1347046 0.0829,-0.072533 0.207238,-0.2279619 h 1.916951 q -0.248685,0.8703995 -0.994742,1.4092185 -0.746057,0.528457 -1.771885,0.528457 z M 63.068042,8.2109335 Q 63.026595,7.8068194 62.715738,7.5581338 62.404881,7.2990863 61.980043,7.2990863 q -0.424838,0 -0.714971,0.2590475 -0.290134,0.2486856 -0.362667,0.6527997 z"
     id="path1414"
     style="fill:#9292a8;fill-opacity:1" /><path
     d="M 67.824155,11.630361 H 66.05227 V 3.9625544 h 1.771885 V 8.262743 l 1.792609,-2.4143228 h 2.383237 l -2.476494,2.9531416 2.476494,2.8287992 H 69.647849 L 67.824155,9.3196568 Z"
     id="path1416"
     style="fill:#9292a8;fill-opacity:1" /></g></svg>
