<?xml version="1.0" encoding="UTF-8" standalone="no"?>
<!-- Generator: Adobe Illustrator 21.1.0, SVG Export Plug-In . SVG Version: 6.00 Build 0)  -->

<svg
   version="1.1"
   id="Layer_1"
   x="0px"
   y="0px"
   width="72px"
   height="17.8px"
   viewBox="0 0 72 17.8"
   enable-background="new 0 0 72 17.8"
   xml:space="preserve"
   sodipodi:docname="logo-knockout.svg"
   inkscape:version="1.2.2 (b0a8486541, 2022-12-01)"
   xmlns:inkscape="http://www.inkscape.org/namespaces/inkscape"
   xmlns:sodipodi="http://sodipodi.sourceforge.net/DTD/sodipodi-0.dtd"
   xmlns="http://www.w3.org/2000/svg"
   xmlns:svg="http://www.w3.org/2000/svg"><defs
   id="defs19">
	
	
<style
   id="style1432">.cls-1{fill:#9292A8;}</style></defs><sodipodi:namedview
   id="namedview17"
   pagecolor="#ffffff"
   bordercolor="#000000"
   borderopacity="0.25"
   inkscape:showpageshadow="2"
   inkscape:pageopacity="0.0"
   inkscape:pagecheckerboard="0"
   inkscape:deskcolor="#d1d1d1"
   showgrid="false"
   inkscape:zoom="8.0822044"
   inkscape:cx="35.633843"
   inkscape:cy="-0.37118586"
   inkscape:window-width="1280"
   inkscape:window-height="736"
   inkscape:window-x="0"
   inkscape:window-y="33"
   inkscape:window-maximized="1"
   inkscape:current-layer="Layer_1" />

<g
   id="g3797"><path
     id="rect914"
     style="fill:#f15a30;fill-opacity:1;stroke:none;stroke-width:1.53443;stroke-linecap:round;stroke-linejoin:round"
     d="M 0,-3.8146973e-7 V 17.8 H 17.8 V -3.8146973e-7 Z M 8.9053109,3.6170731 c 1.6744021,0 1.6881611,2.966e-4 1.7262101,0.035732 l 0.03815,0.035731 v 1.7141385 1.7141383 l -0.0367,0.033317 c -0.03015,0.027323 -0.07009,0.034704 -0.219217,0.039594 l -0.182036,0.00579 v 0.053114 c 0,0.050147 0.003,0.052247 0.05698,0.042492 0.03133,-0.00566 0.530306,-0.082082 1.108637,-0.1694825 0.578332,-0.087403 1.307049,-0.1979387 1.619499,-0.2457737 0.521028,-0.079764 0.571361,-0.08446 0.608881,-0.059874 0.03963,0.025968 0.04104,0.034059 0.04104,0.2713652 0,0.1843954 0.0052,0.2449784 0.02173,0.2448079 0.01205,-1.162e-4 0.120459,-0.015741 0.240945,-0.034766 0.27577,-0.043551 0.273388,-0.04336 0.324962,0.00821 l 0.04346,0.042974 v 0.9555719 0.9560546 h 0.250602 c 0.239771,0 0.252839,0.00173 0.289231,0.04056 0.03809,0.040542 0.03815,0.041135 0.03815,0.9266007 0,0.869717 -5.69e-4,0.886579 -0.03622,0.931912 -0.03624,0.04607 -0.03695,0.04635 -0.28923,0.04635 h -0.252534 v 0.814095 0.813612 l -0.03959,0.04539 c -0.03858,0.04411 -0.09647,0.05359 -2.659579,0.44761 -1.441009,0.221524 -2.6591791,0.402109 -2.7073741,0.401254 -0.04819,-7.42e-4 -1.262392,-0.181014 -2.697716,-0.400288 -2.448179,-0.37401 -2.611454,-0.401075 -2.641704,-0.438433 -0.03028,-0.0374 -0.03235,-0.08962 -0.03235,-0.861415 v -0.82182 h -0.261707 -0.261225 l -0.0367,-0.04635 c -0.03566,-0.04534 -0.03621,-0.06213 -0.03621,-0.934327 V 9.3365015 l 0.04056,-0.038146 c 0.03784,-0.035553 0.0578,-0.038146 0.297922,-0.038146 h 0.257362 V 8.3133291 7.3659658 l 0.04298,-0.042974 c 0.05173,-0.051729 0.03812,-0.05143 0.318202,-0.00821 0.124236,0.019184 0.235656,0.035147 0.247705,0.035248 0.01649,1.434e-4 0.02221,-0.060435 0.02221,-0.2448081 0,-0.2374617 0.0013,-0.245803 0.04104,-0.2718478 0.03785,-0.024799 0.168409,-0.00791 1.697239,0.2187338 0.910923,0.13504 1.665342,0.2452907 1.676475,0.2452907 0.01113,0 0.02028,-0.022663 0.02028,-0.0507 v -0.051183 l -0.183968,-0.00579 c -0.163269,-0.00532 -0.187611,-0.010364 -0.22308,-0.045871 l -0.04008,-0.040077 -0.0048,-1.66875 c -0.0027,-0.9178352 -5.44e-4,-1.6868944 0.0048,-1.708827 0.0054,-0.021934 0.02539,-0.055327 0.04442,-0.07436 0.03398,-0.033976 0.06509,-0.034766 1.722347,-0.034766 z m -1.512787,0.2631564 v 1.5243762 1.524859 h 1.516167 1.5156851 V 5.4046057 3.8802295 H 8.9086909 Z m 1.516167,1.9975751 c 0.248127,0 0.256665,0.00124 0.298405,0.042974 0.04093,0.040928 0.04346,0.053339 0.04346,0.254948 0,0.2016097 -0.0025,0.2140202 -0.04346,0.2549479 -0.04174,0.041743 -0.05028,0.042974 -0.298405,0.042974 -0.248125,0 -0.257147,-0.00119 -0.298887,-0.042974 -0.04093,-0.040928 -0.04297,-0.053338 -0.04297,-0.2549479 0,-0.2016085 0.002,-0.2140198 0.04297,-0.254948 0.04174,-0.041741 0.05076,-0.042974 0.298887,-0.042974 z m 4.5431921,1.1390569 c -0.01205,-1.71e-5 -1.038519,0.1544669 -2.281012,0.3428277 L 8.9120709,7.7020341 8.4808809,7.6392631 C 8.2438089,7.6046641 7.7897939,7.5370815 7.4717119,7.4895777 5.7366879,7.2304594 4.4030399,7.0347274 4.3751579,7.0347274 c -0.02839,0 -0.03187,0.018022 -0.03187,0.1752766 0,0.1279944 0.0057,0.1755231 0.02173,0.1762425 0.01205,4.945e-4 1.015816,0.1492261 2.230312,0.3307564 1.214496,0.1815301 2.244015,0.3311344 2.287771,0.3322049 0.04376,9.889e-4 0.678733,-0.089264 1.4109051,-0.2003853 0.732171,-0.1111239 1.721319,-0.2609719 2.198443,-0.3331705 0.477123,-0.072199 0.893342,-0.1357685 0.924669,-0.1414768 l 0.05698,-0.010623 V 7.1902069 c 0,-0.1269335 -0.0062,-0.1733131 -0.02221,-0.1733453 z M 7.8130919,7.1921383 v 0.070014 c 0,0.057919 0.0069,0.071492 0.03959,0.079188 0.09784,0.022992 0.959557,0.1456817 1.034277,0.1472713 0.04591,9.889e-4 0.294187,-0.030232 0.551904,-0.069048 0.6280861,-0.094597 0.5649421,-0.076601 0.5649421,-0.1583768 V 7.1921388 H 8.9086869 Z m 6.2389811,0.3293077 -0.05698,0.010141 c -0.187916,0.034371 -5.0456671,0.7648438 -5.0864051,0.7648438 -0.04074,0 -4.899014,-0.7138759 -5.086887,-0.7474611 l -0.05698,-0.010141 v 0.8609318 0.8604493 h 0.244325 c 0.24281,0 0.243923,4.203e-4 0.280056,0.046354 0.03566,0.045328 0.0367,0.062265 0.0367,0.9294982 v 0.883626 l -0.04297,0.04297 c -0.04144,0.04144 -0.05187,0.04297 -0.280539,0.04297 h -0.237565 v 0.753738 c 0,0.41447 0.0058,0.75387 0.01304,0.754221 0.0072,2.47e-4 1.1649,0.17615 2.572173,0.39063 2.282684,0.347898 2.570107,0.387969 2.663916,0.374213 0.05783,-0.0085 1.2130861,-0.186197 2.5673451,-0.394976 l 2.462082,-0.379524 0.0048,-0.749393 0.0043,-0.748909 h -0.246256 c -0.238177,0 -0.24764,-0.0014 -0.289231,-0.04297 l -0.04297,-0.04297 v -0.883626 c 0,-0.8672331 5.69e-4,-0.88417 0.03621,-0.9294982 0.03624,-0.046072 0.03695,-0.046354 0.289231,-0.046354 h 0.252534 V 8.3910692 Z m -0.891835,0.5398329 c 0.0085,0.00529 0.01593,0.06768 0.01593,0.1390625 0,0.1059691 -0.0059,0.1325757 -0.0309,0.1453395 -0.01687,0.0086 -0.74235,0.125381 -1.612255,0.2592938 L 9.9511769,8.8483341 v 0.106711 0.1067113 L 10.20033,9.0221624 c 0.136816,-0.021953 0.254907,-0.036184 0.262674,-0.031386 0.0078,0.0048 0.014,0.180809 0.014,0.3911133 0,0.2894772 -0.0052,0.3866639 -0.02221,0.4007702 -0.01235,0.01026 -0.180288,0.042628 -0.372765,0.071946 -0.1924771,0.029318 -0.3707901,0.057232 -0.3964241,0.061806 -0.03149,0.00561 -0.04999,-6.923e-4 -0.05698,-0.018831 -0.01378,-0.035904 -0.01282,-0.623529 0.0015,-0.9995115 l 0.01111,-0.3013021 0.107194,-0.018349 C 10.191055,8.5018563 13.148024,8.0537022 13.160288,8.0612796 Z m -8.4644641,0.00917 c 0.02192,-5.687e-4 0.05636,0.00352 0.114437,0.012554 0.07513,0.011669 0.14313,0.027729 0.151133,0.035732 0.008,0.00801 0.01208,0.6984154 0.0092,1.5340332 -0.0052,1.5071099 -0.0048,1.5192759 0.02994,1.5272729 0.01928,0.0044 0.377905,0.05962 0.797195,0.122646 0.419289,0.06302 0.776464,0.119033 0.793332,0.124094 0.02583,0.0077 0.03042,0.03056 0.03042,0.146788 0,0.07589 -0.0062,0.14195 -0.014,0.146788 -0.0078,0.0048 -0.376081,-0.04558 -0.81844,-0.112505 -0.44236,-0.06692 -0.810784,-0.12168 -0.818441,-0.12168 -0.01899,0 -0.01757,0.696599 0.0015,0.70835 0.0083,0.0051 0.05964,0.01438 0.113955,0.02076 l 0.0985,0.01159 v -0.239497 c 0,-0.191501 0.0051,-0.24147 0.02511,-0.249153 0.02068,-0.0079 0.635347,0.07563 0.802989,0.109125 l 0.04829,0.0097 v 0.401736 0.401253 l -0.04829,-0.0015 c -0.02651,-9.88e-4 -0.320281,-0.04414 -0.652821,-0.0956 -0.332541,-0.05147 -0.630187,-0.09849 -0.661513,-0.104297 l -0.05698,-0.01014 4.94e-4,-2.168023 c 1.81e-4,-1.2743774 0.0065,-2.1782909 0.01593,-2.1931316 0.0068,-0.01073 0.01622,-0.016322 0.03815,-0.0169 z m 0.558664,0.089328 c 0.04539,-0.00529 3.570243,0.5172606 3.595828,0.5330729 0.0079,0.0049 0.01449,0.071212 0.01449,0.1477541 0,0.1363848 -9.89e-4,0.1390625 -0.04346,0.1390625 -0.02386,0 -0.759018,-0.106264 -1.633985,-0.2365996 -0.874967,-0.1303353 -1.606981,-0.2387447 -1.626258,-0.240945 -0.03041,-0.00346 -0.03557,0.00761 -0.04008,0.084983 -0.0034,0.057778 0.0027,0.095341 0.01738,0.1067113 0.0125,0.00964 0.117553,0.030954 0.233219,0.04732 0.115666,0.016366 0.231822,0.03389 0.258328,0.039111 l 0.04828,0.00966 v 0.4017361 0.4017361 l -0.06567,-0.00242 c -0.03614,-0.00124 -0.207474,-0.024421 -0.380973,-0.051665 -0.1735,-0.027241 -0.341322,-0.054126 -0.372765,-0.059874 l -0.05698,-0.010623 0.0043,-0.6518556 0.0048,-0.6518553 z m 7.8744141,0.4171875 h 0.04732 l -0.0043,0.6528211 -0.0048,0.6528212 -0.10478,0.019798 c -0.05783,0.010952 -0.300071,0.049934 -0.538385,0.086431 l -0.433604,0.066151 -0.0048,0.255431 -0.0048,0.25543 -0.52583,0.08257 c -0.289166,0.04525 -0.531637,0.08251 -0.538867,0.08305 -0.0072,4.95e-4 -0.01304,0.114868 -0.01304,0.253983 0,0.225755 -0.003,0.253623 -0.03042,0.261707 -0.0391,0.01154 -1.2907271,0.203766 -1.3268881,0.203766 -0.01973,0 -0.02766,-0.01998 -0.02945,-0.07436 -0.0026,-0.07998 0.003,-0.212072 0.0097,-0.219217 0.0047,-0.005 1.0151551,-0.16224 1.0429681,-0.16224 0.01257,0 0.01883,-0.132246 0.01883,-0.408979 0,-0.2251 0.005,-0.45716 0.01111,-0.51569 0.01251,-0.1196926 0.0067,-0.1158913 0.194591,-0.1366481 l 0.109608,-0.012072 v 0.2477061 c 0,0.245182 5.44e-4,0.247484 0.03959,0.247222 0.02169,-1.44e-4 0.189144,-0.02352 0.372282,-0.05215 0.183137,-0.02863 0.338979,-0.05249 0.346207,-0.05263 0.0072,-1.46e-4 0.01304,-0.04774 0.01304,-0.106229 0,-0.09288 -0.0036,-0.105572 -0.03042,-0.09802 -0.07918,0.02232 -0.458964,0.06815 -0.484304,0.05843 -0.02258,-0.0086 -0.0287,-0.03601 -0.02849,-0.129888 1.81e-4,-0.065366 0.0064,-0.1279452 0.01352,-0.1390628 0.01191,-0.01869 0.35908,-0.078483 1.099463,-0.1897624 0.16386,-0.024623 0.346804,-0.053336 0.407047,-0.063737 l 0.109609,-0.018831 V 9.2669706 8.9091743 l -0.07436,0.012072 c -0.04097,0.00663 -0.330866,0.052494 -0.64413,0.1013997 l -0.569287,0.088845 -0.0053,0.100434 c -0.0039,0.073838 6.67e-4,0.1007208 0.01738,0.1004341 0.01253,-2.151e-4 0.247743,-0.035026 0.52245,-0.077257 0.274708,-0.042231 0.505082,-0.073023 0.51231,-0.068566 0.0235,0.014487 0.01549,0.2867355 -0.0087,0.2950249 -0.0271,0.0093 -1.848372,0.2892307 -1.88169,0.2892307 -0.0185,0 -0.02414,-0.03384 -0.02414,-0.147271 0,-0.1704026 -0.03196,-0.1475981 0.271848,-0.194108 0.09639,-0.014759 0.196572,-0.031199 0.22308,-0.036697 L 11.2483,9.3625747 V 9.1100409 c 0,-0.1389955 0.0042,-0.2530163 0.0092,-0.2530163 0.005,0 0.417429,-0.062917 0.91646,-0.1400282 0.499033,-0.077111 0.928888,-0.1400284 0.955089,-0.1400284 z m -3.7339251,0.063737 c 0.0072,0.00435 0.0078,0.6935611 0.0015,1.5316186 -0.0099,1.3075 -0.0082,1.523858 0.01304,1.523411 0.01364,-2.48e-4 0.37212,-0.05434 0.7962291,-0.120231 0.424111,-0.06589 0.776929,-0.116602 0.784158,-0.112506 0.0072,0.0041 0.01304,0.06935 0.01304,0.144857 0,0.108723 -0.0057,0.139373 -0.02752,0.147754 -0.01517,0.0058 -0.364115,0.06245 -0.775467,0.125542 -0.4113521,0.06309 -0.7658501,0.121828 -0.7875381,0.130854 -0.03899,0.01622 -0.03911,0.02051 -0.03911,0.358762 v 0.341862 h 0.0478 c 0.02651,-9.9e-5 0.07781,-0.0051 0.113953,-0.0111 l 0.06567,-0.01062 v -0.250119 c 0,-0.196196 0.0057,-0.252018 0.02463,-0.259294 0.05023,-0.01928 0.7323061,-0.119208 0.7778801,-0.113954 l 0.0478,0.0058 v 0.380007 c 0,0.230488 -0.0072,0.38705 -0.01787,0.397391 -0.0096,0.0094 -0.305349,0.06106 -0.6571671,0.114919 -0.351818,0.05385 -0.653712,0.101313 -0.671169,0.105263 -0.01774,0.004 -0.03618,-0.0046 -0.04201,-0.0198 -0.01239,-0.03229 0.02632,-4.3536703 0.03911,-4.3664665 0.0133,-0.013301 0.278157,-0.053035 0.293094,-0.04394 z m -3.080137,0.2076281 0.137131,0.00338 c 0.0754,0.00173 0.148478,0.012722 0.162239,0.024144 0.02574,0.02136 0.03607,0.2126954 0.01449,0.2689506 -0.01205,0.031405 -0.0091,0.031552 -0.169965,0.00242 -0.06546,-0.011842 -0.126932,-0.029396 -0.136648,-0.039111 -0.0097,-0.00972 -0.01544,-0.072062 -0.01255,-0.1385797 z m 4.6962561,0.057943 c 0.01984,0.019852 0.009,0.2624187 -0.01255,0.2795735 -0.01205,0.00959 -0.06141,0.02273 -0.109608,0.029454 -0.04819,0.00672 -0.103561,0.016114 -0.123128,0.020762 -0.01957,0.00465 -0.04135,0.00309 -0.04829,-0.00386 -0.01122,-0.011224 -0.01908,-0.286912 -0.0082,-0.287782 0.0024,-1.904e-4 0.06943,-0.010779 0.148719,-0.023659 0.07929,-0.012905 0.148012,-0.019528 0.153066,-0.014485 z m -4.1250381,0.013521 c 0.009,-0.00897 1.825864,0.2530945 1.941564,0.2800565 l 0.04201,0.00966 -0.0082,0.6479927 c -0.0047,0.3562443 -0.01371,0.6525313 -0.0198,0.6586153 -0.009,0.0091 -0.880411,-0.111135 -1.050212,-0.144857 l -0.04828,-0.0097 v 0.245774 c 0,0.135139 -0.0066,0.249786 -0.01497,0.254948 -0.0084,0.0052 -0.246952,-0.02553 -0.530176,-0.06857 -0.283224,-0.04304 -0.528759,-0.0786 -0.545627,-0.0787 -0.02776,-1.71e-4 -0.0309,0.02323 -0.0309,0.245291 v 0.245291 l -0.07436,-0.0019 c -0.04097,-0.0012 -0.350227,-0.0446 -0.687587,-0.09657 h -4.94e-4 c -0.33736,-0.05197 -0.622907,-0.09842 -0.634956,-0.102848 -0.01504,-0.0055 -0.02221,-0.0521 -0.02221,-0.14872 v -0.140511 l 0.05698,9.64e-4 c 0.03133,4.94e-4 0.276361,0.03441 0.544179,0.07533 0.267817,0.04092 0.490447,0.07063 0.494927,0.06615 0.0045,-0.0045 0.0082,-0.231483 0.0082,-0.504585 V 9.8560518 h 0.05891 c 0.09248,0 0.244478,0.033551 0.261225,0.05746 0.0084,0.011941 0.01048,0.1256302 0.0048,0.2525342 l -0.01014,0.230322 0.04829,0.01014 c 0.04299,0.009 0.737056,0.115885 0.752289,0.115885 0.01333,0 0.005,-0.19144 -0.0087,-0.199902 -0.0081,-0.005 -0.12039,-0.0256 -0.249637,-0.04539 -0.129246,-0.01978 -0.248702,-0.04006 -0.26557,-0.04539 -0.02582,-0.0082 -0.0309,-0.0317 -0.0309,-0.14872 V 9.9439325 h 0.06615 c 0.03615,9.9e-6 0.404453,0.050917 0.818924,0.1134715 0.414471,0.06255 0.759546,0.113862 0.766775,0.113954 0.0072,1.01e-4 0.01304,-0.161165 0.01304,-0.3587623 0,-0.1975971 -0.0034,-0.3592448 -0.0082,-0.3592448 -0.0048,0 -0.299253,-0.043557 -0.65427,-0.096571 -0.355016,-0.053014 -0.650675,-0.096571 -0.657166,-0.096571 -0.0065,0 -0.01207,0.045661 -0.01207,0.1013999 v 0.1013997 l 0.534038,0.081603 c 0.293825,0.044802 0.542589,0.086169 0.552387,0.092226 0.0098,0.00606 0.01787,0.069934 0.01787,0.1419597 0,0.098152 -0.0066,0.1336934 -0.02559,0.1409938 -0.01396,0.00536 -0.244815,-0.022974 -0.512793,-0.062771 -1.291768,-0.1918961 -1.415639,-0.2128425 -1.437945,-0.2419109 -0.01222,-0.015921 -0.02173,-0.077564 -0.02173,-0.1395453 0,-0.087972 0.0061,-0.1136837 0.02945,-0.1226455 0.01622,-0.00623 0.141784,0.00422 0.27909,0.023177 l 0.249637,0.034766 0.0058,-0.2404622 c 0.0031,-0.1321499 0.01017,-0.2448667 0.01593,-0.2506023 z m -1.368414,0.090777 v 0.09802 c 0,0.1054205 -0.008,0.096855 0.113955,0.1226454 0.01928,0.00408 0.05776,0.00854 0.08547,0.00966 l 0.05022,0.00193 -0.0082,-0.096571 c -0.0044,-0.053005 -0.01137,-0.099728 -0.01545,-0.1038141 -0.0041,-0.00408 -0.05667,-0.012999 -0.116851,-0.019798 z m 4.6441091,0.3157876 -0.06567,0.011587 c -0.1742701,0.029998 -0.1622391,0.020715 -0.1622391,0.1255426 0,0.091994 0.0016,0.094825 0.04828,0.09464 0.02651,-9.89e-5 0.07781,-0.00515 0.1139541,-0.011105 l 0.06567,-0.011105 V 9.431138 Z M 3.1689829,9.5054978 v 0.7276642 0.72718 h 0.455816 0.455816 v -0.72718 -0.7276642 h -0.455816 z m 10.5504021,0 v 0.7276642 0.72718 h 0.455333 0.455816 V 10.233162 9.5054978 H 14.174718 Z M 5.1998749,9.6933286 c 0.01663,-0.016638 0.740054,0.082493 0.821338,0.1125054 0.03299,0.012188 0.03959,0.02735 0.03959,0.094157 0,0.055887 -0.0081,0.083013 -0.02704,0.090294 -0.02263,0.00868 -0.424596,-0.042177 -0.591015,-0.074843 -0.04233,-0.00831 -0.0478,-0.00402 -0.0478,0.034766 0,0.024302 0.0067,0.048472 0.01497,0.053597 0.0083,0.0051 0.152034,0.02972 0.319651,0.05505 0.167618,0.02533 0.310638,0.05507 0.317719,0.06615 0.01549,0.02425 0.01801,0.417417 0.0029,0.456782 -0.01315,0.03426 0.0082,0.03619 -0.441813,-0.0338 -0.205548,-0.03197 -0.385103,-0.06233 -0.398839,-0.0676 -0.03731,-0.01431 -0.03407,-0.166035 0.0039,-0.180588 0.02484,-0.0095 0.484509,0.04906 0.597775,0.07629 0.03424,0.0082 0.03911,0.0027 0.03911,-0.04297 v -0.05263 l -0.205697,-0.03042 c -0.113257,-0.01684 -0.261353,-0.0397 -0.328825,-0.0507 l -0.122646,-0.0198 -0.0048,-0.2346685 c -0.0028,-0.1318162 0.0023,-0.2422328 0.01159,-0.2515679 z m 5.2307781,0.3259274 c 0.03124,0.01199 0.04039,0.124677 0.01352,0.167069 -0.0092,0.01456 -0.12959,0.04073 -0.319651,0.07001 l -0.3046821,0.04732 -0.0053,0.0478 c -0.0031,0.0264 8.4e-4,0.04814 0.0087,0.04828 0.0079,1.45e-4 0.146772,-0.02082 0.3085451,-0.04635 0.161773,-0.02553 0.299705,-0.0407 0.306613,-0.0338 0.0069,0.0069 0.01522,0.108696 0.01835,0.225976 0.0042,0.157923 -7.17e-4,0.22061 -0.01787,0.241911 -0.03004,0.0372 -0.7919521,0.159275 -0.8198891,0.131337 -0.01933,-0.01933 -0.02441,-0.114693 -0.0082,-0.156929 0.0072,-0.01884 0.09653,-0.03932 0.32448,-0.07484 l 0.3138561,-0.04925 v -0.05118 c 0,-0.04665 -0.004,-0.05057 -0.0478,-0.04201 -0.194027,0.03796 -0.5517311,0.08514 -0.5760471,0.07581 -0.02651,-0.01016 -0.02845,-0.03609 -0.01932,-0.241427 0.0056,-0.126338 0.01675,-0.235648 0.02463,-0.242877 0.02223,-0.0204 0.7677111,-0.129276 0.8000921,-0.116851 z m 2.666331,0.08595 c 0.07508,-0.0059 0.07895,0.02333 0.0787,0.131337 -1.44e-4,0.06537 -0.0067,0.1292 -0.01449,0.141477 -0.01346,0.02121 -0.175717,0.05628 -0.261708,0.05649 -0.03901,9.9e-5 -0.0402,-0.0038 -0.03525,-0.144374 l 0.0048,-0.144857 0.126509,-0.02414 c 0.04336,-0.0082 0.07637,-0.01397 0.101399,-0.01593 z m -0.462576,0.0787 -0.0053,0.146306 c -0.0049,0.139678 -0.007,0.146021 -0.04973,0.157411 -0.08077,0.02151 -0.236909,0.03638 -0.249636,0.02366 -0.0069,-0.0069 -0.01255,-0.07055 -0.01255,-0.141477 0,-0.150024 0.0044,-0.153551 0.202316,-0.173828 z m 0.473681,0.434088 c 0.027,-0.0021 0.04526,-0.0021 0.04829,9.64e-4 0.01691,0.01689 0.02329,1.672439 0.0068,1.750836 -0.01614,0.07651 -0.02944,0.0836 -0.2028,0.105262 l -0.09995,0.01255 0.0043,-0.916943 0.0043,-0.916944 0.138097,-0.0227 c 0.03794,-0.0062 0.07392,-0.01092 0.100917,-0.01304 z m -5.0704691,4.94e-4 c 0.0271,0.0018 0.06227,0.0056 0.09899,0.0111 0.09886,0.01471 0.1382,0.02798 0.151134,0.05215 0.01769,0.03305 0.0035,0.257166 -0.0169,0.26702 -0.0059,0.0028 -0.05031,-9.15e-4 -0.0985,-0.0082 -0.04819,-0.0074 -0.113048,-0.01833 -0.144374,-0.02414 l -0.05698,-0.01014 v -0.13858 c 0,-0.07611 0.0071,-0.142785 0.01593,-0.148237 0.0044,-0.0027 0.0236,-0.0028 0.0507,-9.64e-4 z m 0.493961,0.07532 0.106711,0.01255 c 0.207302,0.02406 0.199408,0.01706 0.205214,0.180588 l 0.0053,0.143409 -0.06663,-0.0019 c -0.03654,-0.0012 -0.107773,-0.0096 -0.158377,-0.01883 l -0.09222,-0.0169 v -0.149203 z m 4.0835121,0.01207 c 0.02258,0.01397 0.02344,0.266153 9.65e-4,0.280057 -0.0093,0.0057 -0.1138,0.02599 -0.232254,0.04491 -0.32233,0.05149 -0.294542,0.03728 -0.294542,0.148719 0,0.113399 -0.02352,0.10848 0.282953,0.06084 0.125268,-0.01948 0.235292,-0.03117 0.244325,-0.02559 0.01934,0.01194 0.02208,0.761293 0.0029,0.790435 -0.01201,0.01824 -1.241973,0.216803 -1.342822,0.216803 h -0.04587 v -0.602604 c 0,-0.331337 0.0047,-0.626213 0.01062,-0.655719 0.01278,-0.06389 0.02615,-0.07036 0.183486,-0.08498 l 0.121196,-0.0111 v 0.50217 c 0,0.423672 0.0039,0.501688 0.02511,0.501688 0.03552,0 0.697803,-0.103751 0.724284,-0.113471 0.01399,-0.0051 0.02173,-0.04361 0.02173,-0.106712 0,-0.09351 -0.0018,-0.09843 -0.03911,-0.08981 -0.02169,0.005 -0.136632,0.02295 -0.255431,0.04008 -0.186909,0.02693 -0.218459,0.02759 -0.232254,0.0058 -0.0088,-0.01384 -0.01579,-0.19281 -0.01593,-0.397873 -2.72e-4,-0.370799 -10e-5,-0.372867 0.03911,-0.38725 0.06557,-0.02405 0.782483,-0.128149 0.801541,-0.116369 z M 6.8753849,10.96371 c 0.0094,-0.0094 0.269105,0.0276 0.291645,0.04153 0.0086,0.0053 0.01545,0.236408 0.01545,0.513759 v 0.504585 l 0.372282,0.05553 c 0.204825,0.0307 0.380903,0.0557 0.391113,0.05553 0.01091,-1.9e-4 0.01797,-0.03983 0.01738,-0.09657 -0.0012,-0.112471 0.01859,-0.102151 -0.254948,-0.140028 -0.110846,-0.01535 -0.223613,-0.03195 -0.250119,-0.03718 l -0.0478,-0.0097 v -0.336063 c 2.72e-4,-0.409296 0.0076,-0.467405 0.05987,-0.467405 0.03888,0 0.705678,0.09822 0.776915,0.114437 0.03682,0.0084 0.03911,0.01812 0.03911,0.147754 0,0.07636 -0.0063,0.143198 -0.01449,0.148237 -0.0082,0.005 -0.115702,-0.0067 -0.239014,-0.02559 -0.314326,-0.04825 -0.292583,-0.05289 -0.286333,0.06615 l 0.0053,0.09995 0.245291,0.03621 c 0.134944,0.01998 0.255453,0.04228 0.267502,0.04973 0.01639,0.01014 0.02173,0.105988 0.02173,0.379525 0,0.201058 -0.0048,0.377796 -0.01062,0.393044 -0.01198,0.03123 -0.102509,0.03435 -0.234668,0.0082 -0.04337,-0.0086 -0.323114,-0.0519 -0.621918,-0.09657 -0.298805,-0.04467 -0.549737,-0.09017 -0.557699,-0.100917 -0.01451,-0.0196 -8.9e-4,-1.289313 0.014,-1.304194 z m 1.705447,0.25012 c 0.07766,0.0056 0.225229,0.02975 0.248188,0.04394 0.01723,0.01065 0.01847,0.201727 0.0068,0.913563 l -0.01497,0.900527 -0.04346,0.0029 c -0.0241,0.0015 -0.09137,-0.0062 -0.149202,-0.01738 L 8.5229249,13.0371 v -0.905839 c 0,-0.498016 0.0048,-0.910208 0.01062,-0.915978 0.0032,-0.0032 0.02143,-0.0033 0.04732,-0.0015 z m -2.276182,0.687587 0.125059,0.01159 c 0.189318,0.0176 0.194388,0.02245 0.188314,0.183002 -0.0049,0.129886 -0.007,0.134882 -0.04925,0.137614 -0.0241,0.0015 -0.09089,-0.0062 -0.14872,-0.01738 l -0.105262,-0.02028 -0.0048,-0.147271 z m 4.6981871,0.0705 -4.94e-4,0.112022 c -3.71e-4,0.176821 -0.0036,0.181938 -0.129888,0.205214 -0.193577,0.03567 -0.184934,0.0413 -0.184934,-0.120231 0,-0.16331 0.0019,-0.164982 0.201351,-0.185417 z m -5.4871741,0.105745 0.0053,0.102848 c 0.0053,0.102518 0.0055,0.102675 0.06663,0.113472 0.03374,0.006 0.0831,0.01224 0.109608,0.01352 0.04693,0.0022 0.04828,-2.07e-4 0.04828,-0.09271 0,-0.104886 0.0122,-0.09531 -0.163205,-0.125543 z m 7.1168131,0.156928 v 0.13182 c 0,0.149854 -0.0077,0.160749 -0.122645,0.177691 -0.04338,0.0064 -0.104356,0.01657 -0.135683,0.02221 l -0.05698,0.01014 v -0.149202 c 0,-0.172598 -0.0068,-0.165666 0.186866,-0.182037 z m -0.564941,0.08353 c 0.01485,0.0055 0.02173,0.05029 0.02173,0.139063 0,0.08585 -0.0074,0.135481 -0.02173,0.144374 -0.01205,0.0075 -0.07997,0.0227 -0.150651,0.0338 -0.0998,0.01567 -0.130328,0.01547 -0.136648,-9.65e-4 -0.0045,-0.01167 -0.0058,-0.07953 -0.0029,-0.150651 l 0.0053,-0.129405 0.131336,-0.02221 c 0.07229,-0.01224 0.1415,-0.01845 0.153549,-0.014 z m -0.600673,0.08643 c 0.02779,-0.0025 0.04838,-0.0025 0.05505,0 0.01765,0.0068 0.02414,0.04496 0.02414,0.141477 0,0.15399 -0.0032,0.157337 -0.201833,0.177691 l -0.11492,0.01159 0.0048,-0.146789 0.0053,-0.147271 0.128922,-0.02318 c 0.03551,-0.0063 0.07071,-0.01102 0.0985,-0.01352 z m -1.370828,0.01062 c -0.02651,9.8e-5 -0.07781,0.0051 -0.1139541,0.01111 l -0.06567,0.01062 v 0.104297 0.104297 l 0.04828,-0.0097 c 0.02651,-0.0053 0.07733,-0.01453 0.1134711,-0.02076 l 0.06615,-0.01159 v -0.09416 c 0,-0.09139 -0.0017,-0.09434 -0.04829,-0.09416 z m -3.7566191,0.0024 c 0.01903,-0.0019 0.04737,-3.96e-4 0.08933,0.0043 0.193713,0.02193 0.195211,0.02356 0.189279,0.181071 -0.0059,0.15587 -0.0021,0.153199 -0.180588,0.124093 -0.05779,-0.0094 -0.114897,-0.02521 -0.126991,-0.03525 -0.02533,-0.02101 -0.02976,-0.219527 -0.0058,-0.257362 0.006,-0.0094 0.01574,-0.01505 0.03477,-0.0169 z m 4.6325201,0.07098 c 0.01343,0.0041 0.0172,0.01431 0.02221,0.03428 0.0058,0.02326 0.0083,0.08904 0.0053,0.145823 -0.0061,0.117279 -0.0064,0.117378 -0.205696,0.140511 l -0.106228,0.01207 V 12.67252 12.5238 l 0.05698,-0.01014 c 0.03133,-0.0056 0.09763,-0.0154 0.147754,-0.02173 0.04302,-0.0054 0.06624,-0.0074 0.07967,-0.0034 z m -4.1226241,0.0087 0.128923,0.01111 c 0.192276,0.01624 0.186382,0.0107 0.186382,0.169966 0,0.07551 -0.0058,0.140323 -0.01304,0.143891 -0.0072,0.0036 -0.06821,-6.18e-4 -0.135682,-0.0092 -0.06747,-0.0087 -0.132325,-0.02384 -0.144374,-0.0338 -0.01398,-0.01155 -0.02221,-0.06601 -0.02221,-0.150169 z m 0.574116,0.07533 c 0.0258,2.47e-4 0.241258,0.03628 0.271365,0.04539 0.02585,0.0078 0.0309,0.03154 0.0309,0.14872 v 0.139062 l -0.07436,-0.0019 c -0.04096,-7.41e-4 -0.08259,-0.004 -0.09223,-0.0072 -0.0096,-0.0033 -0.04691,-0.01084 -0.08305,-0.0169 l -0.06567,-0.01062 V 12.72085 c 0,-0.0815 0.0058,-0.148309 0.01304,-0.148237 z m 0.594395,0.0956 c 0.07818,0.0025 0.221445,0.02541 0.239497,0.04346 0.02233,0.02233 0.03483,0.149362 0.02173,0.219217 -0.01063,0.05665 -0.01713,0.06189 -0.06808,0.06036 -0.03089,-9.89e-4 -0.09908,-0.0106 -0.1521,-0.02173 l -0.09657,-0.02028 -0.0053,-0.129405 c -0.0029,-0.07136 0.002,-0.13724 0.01111,-0.146306 0.0046,-0.0046 0.02367,-0.0061 0.04973,-0.0053 z m -4.383366,0.517622 c 0.0236,0 1.21231,0.178292 2.641222,0.395942 1.428914,0.217649 2.625352,0.395327 2.659088,0.394976 0.05262,-4.95e-4 0.937546,-0.133961 4.6054791,-0.693864 0.349764,-0.05339 0.654735,-0.09705 0.67793,-0.09705 0.04107,0 0.09705,0.05674 0.09705,0.0985 0,0.01125 -0.01404,0.0372 -0.0309,0.05746 -0.02689,0.0323 -0.109349,0.04852 -0.670204,0.133751 -0.351818,0.05347 -1.545587,0.234872 -2.65281,0.403185 -1.1072221,0.168314 -2.0340381,0.305206 -2.0593801,0.304199 -0.02534,-9.88e-4 -0.266565,-0.03603 -0.536453,-0.07822 -0.269889,-0.04219 -1.45321,-0.222964 -2.629151,-0.401736 -1.92218,-0.292216 -2.140933,-0.328845 -2.168506,-0.361659 -0.01687,-0.02007 -0.0309,-0.04573 -0.0309,-0.05698 0,-0.04218 0.05573,-0.0985 0.09754,-0.0985 z" /><g
     aria-label="AI Projek"
     id="text514"
     style="font-weight:bold;font-size:10.3619px;font-family:Poppins;-inkscape-font-specification:'Poppins Bold';fill:#f15a30;stroke-width:4.31747;stroke-linecap:round;stroke-linejoin:round;fill-opacity:1"><path
       d="m 29.205381,11.630361 -0.404114,-1.222705 h -2.611199 l -0.404114,1.222705 h -1.885866 l 2.528304,-7.2947782 h 2.155275 l 2.517942,7.2947782 z M 26.63563,9.0606093 h 1.720076 L 27.495668,6.4701342 Z"
       id="path1402"
       style="fill:#f15a30;fill-opacity:1" /><path
       d="M 31.972002,11.630361 V 4.3563066 h 1.771885 v 7.2740544 z"
       id="path1404"
       style="fill:#f15a30;fill-opacity:1" /><path
       d="m 43.950343,6.5841151 q 0,0.735695 -0.528457,1.4195804 -0.279772,0.3523046 -0.839314,0.5802664 -0.549181,0.2175999 -1.3056,0.2175999 H 40.178611 V 11.630361 H 38.406726 V 4.3563066 h 2.870246 q 1.264152,0 1.968761,0.6527997 0.70461,0.6527997 0.70461,1.5750088 z m -3.771732,0.8703997 h 1.098361 q 0.404114,0 0.632076,-0.2383237 0.238324,-0.2383237 0.238324,-0.6217141 0,-0.3937522 -0.238324,-0.6424378 -0.238324,-0.2486856 -0.632076,-0.2486856 h -1.098361 z"
       id="path1406"
       style="fill:#f15a30;fill-opacity:1" /><path
       d="m 46.789508,5.8484202 v 1.0776377 q 0.621714,-1.1398091 1.657904,-1.1398091 v 1.8029707 h -0.4352 q -0.611352,0 -0.922209,0.2901332 -0.300495,0.2901332 -0.300495,1.0154662 V 11.630361 H 45.017623 V 5.8484202 Z"
       id="path1408"
       style="fill:#f15a30;fill-opacity:1" /><path
       d="m 52.882304,9.817028 q 0.352304,-0.3730284 0.352304,-1.0776376 0,-0.7046092 -0.362666,-1.0672757 -0.362667,-0.3730284 -0.860038,-0.3730284 -0.497371,0 -0.860038,0.3730284 -0.352304,0.3626665 -0.352304,1.0672757 0,0.7046092 0.362666,1.0776376 0.373029,0.373028 0.8704,0.373028 0.497371,0 0.849676,-0.373028 z m -3.015313,1.067276 q -0.8704,-0.81859 -0.8704,-2.1552755 0,-1.3366851 0.8704,-2.1345515 0.870399,-0.8082282 2.155275,-0.8082282 1.284876,0 2.144913,0.8082282 0.8704,0.7978664 0.8704,2.1345515 0,1.3366855 -0.860038,2.1552755 -0.860038,0.81859 -2.144913,0.81859 -1.284876,0 -2.165637,-0.81859 z"
       id="path1410"
       style="fill:#f15a30;fill-opacity:1" /><path
       d="m 56.177386,5.8484202 h 1.771885 v 6.6316158 q 0,1.046552 -0.538819,1.47139 -0.528456,0.4352 -1.502475,0.4352 H 55.21373 v -1.502475 h 0.424837 q 0.538819,0 0.538819,-0.404115 z m 1.616457,-0.6527997 q -0.300495,0.3004951 -0.735695,0.3004951 -0.4352,0 -0.735695,-0.3004951 -0.300495,-0.3004951 -0.300495,-0.7356949 0,-0.4455617 0.300495,-0.7460568 0.300495,-0.3004952 0.735695,-0.3004952 0.4352,0 0.735695,0.3004952 0.300495,0.3004951 0.300495,0.7460568 0,0.4351998 -0.300495,0.7356949 z"
       id="path1412"
       style="fill:#f15a30;fill-opacity:1" /><path
       d="m 61.959319,11.702894 q -1.264152,0 -2.07238,-0.808228 -0.808228,-0.81859 -0.808228,-2.1656375 0,-1.347047 0.797866,-2.1449134 0.808228,-0.7978663 2.082742,-0.7978663 1.274514,0 2.113828,0.7875044 0.839314,0.7875045 0.839314,2.186361 0,0.3004951 -0.04145,0.5595426 h -3.97897 q 0.05181,0.3833903 0.341943,0.6320759 0.290133,0.2383233 0.621714,0.2383233 0.341943,0 0.507733,-0.06217 0.165791,-0.07253 0.238324,-0.1347046 0.0829,-0.072533 0.207238,-0.2279619 h 1.916951 q -0.248685,0.8703995 -0.994742,1.4092185 -0.746057,0.528457 -1.771885,0.528457 z M 63.068042,8.2109335 Q 63.026595,7.8068194 62.715738,7.5581338 62.404881,7.2990863 61.980043,7.2990863 q -0.424838,0 -0.714971,0.2590475 -0.290134,0.2486856 -0.362667,0.6527997 z"
       id="path1414"
       style="fill:#f15a30;fill-opacity:1" /><path
       d="M 67.824155,11.630361 H 66.05227 V 3.9625544 h 1.771885 V 8.262743 l 1.792609,-2.4143228 h 2.383237 l -2.476494,2.9531416 2.476494,2.8287992 H 69.647849 L 67.824155,9.3196568 Z"
       id="path1416"
       style="fill:#f15a30;fill-opacity:1" /></g></g></svg>
