<?xml version="1.0" encoding="UTF-8" standalone="no"?>
<svg
   id="Layer_1"
   data-name="Layer 1"
   viewBox="0 0 72 72"
   version="1.1"
   sodipodi:docname="mark-knockout.svg"
   xml:space="preserve"
   inkscape:version="1.2.2 (b0a8486541, 2022-12-01)"
   xmlns:inkscape="http://www.inkscape.org/namespaces/inkscape"
   xmlns:sodipodi="http://sodipodi.sourceforge.net/DTD/sodipodi-0.dtd"
   xmlns="http://www.w3.org/2000/svg"
   xmlns:svg="http://www.w3.org/2000/svg"
   xmlns:rdf="http://www.w3.org/1999/02/22-rdf-syntax-ns#"
   xmlns:cc="http://creativecommons.org/ns#"
   xmlns:dc="http://purl.org/dc/elements/1.1/"><sodipodi:namedview
     id="namedview11"
     pagecolor="#ffffff"
     bordercolor="#000000"
     borderopacity="0.25"
     inkscape:showpageshadow="2"
     inkscape:pageopacity="0.0"
     inkscape:pagecheckerboard="0"
     inkscape:deskcolor="#d1d1d1"
     showgrid="false"
     inkscape:zoom="4.6981353"
     inkscape:cx="26.6063"
     inkscape:cy="40.441577"
     inkscape:window-width="1280"
     inkscape:window-height="736"
     inkscape:window-x="0"
     inkscape:window-y="33"
     inkscape:window-maximized="1"
     inkscape:current-layer="Layer_1" /><defs
     id="defs4"><style
       id="style2">.cls-1{fill:#22282b;}</style><style
       id="style1184">.cls-1{fill:#9292A8;}</style></defs><title
     id="title6">Artboard 1</title><path
     id="rect914"
     style="fill:#9292a8;fill-opacity:1;stroke:none;stroke-width:6.20668;stroke-linecap:round;stroke-linejoin:round"
     d="M 0,0 V 72 H 72 V 0 Z m 36.021484,14.630859 c 6.772861,0 6.828516,0.0012 6.982422,0.144532 l 0.154297,0.144531 v 6.933594 6.933593 l -0.148437,0.134766 c -0.12196,0.11052 -0.28351,0.140376 -0.886719,0.160156 l -0.736328,0.02344 v 0.214843 c 0,0.20284 0.0122,0.211335 0.230468,0.171876 0.126712,-0.0229 2.145058,-0.332018 4.484376,-0.685547 2.33932,-0.35354 5.286939,-0.800651 6.550781,-0.994141 2.10753,-0.32264 2.311123,-0.341637 2.46289,-0.242188 0.160314,0.10504 0.166016,0.137768 0.166016,1.097657 0,0.745869 0.02119,0.990924 0.08789,0.990234 0.04874,-4.7e-4 0.487251,-0.06367 0.974609,-0.140625 1.115475,-0.17616 1.105839,-0.175387 1.314453,0.0332 l 0.175781,0.173828 v 3.865235 3.867187 h 1.013672 c 0.96986,0 1.022719,0.007 1.169922,0.164063 0.154057,0.16399 0.154297,0.16639 0.154297,3.748047 0,3.517956 -0.0023,3.586161 -0.146484,3.769531 -0.146593,0.18636 -0.149476,0.1875 -1.169922,0.1875 h -1.021485 v 3.292969 3.291015 l -0.160156,0.183594 c -0.156035,0.17842 -0.39017,0.216758 -10.757812,1.810547 -5.828799,0.896049 -10.756227,1.626507 -10.951172,1.623047 -0.194942,-0.003 -5.106308,-0.732192 -10.91211,-1.619141 -9.90275,-1.512848 -10.563188,-1.622328 -10.685547,-1.773437 -0.1225,-0.15128 -0.130859,-0.362498 -0.130859,-3.484375 v -3.324218 h -1.058594 -1.05664 l -0.148438,-0.1875 c -0.144246,-0.18338 -0.146484,-0.251301 -0.146484,-3.779297 v -3.59375 l 0.164062,-0.154297 c 0.153077,-0.14381 0.233785,-0.154297 1.205079,-0.154297 h 1.041015 v -3.830078 -3.832031 l 0.173828,-0.173828 c 0.20924,-0.20924 0.154217,-0.208033 1.28711,-0.0332 0.50253,0.0776 0.953215,0.142168 1.001953,0.142578 0.0667,5.8e-4 0.08984,-0.244455 0.08984,-0.990235 0,-0.960519 0.0053,-0.994259 0.166015,-1.099609 0.153096,-0.10031 0.681205,-0.032 6.865235,0.884766 3.684635,0.546229 6.736215,0.992187 6.78125,0.992187 0.04503,0 0.08203,-0.09167 0.08203,-0.205078 v -0.207031 l -0.744141,-0.02344 c -0.660412,-0.0215 -0.758875,-0.04192 -0.902344,-0.185547 l -0.162109,-0.162109 -0.01953,-6.75 c -0.01092,-3.712592 -0.0022,-6.823393 0.01953,-6.912109 0.02166,-0.08872 0.102703,-0.223796 0.179687,-0.300782 0.137434,-0.137433 0.26327,-0.140625 6.966797,-0.140625 z m -6.11914,1.064453 v 6.166016 6.167969 h 6.132812 6.13086 v -6.167969 -6.166016 h -6.13086 z m 6.132812,8.080079 c 1.003659,0 1.038192,0.005 1.207031,0.173828 0.165553,0.165552 0.175782,0.215755 0.175782,1.03125 0,0.8155 -0.01018,0.8657 -0.175782,1.03125 -0.168839,0.16885 -0.203372,0.173828 -1.207031,0.173828 -1.003655,0 -1.040148,-0.0048 -1.208984,-0.173828 -0.165557,-0.16555 -0.173828,-0.21575 -0.173828,-1.03125 0,-0.815495 0.0082,-0.865698 0.173828,-1.03125 0.168836,-0.16884 0.205329,-0.173828 1.208984,-0.173828 z m 18.376953,4.607421 c -0.04874,-6.9e-5 -4.20075,0.62481 -9.226562,1.386719 l -9.136719,1.384766 -1.744141,-0.253906 c -0.958945,-0.13995 -2.795408,-0.413319 -4.082031,-0.605469 -7.018074,-1.048119 -12.412607,-1.839844 -12.52539,-1.839844 -0.114835,0 -0.128907,0.0729 -0.128907,0.708984 0,0.51773 0.02316,0.709981 0.08789,0.712891 0.04874,0.002 4.108919,0.603611 9.021484,1.337891 4.912568,0.734279 9.076916,1.33942 9.253907,1.34375 0.17699,0.004 2.745437,-0.361068 5.707031,-0.810547 2.961591,-0.44949 6.96264,-1.055617 8.892578,-1.347656 1.929935,-0.29204 3.613521,-0.549176 3.740234,-0.572266 l 0.230469,-0.04297 v -0.701172 c 0,-0.513439 -0.02494,-0.701042 -0.08984,-0.701172 z M 31.603516,29.091797 V 29.375 c 0,0.23428 0.02776,0.289183 0.160156,0.320312 0.395744,0.093 3.881355,0.589274 4.183594,0.595704 0.185689,0.004 1.18997,-0.122287 2.232421,-0.279297 2.540572,-0.38264 2.285157,-0.309846 2.285157,-0.640625 v -0.279297 h -4.429688 z m 25.236328,1.332031 -0.230469,0.04102 c -0.760108,0.13903 -20.409437,3.09375 -20.574219,3.09375 -0.164789,0 -19.81624,-2.887588 -20.576172,-3.023438 l -0.230468,-0.04102 v 3.482421 3.480469 h 0.988281 c 0.982155,0 0.986656,0.0017 1.132812,0.1875 0.144224,0.18335 0.148438,0.251859 0.148438,3.759766 v 3.574219 l -0.173828,0.173828 c -0.167612,0.16761 -0.209797,0.173828 -1.134766,0.173828 h -0.960937 v 3.048828 c 0,1.676508 0.02349,3.049361 0.05273,3.050781 0.02925,10e-4 4.711955,0.712519 10.404297,1.580078 9.23333,1.407229 10.395938,1.569312 10.77539,1.513672 0.233932,-0.0343 4.906864,-0.753157 10.384766,-1.597656 l 9.958984,-1.535156 0.01953,-3.03125 0.01758,-3.029297 h -0.996094 c -0.963411,0 -1.001688,-0.0058 -1.169922,-0.173828 l -0.173828,-0.173828 v -3.574219 c 0,-3.507907 0.0023,-3.576416 0.146484,-3.759766 0.146594,-0.18636 0.149476,-0.1875 1.169922,-0.1875 h 1.021485 v -3.515625 z m -3.607422,2.183594 c 0.03456,0.0214 0.06445,0.27376 0.06445,0.5625 0,0.428639 -0.02372,0.536261 -0.125,0.58789 -0.06823,0.0348 -3.002767,0.507159 -6.521484,1.048829 l -6.398438,0.984375 v 0.43164 0.431641 l 1.007813,-0.160156 c 0.553412,-0.0888 1.031081,-0.146363 1.0625,-0.126953 0.03141,0.0194 0.05664,0.731362 0.05664,1.582031 0,1.170919 -0.02108,1.564034 -0.08984,1.621093 -0.04995,0.0415 -0.729256,0.172426 -1.507813,0.291016 -0.778561,0.11859 -1.499825,0.2315 -1.603516,0.25 -0.127361,0.0227 -0.202189,-0.0028 -0.230468,-0.07617 -0.05573,-0.14523 -0.05187,-2.52214 0.0059,-4.042968 l 0.04492,-1.21875 0.433594,-0.07422 c 1.7904,-0.30969 13.751174,-2.122447 13.800781,-2.091797 z m -34.238281,0.03711 c 0.08868,-0.0023 0.227965,0.01423 0.46289,0.05078 0.303886,0.0472 0.578955,0.112162 0.611328,0.144532 0.03236,0.0324 0.04886,2.825051 0.03711,6.205078 -0.02118,6.096174 -0.01955,6.145384 0.121094,6.177734 0.07797,0.0179 1.528604,0.241174 3.224609,0.496094 1.696002,0.25492 3.140754,0.481483 3.208984,0.501953 0.104492,0.0313 0.123047,0.123621 0.123047,0.59375 0,0.30699 -0.02495,0.57418 -0.05664,0.59375 -0.03166,0.0196 -1.521228,-0.184378 -3.310547,-0.455078 -1.78932,-0.2707 -3.279573,-0.492188 -3.310547,-0.492187 -0.07682,0 -0.07106,2.817704 0.0059,2.865234 0.03371,0.0208 0.241223,0.05818 0.460938,0.08398 l 0.398437,0.04687 v -0.96875 c 0,-0.774609 0.02058,-0.976732 0.101563,-1.007812 0.08363,-0.0321 2.569946,0.305906 3.248047,0.441406 l 0.195312,0.03906 v 1.625 1.623046 l -0.195312,-0.0059 c -0.10722,-0.004 -1.295519,-0.178539 -2.640626,-0.386719 -1.34511,-0.20819 -2.549069,-0.398375 -2.675781,-0.421875 l -0.230469,-0.04102 0.002,-8.769532 c 7.3e-4,-5.154784 0.02647,-8.811063 0.06445,-8.871093 0.02747,-0.0434 0.06561,-0.06602 0.154297,-0.06836 z m 2.259765,0.361328 c 0.183601,-0.0214 14.441434,2.09229 14.544922,2.15625 0.03214,0.0198 0.05859,0.288047 0.05859,0.597657 0,0.551669 -0.004,0.5625 -0.175781,0.5625 -0.0965,0 -3.070182,-0.429832 -6.609375,-0.957032 -3.539192,-0.527199 -6.500148,-0.965709 -6.578125,-0.974609 -0.123005,-0.014 -0.143864,0.03078 -0.16211,0.34375 -0.01362,0.23371 0.01074,0.385651 0.07031,0.431641 0.05056,0.039 0.475495,0.125206 0.943359,0.191406 0.467864,0.0662 0.937706,0.137083 1.044922,0.158203 l 0.195312,0.03906 v 1.625 1.625 l -0.265624,-0.0098 c -0.146207,-0.005 -0.83922,-0.09878 -1.541016,-0.208984 -0.701796,-0.11019 -1.380627,-0.218938 -1.507813,-0.242188 l -0.230468,-0.04297 0.01758,-2.636719 0.01953,-2.636718 z m 31.851563,1.6875 h 0.191406 l -0.01758,2.640625 -0.01953,2.640625 -0.423829,0.08008 c -0.233932,0.0443 -1.213767,0.201979 -2.177734,0.349609 l -1.753906,0.267578 -0.01953,1.033203 -0.01953,1.033203 -2.126953,0.333985 c -1.16966,0.183029 -2.150444,0.333767 -2.179687,0.335937 -0.02925,0.002 -0.05273,0.464634 -0.05273,1.027344 0,0.913169 -0.01232,1.025894 -0.123046,1.058594 -0.158168,0.0467 -5.220922,0.824218 -5.367188,0.824218 -0.07982,0 -0.111906,-0.08081 -0.119141,-0.300781 -0.01063,-0.32352 0.01227,-0.857819 0.03906,-0.886719 0.01895,-0.0204 4.106245,-0.65625 4.21875,-0.65625 0.05083,0 0.07617,-0.534928 0.07617,-1.654297 0,-0.910519 0.02016,-1.849187 0.04492,-2.085937 0.0506,-0.48415 0.02699,-0.468774 0.787109,-0.552734 l 0.443359,-0.04883 v 1.001954 c 0,0.991749 0.0022,1.00106 0.160157,1 0.08772,-5.8e-4 0.765076,-0.09514 1.505859,-0.210938 0.740782,-0.11579 1.371152,-0.212311 1.400391,-0.21289 0.02925,-5.9e-4 0.05273,-0.193128 0.05273,-0.429688 0,-0.37569 -0.01469,-0.427034 -0.123047,-0.396484 -0.320265,0.0903 -1.856486,0.275658 -1.958984,0.236328 -0.09133,-0.035 -0.116093,-0.145651 -0.115235,-0.525391 7.3e-4,-0.2644 0.02604,-0.51753 0.05469,-0.5625 0.04816,-0.0756 1.452458,-0.317458 4.447265,-0.767578 0.662806,-0.0996 1.402805,-0.215743 1.646485,-0.257813 l 0.443359,-0.07617 v -1.447266 -1.447266 l -0.300781,0.04883 c -0.165703,0.0268 -1.338336,0.212336 -2.605469,0.410156 l -2.302734,0.359375 -0.02148,0.40625 c -0.0156,0.298669 0.0027,0.40741 0.07031,0.40625 0.05068,-8.7e-4 1.002106,-0.14168 2.113281,-0.3125 1.111178,-0.17082 2.043027,-0.295374 2.072266,-0.277344 0.09507,0.0586 0.06266,1.159829 -0.03516,1.193359 -0.109601,0.0376 -7.47656,1.169922 -7.611329,1.169922 -0.07482,0 -0.09766,-0.136883 -0.09766,-0.595703 0,-0.689269 -0.129285,-0.597026 1.09961,-0.785156 0.389887,-0.0597 0.795122,-0.126198 0.902343,-0.148438 l 0.195313,-0.04102 v -1.021485 c 0,-0.562229 0.0168,-1.023437 0.03711,-1.023437 0.02031,0 1.688477,-0.254497 3.707031,-0.566406 2.018558,-0.31191 3.757298,-0.566407 3.863282,-0.566407 z m -15.103516,0.257813 c 0.02896,0.0176 0.03142,2.805416 0.0059,6.195312 -0.03999,5.288765 -0.03332,6.16392 0.05273,6.16211 0.05516,-10e-4 1.505204,-0.219799 3.220703,-0.486328 1.715502,-0.26654 3.142632,-0.471648 3.171875,-0.455078 0.02925,0.0166 0.05273,0.280497 0.05273,0.585937 0,0.43978 -0.02297,0.563756 -0.111328,0.597656 -0.06135,0.0235 -1.472822,0.252623 -3.136718,0.507813 -1.663898,0.255199 -3.097822,0.492787 -3.185547,0.529297 -0.157693,0.0656 -0.158203,0.08295 -0.158203,1.451171 v 1.382813 h 0.193359 c 0.107216,-4e-4 0.314731,-0.02082 0.460937,-0.04492 l 0.265625,-0.04297 v -1.011718 c 0,-0.7936 0.02291,-1.019399 0.09961,-1.048828 0.203181,-0.078 2.96214,-0.482188 3.146484,-0.460938 l 0.193359,0.02344 v 1.537109 c 0,0.932309 -0.02932,1.565592 -0.07227,1.607422 -0.03899,0.038 -1.235119,0.247004 -2.658203,0.464843 -1.423084,0.21784 -2.644229,0.409802 -2.714844,0.425782 -0.07176,0.0162 -0.146325,-0.01858 -0.169922,-0.08008 -0.05012,-0.13061 0.106441,-17.61035 0.158203,-17.66211 0.05378,-0.0538 1.125126,-0.214524 1.185547,-0.177734 z m -12.458984,0.839844 0.554687,0.01367 c 0.304982,0.007 0.600585,0.05146 0.65625,0.09766 0.104094,0.0864 0.145913,0.860341 0.05859,1.08789 -0.04875,0.12703 -0.03686,0.127626 -0.6875,0.0098 -0.264778,-0.0479 -0.513432,-0.118903 -0.552734,-0.158203 -0.0393,-0.0393 -0.06244,-0.291487 -0.05078,-0.560547 z m 18.996094,0.234375 c 0.08025,0.0803 0.03628,1.061469 -0.05078,1.130859 -0.04873,0.0388 -0.248417,0.09194 -0.443359,0.119141 -0.194945,0.0272 -0.418897,0.06518 -0.498047,0.08398 -0.07915,0.0188 -0.167246,0.01248 -0.195312,-0.01563 -0.04539,-0.0454 -0.07719,-1.160543 -0.0332,-1.164062 0.0098,-7.7e-4 0.280851,-0.0436 0.601563,-0.0957 0.320712,-0.0522 0.5987,-0.07899 0.619141,-0.05859 z m -16.685547,0.05469 c 0.03645,-0.0363 7.385516,1.023753 7.853515,1.132813 l 0.169922,0.03906 -0.0332,2.621094 c -0.01892,1.440988 -0.05547,2.639452 -0.08008,2.664062 -0.03657,0.0366 -3.561214,-0.449537 -4.248047,-0.585937 l -0.195312,-0.03906 v 0.994141 c 0,0.546629 -0.02678,1.01037 -0.06055,1.03125 -0.03378,0.0209 -0.998907,-0.103254 -2.144532,-0.277344 -1.145625,-0.17409 -2.138802,-0.317919 -2.207031,-0.318359 -0.112279,-6.9e-4 -0.125,0.09395 -0.125,0.992187 v 0.992188 l -0.300781,-0.0078 c -0.165703,-0.005 -1.416648,-0.180395 -2.78125,-0.390625 h -0.002 c -1.364602,-0.210229 -2.519622,-0.398095 -2.56836,-0.416015 -0.06083,-0.0224 -0.08984,-0.210733 -0.08984,-0.601563 v -0.568359 l 0.230468,0.0039 c 0.126716,0.002 1.117864,0.139178 2.201172,0.304688 1.083305,0.165509 1.983831,0.285698 2.001953,0.267578 0.01812,-0.0181 0.0332,-0.936337 0.0332,-2.041016 V 39.8672 h 0.238281 c 0.374073,0 0.9889,0.135711 1.05664,0.232421 0.03382,0.0483 0.04239,0.508165 0.01953,1.021485 l -0.04102,0.93164 0.195313,0.04102 c 0.173886,0.0362 2.981348,0.46875 3.042968,0.46875 0.0539,0 0.02024,-0.774364 -0.03516,-0.808594 -0.0328,-0.0203 -0.48697,-0.103544 -1.009766,-0.183594 -0.522796,-0.08 -1.005988,-0.162023 -1.074218,-0.183593 -0.104423,-0.033 -0.125,-0.128213 -0.125,-0.601563 v -0.5625 h 0.267578 c 0.146207,4e-5 1.635989,0.205955 3.3125,0.458985 1.67651,0.253019 3.072319,0.460567 3.101562,0.460937 0.02925,4.1e-4 0.05273,-0.651903 0.05273,-1.451172 0,-0.799269 -0.01392,-1.453125 -0.0332,-1.453125 -0.01928,0 -1.210461,-0.176185 -2.646485,-0.390625 -1.436022,-0.21444 -2.631944,-0.390625 -2.658203,-0.390625 -0.02626,0 -0.04883,0.184697 -0.04883,0.410157 v 0.410156 l 2.160156,0.330078 c 1.188506,0.18122 2.194742,0.348547 2.234375,0.373047 0.03963,0.0245 0.07227,0.282879 0.07227,0.574219 0,0.397019 -0.02657,0.540782 -0.103516,0.570312 -0.05646,0.0217 -0.990261,-0.09293 -2.074219,-0.253906 -5.225127,-0.776209 -5.726179,-0.860936 -5.816406,-0.978516 -0.04943,-0.0644 -0.08789,-0.313743 -0.08789,-0.564453 0,-0.35584 0.02468,-0.459844 0.11914,-0.496094 0.06562,-0.0252 0.573511,0.01705 1.128906,0.09375 l 1.009766,0.140625 0.02344,-0.972656 c 0.01256,-0.534539 0.04114,-0.990472 0.06445,-1.013672 z m -5.535157,0.367188 v 0.396484 c 0,0.42642 -0.03237,0.391774 0.460938,0.496094 0.07798,0.0165 0.233659,0.03456 0.345703,0.03906 l 0.203125,0.0078 -0.0332,-0.390625 c -0.01779,-0.2144 -0.04597,-0.403392 -0.0625,-0.419922 -0.01654,-0.0165 -0.229214,-0.05258 -0.472656,-0.08008 z m 18.785157,1.277343 -0.265625,0.04687 c -0.704913,0.12134 -0.65625,0.08379 -0.65625,0.507813 0,0.37211 0.0066,0.383562 0.195312,0.382812 0.107222,-4e-4 0.31473,-0.02082 0.460938,-0.04492 l 0.265625,-0.04492 V 38.14844 Z m -28.285157,0.72461 v 2.943359 2.941406 h 1.84375 1.84375 v -2.941406 -2.943359 h -1.84375 z m 42.675782,0 v 2.943359 2.941406 h 1.841796 1.84375 v -2.941406 -2.943359 h -1.84375 z m -34.460938,0.759765 c 0.06725,-0.0673 2.993477,0.333679 3.322266,0.455078 0.133454,0.0493 0.160156,0.11063 0.160156,0.38086 0,0.22606 -0.03262,0.335784 -0.109375,0.365234 -0.09154,0.0351 -1.717469,-0.170604 -2.390625,-0.302734 -0.171225,-0.0336 -0.193359,-0.01627 -0.193359,0.140625 0,0.0983 0.027,0.196067 0.06055,0.216797 0.03353,0.0207 0.614966,0.120216 1.292968,0.222656 0.678007,0.10245 1.256513,0.222758 1.285156,0.267578 0.06267,0.0981 0.07284,1.688427 0.01172,1.847656 -0.05318,0.13858 0.0332,0.146371 -1.787109,-0.136718 -0.831433,-0.12931 -1.557721,-0.252118 -1.613281,-0.273438 -0.150922,-0.0579 -0.137808,-0.671599 0.01563,-0.730469 0.100489,-0.0386 1.959815,0.198444 2.417968,0.308594 0.138479,0.0333 0.158204,0.01078 0.158204,-0.173828 V 41.583988 L 22.83204,41.460942 c -0.458116,-0.0681 -1.057158,-0.160589 -1.330078,-0.205079 l -0.496094,-0.08008 -0.01953,-0.949219 c -0.01118,-0.533189 0.0091,-0.979818 0.04687,-1.017578 z m 21.158203,1.31836 c 0.126372,0.0485 0.163386,0.504311 0.05469,0.675781 -0.03732,0.0589 -0.524185,0.164753 -1.292969,0.283203 l -1.232422,0.191406 -0.02148,0.19336 c -0.01234,0.10678 0.0034,0.194732 0.03516,0.195312 0.03185,5.9e-4 0.593685,-0.08423 1.248047,-0.1875 0.654361,-0.10325 1.212291,-0.164638 1.240234,-0.136718 0.02794,0.0279 0.06155,0.439672 0.07422,0.914062 0.01705,0.638789 -0.0029,0.892356 -0.07227,0.978516 -0.121511,0.150489 -3.203405,0.64426 -3.316406,0.53125 -0.07821,-0.0782 -0.09874,-0.463926 -0.0332,-0.634766 0.02922,-0.0762 0.390446,-0.159055 1.3125,-0.302734 l 1.269531,-0.199219 V 42.82227 c 0,-0.18868 -0.01635,-0.204552 -0.193359,-0.169922 -0.784828,0.15356 -2.231722,0.34439 -2.330078,0.30664 -0.10721,-0.0411 -0.115063,-0.145993 -0.07813,-0.976562 0.02272,-0.51103 0.06776,-0.953182 0.09961,-0.982422 0.08992,-0.0825 3.10535,-0.522916 3.236328,-0.472656 z m 10.785157,0.347656 c 0.303714,-0.02389 0.319346,0.09437 0.318359,0.53125 -5.84e-4,0.2644 -0.02707,0.522606 -0.05859,0.572266 -0.05443,0.0858 -0.710769,0.227635 -1.058594,0.228515 -0.157798,4e-4 -0.162588,-0.01556 -0.142578,-0.583984 l 0.01953,-0.585938 0.511719,-0.09766 c 0.175378,-0.03332 0.308918,-0.05649 0.410157,-0.06445 z m -1.871094,0.318359 -0.02148,0.591797 c -0.01987,0.56499 -0.02818,0.590649 -0.201171,0.636719 -0.326718,0.087 -0.958284,0.147163 -1.009766,0.0957 -0.02776,-0.0278 -0.05078,-0.285386 -0.05078,-0.572266 0,-0.606839 0.01774,-0.621105 0.818359,-0.703124 z m 1.916015,1.75586 c 0.109213,-0.0086 0.183063,-0.0083 0.195313,0.0039 0.0684,0.0683 0.09422,6.764922 0.02734,7.082031 -0.06527,0.30948 -0.119079,0.338172 -0.820313,0.425782 l -0.404297,0.05078 0.01758,-3.708985 0.01758,-3.708984 0.558594,-0.0918 c 0.153452,-0.02525 0.298991,-0.04416 0.408203,-0.05273 z m -20.509765,0.002 c 0.109629,0.0073 0.251896,0.02282 0.40039,0.04492 0.399869,0.0595 0.559012,0.113187 0.611328,0.210937 0.07154,0.13368 0.01403,1.040218 -0.06836,1.080078 -0.02374,0.0115 -0.203494,-0.0037 -0.398437,-0.0332 -0.194941,-0.0299 -0.457273,-0.07416 -0.583985,-0.09766 l -0.230469,-0.04102 v -0.560546 c 0,-0.30784 0.02876,-0.57756 0.06445,-0.59961 0.01784,-0.011 0.09545,-0.01118 0.205078,-0.0039 z m 1.998047,0.304687 0.43164,0.05078 c 0.838526,0.0973 0.806593,0.069 0.830078,0.730468 l 0.02148,0.580079 -0.269532,-0.0078 c -0.147783,-0.005 -0.435935,-0.03887 -0.640624,-0.07617 l -0.373047,-0.06836 v -0.603516 z m 16.517578,0.04883 c 0.09135,0.0565 0.09483,1.076572 0.0039,1.132812 -0.03746,0.0232 -0.460315,0.105111 -0.939453,0.181641 -1.303808,0.208259 -1.191406,0.150783 -1.191406,0.601562 0,0.45869 -0.09514,0.438794 1.144531,0.246094 0.5067,-0.0788 0.951741,-0.126096 0.988281,-0.103516 0.07822,0.0483 0.08932,3.079386 0.01172,3.197266 -0.04856,0.0738 -5.023709,0.876953 -5.431641,0.876953 h -0.185547 v -2.4375 c 0,-1.340239 0.01911,-2.532994 0.04297,-2.652344 0.05169,-0.258449 0.105773,-0.2846 0.742188,-0.34375 l 0.490234,-0.04492 v 2.03125 c 0,1.713729 0.01597,2.029297 0.101562,2.029297 0.143691,0 2.822574,-0.419664 2.929688,-0.458984 0.05657,-0.0208 0.08789,-0.176411 0.08789,-0.431641 0,-0.378259 -0.0073,-0.398151 -0.158203,-0.363281 -0.08773,0.0203 -0.55267,0.09285 -1.033204,0.162109 -0.756034,0.10895 -0.883655,0.111618 -0.939453,0.02344 -0.03546,-0.056 -0.06386,-0.779906 -0.06445,-1.609375 -0.0011,-1.499859 -4.04e-4,-1.508226 0.158203,-1.566406 0.265242,-0.0973 3.165098,-0.518353 3.242188,-0.470703 z m -23.216797,1.042916 c 0.03794,-0.0379 1.088515,0.111629 1.179687,0.167969 0.03459,0.0214 0.0625,0.956256 0.0625,2.078125 v 2.041016 l 1.50586,0.224609 c 0.828506,0.12418 1.540732,0.225319 1.582031,0.224609 0.04412,-7.7e-4 0.07268,-0.161095 0.07031,-0.390625 -0.0047,-0.454939 0.07521,-0.413196 -1.03125,-0.566406 -0.448368,-0.0621 -0.904502,-0.129231 -1.011718,-0.150391 l -0.19336,-0.03906 v -1.359375 c 0.0011,-1.655578 0.03093,-1.890625 0.242188,-1.890625 0.157248,0 2.854426,0.397311 3.142578,0.462891 0.148928,0.0339 0.158203,0.07328 0.158203,0.597656 0,0.30886 -0.02561,0.579229 -0.05859,0.599609 -0.03298,0.0204 -0.468006,-0.02697 -0.966797,-0.103515 -1.271431,-0.19517 -1.183484,-0.213942 -1.158203,0.267578 l 0.02148,0.404297 0.992187,0.146484 c 0.545843,0.0808 1.033296,0.171012 1.082031,0.201172 0.0663,0.041 0.08789,0.428717 0.08789,1.535156 0,0.813269 -0.0193,1.528164 -0.04297,1.589844 -0.04848,0.12632 -0.414644,0.138943 -0.949218,0.0332 -0.175447,-0.0347 -1.30698,-0.209925 -2.515625,-0.390625 -1.208647,-0.1807 -2.223655,-0.364713 -2.25586,-0.408203 -0.0587,-0.0793 -0.0036,-5.215201 0.05664,-5.275391 z m 6.898437,1.011719 c 0.314138,0.0227 0.911039,0.120344 1.003907,0.177734 0.06968,0.0431 0.07473,0.815976 0.02734,3.695313 L 35.679681,52.875 35.5039,52.88672 c -0.09747,0.006 -0.369584,-0.02501 -0.603515,-0.07031 l -0.425782,-0.08203 v -3.664068 c 0,-2.014447 0.01961,-3.681738 0.04297,-3.705078 0.0129,-0.01287 0.08669,-0.01342 0.191406,-0.0059 z m -9.207031,2.78125 0.50586,0.04687 c 0.765779,0.0712 0.786286,0.09083 0.761718,0.740234 -0.01987,0.52538 -0.02847,0.545591 -0.199218,0.556641 -0.09747,0.006 -0.367631,-0.02501 -0.601563,-0.07031 l -0.425781,-0.08203 -0.01953,-0.595703 z m 19.003906,0.285156 -0.002,0.453125 c -0.0015,0.71523 -0.01444,0.735928 -0.52539,0.830078 -0.783006,0.14427 -0.748047,0.167042 -0.748047,-0.486328 0,-0.660579 0.0077,-0.66734 0.814453,-0.75 z m -22.195312,0.427735 0.02148,0.416015 c 0.02144,0.41468 0.02233,0.415315 0.269532,0.458985 0.136462,0.0241 0.336139,0.04949 0.443359,0.05469 0.189836,0.009 0.195312,-8.4e-4 0.195312,-0.375 0,-0.424259 0.04934,-0.385532 -0.660156,-0.507812 z m 28.787109,0.634765 v 0.533203 c 0,0.60615 -0.03124,0.65022 -0.496093,0.71875 -0.175451,0.0259 -0.422113,0.06704 -0.548829,0.08984 l -0.230468,0.04102 v -0.603516 c 0,-0.698149 -0.02745,-0.670108 0.755859,-0.736328 z M 48.8125,49.826172 c 0.06007,0.0221 0.08789,0.20342 0.08789,0.5625 0,0.34724 -0.02981,0.548014 -0.08789,0.583984 -0.04874,0.0302 -0.323484,0.09183 -0.609375,0.136719 -0.403696,0.0634 -0.527169,0.06259 -0.552734,-0.0039 -0.01812,-0.0472 -0.0233,-0.321676 -0.01172,-0.609375 l 0.02148,-0.523438 0.53125,-0.08984 c 0.292417,-0.0495 0.572359,-0.07464 0.621094,-0.05664 z m -2.429687,0.349609 c 0.112424,-0.01011 0.195715,-0.0103 0.222656,0 0.0714,0.0274 0.09766,0.181866 0.09766,0.572266 0,0.622879 -0.01283,0.63642 -0.816406,0.71875 l -0.464844,0.04687 0.01953,-0.59375 0.02148,-0.595703 0.521484,-0.09375 c 0.143634,-0.02565 0.286013,-0.04457 0.398438,-0.05469 z m -5.544922,0.04297 c -0.107216,4e-4 -0.31473,0.02082 -0.460938,0.04492 l -0.265625,0.04297 v 0.421875 0.421875 l 0.195313,-0.03906 c 0.10722,-0.0213 0.312776,-0.05878 0.458984,-0.08398 l 0.267578,-0.04687 v -0.38086 c 0,-0.369659 -0.0067,-0.381609 -0.195312,-0.380859 z m -15.195313,0.0098 c 0.07697,-0.0075 0.191595,-0.0016 0.361328,0.01758 0.78356,0.0887 0.789618,0.0953 0.765625,0.732422 -0.02374,0.630489 -0.0085,0.619683 -0.730468,0.501953 -0.233749,-0.0381 -0.464754,-0.101978 -0.513672,-0.142578 -0.102473,-0.085 -0.120362,-0.887976 -0.02344,-1.041016 0.02412,-0.0381 0.06365,-0.06086 0.140625,-0.06836 z m 18.738281,0.287109 c 0.05433,0.01644 0.06957,0.0579 0.08984,0.138672 0.02363,0.0941 0.03342,0.360174 0.02148,0.589844 -0.02465,0.474389 -0.02576,0.474789 -0.832031,0.568359 l -0.429687,0.04883 V 51.259803 50.65824 l 0.230468,-0.04102 c 0.126715,-0.0225 0.394907,-0.06229 0.597657,-0.08789 0.174002,-0.022 0.267937,-0.03011 0.322265,-0.01367 z m -16.675781,0.03516 0.521485,0.04492 c 0.777746,0.0657 0.753906,0.04327 0.753906,0.6875 0,0.30544 -0.02349,0.567601 -0.05273,0.582031 -0.02925,0.0144 -0.275909,-0.0025 -0.548828,-0.03711 -0.272922,-0.0351 -0.535245,-0.09645 -0.583984,-0.136719 -0.05655,-0.0467 -0.08984,-0.267022 -0.08984,-0.607422 z m 2.322266,0.304688 c 0.104339,10e-4 0.975874,0.146754 1.097656,0.183593 0.104567,0.0316 0.125,0.127563 0.125,0.601563 v 0.5625 l -0.300781,-0.0078 c -0.165702,-0.003 -0.334056,-0.0161 -0.373047,-0.0293 -0.03899,-0.0132 -0.189731,-0.04386 -0.335938,-0.06836 l -0.265625,-0.04297 v -0.59961 c 0,-0.32964 0.02349,-0.599899 0.05273,-0.599609 z m 2.404297,0.386719 c 0.316245,0.01 0.89573,0.102776 0.96875,0.175781 0.09031,0.0903 0.140896,0.604159 0.08789,0.886719 -0.04299,0.229159 -0.06929,0.25034 -0.27539,0.24414 -0.124944,-0.004 -0.400794,-0.04289 -0.615235,-0.08789 l -0.390625,-0.08203 -0.02148,-0.523437 c -0.01158,-0.28863 0.0082,-0.555127 0.04492,-0.591797 0.01867,-0.01868 0.09576,-0.02482 0.201172,-0.02148 z m -17.730469,2.09375 c 0.09546,0 4.903723,0.721183 10.683594,1.601562 5.779874,0.880379 10.619399,1.599076 10.755859,1.597656 0.212868,-0.002 3.792322,-0.541863 18.628906,-2.80664 1.414776,-0.21597 2.648365,-0.392579 2.742188,-0.392578 0.166145,0 0.392578,0.229527 0.392578,0.398437 0,0.0455 -0.05678,0.150462 -0.125,0.232422 -0.108771,0.13066 -0.442311,0.196276 -2.710938,0.541015 -1.423085,0.21626 -6.251813,0.950041 -10.730468,1.63086 -4.478652,0.680819 -8.22757,1.234539 -8.330078,1.230469 -0.102513,-0.004 -1.07824,-0.145757 -2.169922,-0.316407 -1.091683,-0.170649 -5.878152,-0.90188 -10.634766,-1.625 -7.775112,-1.181998 -8.659954,-1.33016 -8.771484,-1.46289 -0.06823,-0.0812 -0.125,-0.184979 -0.125,-0.230469 0,-0.17061 0.22544,-0.398437 0.394531,-0.398437 z" /><metadata
     id="metadata1683"><rdf:RDF><cc:Work
         rdf:about=""><dc:title>Artboard 1</dc:title></cc:Work></rdf:RDF></metadata></svg>
