<?xml version="1.0" encoding="UTF-8" standalone="no"?>
<!-- Generator: Adobe Illustrator 21.1.0, SVG Export Plug-In . SVG Version: 6.00 Build 0)  -->

<svg
   version="1.1"
   id="Layer_1"
   x="0px"
   y="0px"
   width="72px"
   height="72px"
   viewBox="0 0 72 72"
   enable-background="new 0 0 72 72"
   xml:space="preserve"
   sodipodi:docname="mark-outline.svg"
   inkscape:version="1.2.2 (b0a8486541, 2022-12-01)"
   xmlns:inkscape="http://www.inkscape.org/namespaces/inkscape"
   xmlns:sodipodi="http://sodipodi.sourceforge.net/DTD/sodipodi-0.dtd"
   xmlns="http://www.w3.org/2000/svg"
   xmlns:svg="http://www.w3.org/2000/svg"><defs
   id="defs10361" /><sodipodi:namedview
   id="namedview10359"
   pagecolor="#ffffff"
   bordercolor="#000000"
   borderopacity="0.25"
   inkscape:showpageshadow="2"
   inkscape:pageopacity="0.0"
   inkscape:pagecheckerboard="0"
   inkscape:deskcolor="#d1d1d1"
   showgrid="false"
   inkscape:zoom="3.2777778"
   inkscape:cx="77.18644"
   inkscape:cy="36"
   inkscape:window-width="1280"
   inkscape:window-height="736"
   inkscape:window-x="0"
   inkscape:window-y="33"
   inkscape:window-maximized="1"
   inkscape:current-layer="g12813" />

<g
   inkscape:label="Layer 1"
   id="layer1"
   transform="matrix(0.25415739,0,0,0.25415739,102.27962,24.177922)"
   style="stroke:#ffffff;stroke-opacity:1"><g
     transform="matrix(5.8458422,0,0,5.8458422,866.75069,-978.98202)"
     id="g1003"
     style="stroke:#ffffff;stroke-opacity:1" /><g
     transform="matrix(5.8458422,0,0,5.8458422,866.75069,-1003.7294)"
     id="g1009"
     style="stroke:#ffffff;stroke-opacity:1" /><g
     style="stroke:#ffffff;stroke-opacity:1"
     id="g1057"
     transform="matrix(5.8458422,0,0,5.8458422,3621.3499,-759.56093)" /><g
     id="use1471"
     style="fill:#ffffff;fill-opacity:1;stroke:#ffffff;stroke-opacity:1"
     transform="matrix(0.64588336,0,0,0.64588336,-495.47688,384.60961)"><path
       id="path12195"
       d=""
       style="stroke:#ffffff;stroke-opacity:1" /></g><g
     id="use2152"
     style="fill:#ffffff;fill-opacity:1;stroke:#ffffff;stroke-opacity:1"
     transform="matrix(0.64822916,0,0,0.64822916,-255.03136,516.18147)"><path
       id="path12191"
       d=""
       style="stroke:#ffffff;stroke-opacity:1" /></g><circle
     r="0"
     cy="-441.63385"
     cx="87.953407"
     id="ellipse2491"
     style="opacity:1;fill:none;fill-opacity:1;fill-rule:evenodd;stroke:#ffffff;stroke-width:3;stroke-linecap:round;stroke-linejoin:round;stroke-miterlimit:4;stroke-dasharray:none;stroke-dashoffset:0;stroke-opacity:1;paint-order:normal"
     transform="rotate(-122.85189)" /><g
     transform="matrix(1.2807747,0,0,1.2807747,1112.8492,-87.507115)"
     id="g9179"
     style="stroke:#ffffff;stroke-opacity:1" /><g
     transform="translate(-20.60611,-241.34308)"
     id="g9280"
     style="fill:none;fill-opacity:1;stroke:#ffffff;stroke-opacity:1"><g
       id="g9292"
       transform="translate(-225.74628)"
       style="stroke:#ffffff;stroke-opacity:1" /></g></g><g
   id="g12813"
   transform="translate(-88.779663,-10.677966)"><path
     inkscape:connector-curvature="0"
     id="path9260"
     d="M 265.92096,308.67887 V 300.419 l 69.05029,10.21622 69.08266,-10.46003 v 8.55439"
     style="fill:none;fill-opacity:1;stroke:#ffffff;stroke-width:3;stroke-linecap:round;stroke-linejoin:round;stroke-miterlimit:4;stroke-dasharray:none;stroke-opacity:1"
     transform="matrix(0.25415739,0,0,0.25415739,39.66734,-37.161205)" /><path
     d="m 404.47698,336.96149 h 17.12437 c 0,0 0,0 0,0 v 25.21088 c 0,0 0,0 0,0 h -17.12437 c 0,0 0,0 0,0 v -25.21088 c 0,0 0,0 0,0 z m -156.31755,0 h 17.12439 c 0,0 0,0 0,0 v 25.21088 c 0,0 0,0 0,0 h -17.12439 c 0,0 0,0 0,0 v -25.21088 c 0,0 0,0 0,0 z m 164.82107,25.28823 v 25.40731 l -78.01132,11.98696 -77.97481,-11.85131 v -25.5383 m 0,-25.33959 v -29.22714 l 77.97481,11.53665 78.01132,-11.81195 v 29.51083"
     style="fill:none;fill-opacity:1;stroke:#ffffff;stroke-width:3.61372;stroke-linecap:round;stroke-linejoin:round;stroke-miterlimit:4;stroke-dasharray:none;stroke-opacity:1"
     id="path9262"
     inkscape:connector-curvature="0"
     transform="matrix(0.25415739,0,0,0.25415739,39.66734,-37.161205)" /><path
     inkscape:connector-curvature="0"
     id="path9264"
     d="m 332.36629,391.36656 c -0.32953,-0.0548 -0.90055,-0.14495 -1.26885,-0.20036 -0.36826,-0.0554 -0.89158,-0.13496 -1.16288,-0.1767 -0.31555,-0.0487 -0.52721,-0.11985 -0.58685,-0.19792 -0.0731,-0.0954 -0.0844,-0.38443 -0.0535,-1.32031 0.0229,-0.65904 0.0769,-6.54286 0.12133,-13.07512 0.0447,-6.53226 0.10889,-11.95163 0.14263,-12.04307 0.0531,-0.14396 0.0934,-0.16022 0.29974,-0.12148 0.22772,0.0426 1.21744,0.19178 3.02405,0.45548 0.53341,0.0778 0.85859,0.15833 0.90378,0.22362 0.0461,0.067 0.0566,1.72665 0.0305,4.82456 -0.10961,13.03159 -0.19673,21.57754 -0.22082,21.65674 -0.034,0.11263 -0.45063,0.10395 -1.22918,-0.0254 z m 5.08523,-0.0196 c -0.10588,-0.0671 -0.12244,2.31385 0.27062,-38.70447 0.0374,-3.89609 0.10275,-11.22309 0.14513,-16.28222 0.0424,-5.05911 0.0918,-9.27083 0.10938,-9.35937 0.0524,-0.25998 -0.0675,-0.23307 3.3731,-0.75853 0.48642,-0.0743 0.65379,-0.0773 0.73108,-0.013 0.11118,0.0922 0.10178,2.27989 -0.0941,21.9021 -0.0546,5.48554 -0.12108,13.01255 -0.14767,16.72664 l -0.0482,6.7529 0.16878,-0.035 c 0.33251,-0.069 2.0765,-0.34369 4.75041,-0.74818 0.91914,-0.13906 1.4397,-0.2194 3.2071,-0.49502 0.52331,-0.0817 1.23694,-0.19101 1.58575,-0.24305 0.34904,-0.0519 1.37984,-0.21132 2.29094,-0.35393 0.91085,-0.14263 2.03709,-0.31706 2.50214,-0.38765 2.14232,-0.32501 4.68505,-0.71879 5.70944,-0.88419 1.51996,-0.24543 3.43846,-0.52605 3.59648,-0.52605 0.12403,0 0.1839,0.0487 0.21555,0.17429 0.0809,0.3228 0,3.68811 -0.0892,3.77885 -0.0459,0.0459 -0.56941,0.15824 -1.16313,0.24974 -0.59371,0.0916 -1.381,0.21337 -1.74928,0.27077 -0.36807,0.0576 -1.06589,0.16622 -1.55067,0.24175 -0.48455,0.0754 -1.21402,0.18819 -1.62107,0.25036 -0.40706,0.062 -1.35851,0.20839 -2.1146,0.32502 -0.75584,0.1166 -2.70669,0.41735 -4.33489,0.66828 -1.62818,0.25093 -3.27745,0.50594 -3.66525,0.56667 -1.43624,0.22497 -2.03547,0.31751 -4.75776,0.7349 -1.53119,0.23478 -2.83442,0.44218 -2.89611,0.46094 -0.0992,0.0303 -0.11696,0.42506 -0.15845,3.53358 -0.0257,1.92476 -0.0467,4.39832 -0.0467,5.49679 0,1.85603 0.01,1.99712 0.12338,1.99505 0.20685,-0.004 3.21258,-0.45884 3.48891,-0.52826 l 0.19401,-0.0487 v -3.69122 -3.6912 l 0.15846,-0.10155 c 0.0873,-0.056 0.80882,-0.19988 1.60366,-0.31994 2.04554,-0.3091 3.21669,-0.49091 3.66526,-0.56918 0.21326,-0.0372 0.60975,-0.0992 0.88106,-0.13812 0.56231,-0.0802 1.98364,-0.29751 3.27748,-0.50073 1.8387,-0.28873 2.54294,-0.37013 2.61108,-0.30184 0.0431,0.043 0.0508,2.1457 0.0206,5.75265 -0.0417,5.04614 -0.0593,5.68965 -0.15639,5.72693 -0.10504,0.0405 -1.12805,0.20977 -2.54592,0.42179 -0.3683,0.055 -1.09778,0.16734 -1.62112,0.2495 -0.52352,0.0823 -1.25299,0.19154 -1.6213,0.24305 -0.36828,0.0516 -0.74896,0.11323 -0.84572,0.13698 -0.097,0.024 -0.52516,0.0926 -0.9517,0.15296 -0.92923,0.1314 -1.71992,0.25056 -2.99565,0.45149 -0.5233,0.0823 -1.23696,0.19387 -1.58574,0.24766 -0.34904,0.0537 -1.0627,0.16452 -1.58601,0.24602 -1.7924,0.27913 -2.78467,0.43155 -3.45382,0.53052 -1.80409,0.26681 -2.13866,0.31998 -2.41522,0.38378 -0.36418,0.0841 -0.34768,0.0836 -0.46437,0.01 z m 13.10004,-5.99764 c 0.48114,-0.0654 0.8421,-0.1208 2.36915,-0.36185 l 0.50129,-0.0791 0.0413,-0.57318 c 0.023,-0.31528 0.0441,-1.07331 0.0476,-1.68449 0.005,-0.93448 -0.0108,-1.11783 -0.1007,-1.15249 -0.0977,-0.0375 -0.57467,0.0267 -2.78832,0.37571 -0.40706,0.0642 -0.77969,0.14641 -0.82808,0.18277 -0.0661,0.0496 -0.0879,0.47558 -0.0879,1.70214 0,0.89984 0.0206,1.65752 0.0476,1.68381 0.0263,0.0263 0.0977,0.0323 0.15845,0.0132 0.0608,-0.019 0.34881,-0.0669 0.63956,-0.10661 z m -26.00929,4.82319 c -0.3683,-0.0512 -1.09775,-0.16214 -1.62109,-0.24653 -0.52329,-0.0844 -1.06268,-0.16723 -1.1982,-0.18415 -0.13575,-0.017 -0.31809,-0.0456 -0.40543,-0.0638 l -0.15846,-0.0331 v -1.93926 c 0,-1.704 0.0138,-1.94442 0.11142,-1.98205 0.0993,-0.0382 1.37985,0.1333 3.34236,0.44738 0.42495,0.0679 0.70176,0.14816 0.75771,0.21941 0.12336,0.15724 0.12657,3.68384 0.005,3.80697 -0.0465,0.0465 -0.10202,0.081 -0.12338,0.0765 -0.0206,-0.005 -0.34009,-0.05 -0.7084,-0.10118 z m -8.38772,-1.26609 c -0.32954,-0.0499 -0.83701,-0.12477 -1.12778,-0.16632 -1.13035,-0.16142 -1.9424,-0.3158 -2.03319,-0.38641 -0.1252,-0.0975 -0.0929,-3.72767 0.0344,-3.85479 0.0606,-0.0603 0.36878,-0.0357 1.23355,0.0995 0.63406,0.0989 1.51697,0.23621 1.96208,0.30479 0.55175,0.085 0.84895,0.16442 0.93403,0.24948 0.10938,0.10937 0.12452,0.26967 0.1243,1.30533 0,0.64935 -0.0206,1.48989 -0.0459,1.86788 l -0.0457,0.68724 -0.21832,-0.008 c -0.12022,-0.005 -0.48799,-0.0488 -0.81753,-0.0988 z m -8.45831,-1.27556 c -0.32954,-0.0548 -0.90056,-0.14497 -1.26886,-0.20044 -1.29843,-0.1955 -1.54631,-0.23894 -1.61854,-0.28362 -0.0475,-0.0293 -0.0729,-0.69707 -0.0729,-1.90019 0,-1.55879 0.0161,-1.86903 0.10504,-1.94238 0.11624,-0.0965 0.33688,-0.0788 1.79789,0.1435 0.48479,0.0738 1.11908,0.16978 1.40987,0.21343 0.79209,0.11889 0.96614,0.18575 1.01775,0.39065 0.0245,0.0978 0.0229,0.96861 -0.005,1.93518 l -0.0488,1.75738 -0.35913,-0.007 c -0.19746,-0.004 -0.62857,-0.0517 -0.95811,-0.10661 z m 53.86512,-0.0417 c -0.12822,-0.1282 -0.11926,-3.64726 0.01,-3.82368 0.0949,-0.13001 0.12293,-0.13583 2.05541,-0.42889 0.38778,-0.0587 0.97463,-0.14842 1.30393,-0.19923 0.32954,-0.051 0.63889,-0.0783 0.68728,-0.0611 0.0677,0.0238 0.0879,0.48118 0.0879,1.96363 v 1.93257 l -0.17199,0.0654 c -0.0946,0.036 -0.49923,0.11383 -0.8987,0.17286 -1.74194,0.25746 -2.15816,0.32205 -2.5159,0.39046 -0.47059,0.09 -0.45567,0.0902 -0.55795,-0.012 z M 299.90751,386.437 c -0.87072,-0.12897 -2.53515,-0.38151 -2.94885,-0.44741 -0.18758,-0.0298 -0.36943,-0.0993 -0.40429,-0.15426 -0.07,-0.11034 -0.0723,-2.47254 -0.002,-3.30705 l 0.0438,-0.52865 0.3669,0.0152 c 0.20181,0.008 0.757,0.0766 1.23353,0.15198 0.47655,0.0753 1.23125,0.19138 1.67704,0.25799 0.53479,0.08 0.84049,0.15865 0.89873,0.23153 0.0652,0.0817 0.0878,0.56133 0.0871,1.8415 0,0.95208 -0.0206,1.80241 -0.0436,1.88963 -0.0479,0.17875 -0.039,0.17828 -0.90698,0.0497 z m 69.63886,-0.18761 c -0.0239,-0.095 -0.0335,-0.95058 -0.0206,-1.90109 0.0245,-1.90867 0.0279,-1.92325 0.4669,-1.98888 0.68819,-0.103 2.15542,-0.33828 2.69202,-0.43183 0.85195,-0.14855 1.03125,-0.13954 1.08333,0.0544 0.0554,0.20737 0.0571,3.28466 0,3.5613 -0.0488,0.24437 -0.24402,0.31815 -1.15556,0.43711 -0.29078,0.0378 -0.94091,0.13513 -1.44497,0.21601 -1.57684,0.25308 -1.57202,0.25292 -1.62222,0.053 z m -78.02656,-1.0799 c -1.12893,-0.17081 -2.02742,-0.30341 -2.8195,-0.41616 -0.42655,-0.0608 -0.91799,-0.14047 -1.0925,-0.17725 -0.17451,-0.0367 -0.49167,-0.0861 -0.70494,-0.10974 -0.21328,-0.0236 -0.54625,-0.0729 -0.74004,-0.10985 -0.19377,-0.0369 -0.68541,-0.11444 -1.09248,-0.17241 -0.78174,-0.11131 -2.19576,-0.32125 -3.31281,-0.49187 -0.36827,-0.0561 -1.09798,-0.1677 -1.62129,-0.24767 -1.86922,-0.28569 -2.37119,-0.36024 -3.10135,-0.46065 -0.40706,-0.0559 -0.8194,-0.12099 -0.91638,-0.14449 -0.0967,-0.0234 -0.47746,-0.0863 -0.84577,-0.13933 -0.36827,-0.0531 -1.11356,-0.16392 -1.65636,-0.24623 -0.54282,-0.0822 -1.0978,-0.1664 -1.23351,-0.18694 -0.13581,-0.0206 -0.28554,-0.0684 -0.33277,-0.10648 -0.0679,-0.0542 -0.0787,-6.39021 -0.0512,-29.61328 0.0367,-31.05709 0.0587,-34.76356 0.20522,-34.81987 0.11769,-0.0451 3.8352,0.49829 4.04916,0.59184 l 0.16971,0.0743 -0.0285,22.67148 -0.0289,22.67144 1.48028,0.22613 c 0.81408,0.12436 2.66954,0.40361 4.12345,0.6206 1.45368,0.217 2.83351,0.42624 3.06606,0.46496 0.36302,0.0603 6.25271,0.9493 11.91214,1.7978 3.29997,0.49473 3.86526,0.59329 3.9228,0.68425 0.0672,0.10588 0.0789,3.53555 0.0139,3.78215 -0.0422,0.15776 -0.0678,0.16504 -0.43962,0.1259 -0.21692,-0.0229 -0.80699,-0.10588 -1.31103,-0.1847 -0.50404,-0.0788 -1.23354,-0.19063 -1.62109,-0.24863 -0.38778,-0.0579 -1.13307,-0.17115 -1.65638,-0.25143 -0.52357,-0.0802 -1.25305,-0.19059 -1.62133,-0.24509 -0.3683,-0.0546 -1.08195,-0.16102 -1.58575,-0.23667 -0.50405,-0.0756 -1.17025,-0.17429 -1.48029,-0.21918 -0.31029,-0.0449 -1.05557,-0.15895 -1.65639,-0.25346 -0.60083,-0.0944 -1.40989,-0.21765 -1.79744,-0.27365 -0.38779,-0.0561 -1.1331,-0.16852 -1.65641,-0.25007 -0.5233,-0.0814 -1.25299,-0.19294 -1.62106,-0.24759 -0.3683,-0.0546 -1.09803,-0.16499 -1.62131,-0.24529 -0.52331,-0.0802 -1.25281,-0.19019 -1.62107,-0.24421 -0.36831,-0.054 -1.11383,-0.16579 -1.65642,-0.24831 -0.54279,-0.0825 -1.40368,-0.20991 -1.91299,-0.28305 -0.50959,-0.0731 -1.00903,-0.1538 -1.11016,-0.17919 l -0.18392,-0.0461 -0.0161,2.7037 c -0.01,1.48705 -0.016,3.97045 -0.0183,5.51866 l -0.002,2.81492 0.21144,0.0532 c 0.19952,0.0503 0.69369,0.127 2.43176,0.3774 0.40703,0.0587 0.84321,0.12399 0.9691,0.14523 l 0.22908,0.0385 v -3.66341 c 0,-3.26924 0.0109,-3.67559 0.11311,-3.77655 0.0624,-0.0622 0.16533,-0.0978 0.2291,-0.079 0.0637,0.0188 0.57581,0.1007 1.13813,0.18201 0.94733,0.13708 4.29818,0.6436 5.85023,0.88433 0.36831,0.0571 1.41493,0.21519 2.32604,0.35129 0.91109,0.13611 1.89419,0.28308 2.18495,0.32661 0.2908,0.0435 0.56852,0.11034 0.61737,0.14854 0.07,0.0549 0.0846,1.25836 0.0702,5.75218 l -0.0183,5.68276 -0.24675,0.012 c -0.13576,0.007 -0.53201,-0.0316 -0.88105,-0.0843 z m -3.19286,-6.14786 c 0.0161,-0.88197 0.005,-1.65213 -0.0229,-1.71146 -0.036,-0.077 -0.30042,-0.14425 -0.91983,-0.23438 -0.47812,-0.0695 -1.12483,-0.17148 -1.43692,-0.22657 -0.31235,-0.055 -0.76182,-0.10817 -0.9987,-0.11805 l -0.43113,-0.0179 -0.0431,1.62824 c -0.0342,1.28189 -0.024,1.64316 0.047,1.6982 0.0498,0.0385 0.47103,0.12751 0.93633,0.19786 0.4653,0.0702 1.17895,0.1834 1.58601,0.25122 0.40704,0.0678 0.85581,0.12624 0.99756,0.12983 l 0.25751,0.007 0.0281,-1.60353 z m 89.32664,6.11517 c -0.024,-0.0387 -0.041,-0.91872 -0.0377,-1.95545 0.005,-1.39026 0.0285,-1.90646 0.0922,-1.96698 0.0476,-0.0451 0.32426,-0.11588 0.61504,-0.15729 0.4848,-0.069 1.63254,-0.24222 2.84612,-0.42956 0.3566,-0.055 0.51071,-0.0537 0.58155,0.006 0.0775,0.0641 0.0966,0.44993 0.0966,1.93074 0,1.60437 -0.0138,1.86298 -0.11191,1.94348 -0.10226,0.0849 -0.50704,0.15494 -2.61498,0.45251 -0.3949,0.0558 -0.7994,0.11829 -0.89869,0.13904 -0.0993,0.0207 -0.258,0.0537 -0.35247,0.0732 -0.0944,0.0195 -0.19149,0.004 -0.21558,-0.0348 z m 8.02908,-1.27905 c -0.056,-0.0905 -0.0407,-3.68445 0.0161,-3.83298 0.042,-0.10973 0.0699,-0.11588 1.39956,-0.31508 0.54255,-0.0813 1.27342,-0.19655 1.6236,-0.25611 0.35018,-0.0596 0.74667,-0.0979 0.88104,-0.085 l 0.24422,0.0232 0.0183,1.87932 c 0.0206,2.14148 0.043,2.06018 -0.56321,2.1358 -0.40084,0.05 -1.74169,0.25604 -2.77251,0.42596 -0.76593,0.12626 -0.78473,0.12684 -0.84781,0.0252 z m -61.98614,-1.26147 c -1.77472,-0.27333 -3.91936,-0.61225 -4.68734,-0.74073 -0.34882,-0.0585 -0.96751,-0.15483 -1.37457,-0.21432 -0.81686,-0.1195 -1.51377,-0.22416 -2.99564,-0.44996 -2.42669,-0.36989 -3.57031,-0.53993 -5.88557,-0.87516 -3.15479,-0.45687 -3.68544,-0.54271 -3.82854,-0.61922 -0.14126,-0.0755 -0.14173,-0.10564 -0.0959,-9.50396 0.0252,-5.18545 0.0657,-9.47941 0.0896,-9.54214 0.0597,-0.15639 0.22611,-0.1475 1.84054,0.0986 2.4863,0.37899 2.34963,0.34973 2.41248,0.51693 0.0316,0.0834 0.0277,3.46295 -0.007,7.51033 -0.0365,4.1474 -0.0382,7.38553 -0.005,7.41994 0.0337,0.0335 0.58224,0.14064 1.21932,0.23787 0.63705,0.0972 1.44359,0.22186 1.79261,0.27687 0.34879,0.055 1.8238,0.2789 3.27747,0.49751 1.45369,0.21861 3.32518,0.5017 4.15878,0.62909 0.83334,0.12733 1.5392,0.21792 1.56835,0.20124 0.075,-0.0431 0.0657,-3.38893 -0.01,-3.4355 -0.0344,-0.0211 -0.28024,-0.0701 -0.54648,-0.10889 -0.26598,-0.0385 -0.91199,-0.1368 -1.43553,-0.218 -0.52333,-0.0812 -1.37964,-0.20712 -1.90293,-0.27979 -0.52354,-0.0726 -1.36403,-0.19661 -1.86807,-0.27535 -0.50382,-0.0788 -1.17,-0.1769 -1.48007,-0.21814 -0.31025,-0.0412 -0.63977,-0.10649 -0.73243,-0.14499 l -0.16854,-0.07 0.0511,-5.72395 c 0.028,-3.14814 0.0754,-5.74948 0.10552,-5.78071 0.0501,-0.0523 2.44549,0.27984 4.97354,0.68981 0.58135,0.0943 1.29524,0.20497 1.58578,0.2459 0.65379,0.092 2.05424,0.30078 3.31301,0.49381 0.5233,0.0802 1.20533,0.17917 1.51538,0.21979 0.86751,0.11371 1.0097,0.17345 1.06085,0.44582 0.024,0.12738 0.016,1.00545 -0.0161,1.9513 l -0.0587,1.71968 -0.4183,-0.0146 c -0.23001,-0.008 -0.70583,-0.0617 -1.05737,-0.11877 -0.62743,-0.10227 -1.95886,-0.30595 -3.28206,-0.50226 -0.36831,-0.0547 -1.08196,-0.16236 -1.58601,-0.23935 -0.50406,-0.077 -1.11518,-0.16157 -1.35805,-0.18792 l -0.44191,-0.048 0.0183,1.75295 0.0183,1.75293 0.3174,0.0464 c 0.17427,0.0255 0.8721,0.13011 1.55044,0.23218 0.67856,0.10215 1.67772,0.2491 2.22031,0.32661 0.54279,0.0777 1.59607,0.23517 2.34044,0.35017 0.74442,0.11504 1.38442,0.20918 1.42226,0.20918 0.0378,0 0.11696,0.0481 0.17568,0.10685 0.0944,0.0944 0.10203,0.76177 0.066,5.72698 -0.0229,3.10122 -0.0696,5.67535 -0.10443,5.74341 -0.0812,0.15784 -0.16534,0.15346 -1.75017,-0.0906 z m 69.99086,-0.077 c 0,-0.092 0,-6.03387 0,-13.20413 0.002,-11.21353 0.0183,-13.05843 0.10443,-13.19144 0.0738,-0.11287 0.2018,-0.16765 0.47422,-0.20297 0.42978,-0.0557 1.83322,-0.27165 2.79501,-0.43007 0.36276,-0.0597 0.70379,-0.0918 0.75767,-0.0711 0.13829,0.0533 0.14814,26.37961 0.01,26.56625 -0.0617,0.0833 -0.31003,0.15179 -0.82831,0.22841 -0.40702,0.0601 -1.15234,0.17325 -1.65638,0.25125 -0.50384,0.078 -1.08286,0.15969 -1.28627,0.18148 -0.35338,0.0377 -0.37011,0.0322 -0.37151,-0.12771 z m -32.093,-2.43461 c -0.0259,-0.0259 -0.047,-0.89585 -0.047,-1.93331 0,-1.49497 0.0206,-1.90621 0.0956,-1.98205 0.09,-0.0897 0.43824,-0.15532 2.54753,-0.4795 1.60068,-0.24598 1.50437,-0.24409 1.55805,-0.0303 0.059,0.2361 -0.0363,3.78407 -0.10383,3.85457 -0.0494,0.0516 -3.57491,0.61555 -3.85651,0.61691 -0.0807,0 -0.16787,-0.0205 -0.19377,-0.0464 z m -61.65156,-1.11611 c -3.15067,-0.47525 -3.24697,-0.49285 -3.31966,-0.60658 -0.0347,-0.054 -0.055,-0.9546 -0.0457,-2.0013 l 0.0183,-1.90312 0.21463,-0.0211 c 0.29103,-0.0285 3.92074,0.53349 4.00788,0.62048 0.0688,0.0689 0.0658,3.85093 -0.002,3.96274 -0.0417,0.067 -0.11697,0.0626 -0.87143,-0.0512 z m 69.6845,-0.0906 c -0.0819,-0.13239 0.042,-18.97137 0.12567,-19.08214 0.0501,-0.0669 0.54578,-0.17489 1.45092,-0.31643 2.18521,-0.34173 2.44709,-0.3752 2.56864,-0.32856 0.10504,0.0402 0.11395,0.67417 0.10685,7.49915 l -0.007,7.45516 0.14817,0.0226 c 0.0814,0.0127 0.37721,-0.0136 0.65747,-0.0581 1.3514,-0.21443 2.33083,-0.36668 2.94084,-0.45728 0.36829,-0.0547 1.09775,-0.1655 1.62131,-0.24629 0.5233,-0.0807 1.26859,-0.19355 1.65637,-0.25063 0.38757,-0.0571 0.87923,-0.13452 1.0925,-0.17207 0.21329,-0.0376 0.83175,-0.13376 1.37434,-0.21372 0.5428,-0.0799 1.27639,-0.19687 1.63002,-0.2598 l 0.64303,-0.11432 0.0442,-0.42202 c 0.0243,-0.23208 0.0441,-0.98926 0.0441,-1.68259 0,-1.03415 -0.0183,-1.26766 -0.10179,-1.29972 -0.0848,-0.0325 -1.09615,0.11311 -4.23305,0.60984 -3.22062,0.50996 -3.57447,0.56051 -3.64003,0.52003 -0.0333,-0.0206 -0.0602,-2.59867 -0.0602,-5.72911 0,-4.44835 0.0183,-5.71549 0.0881,-5.80051 0.0635,-0.0787 0.70399,-0.20223 2.30834,-0.4456 2.39964,-0.36401 3.19356,-0.48561 5.03985,-0.77188 4.98431,-0.77293 4.71667,-0.74149 4.78527,-0.56275 0.0237,0.0613 0.0429,0.91165 0.0429,1.88963 0,1.31391 -0.0229,1.80831 -0.0879,1.89365 -0.0687,0.0901 -0.92167,0.24178 -3.85906,0.68669 -2.07424,0.31412 -3.84252,0.60059 -3.9297,0.63654 -0.15844,0.0653 -0.15868,0.0676 -0.15868,1.79939 v 1.73401 l 0.19402,-0.0419 c 0.10673,-0.023 0.60608,-0.10347 1.11014,-0.17831 0.50385,-0.075 1.32871,-0.20312 1.83254,-0.2848 0.50403,-0.0817 1.31286,-0.20861 1.79741,-0.28207 0.48456,-0.0735 1.19821,-0.18321 1.586,-0.24387 1.3319,-0.20854 1.425,-0.21257 1.46765,-0.0641 0.0206,0.0729 0.0323,2.66451 0.0252,5.75932 -0.0139,6.38731 0.052,5.77355 -0.63501,5.86246 -0.20043,0.026 -0.76111,0.10769 -1.24568,0.18142 -0.48455,0.0738 -1.1982,0.18207 -1.58598,0.24056 -2.30357,0.34764 -6.06811,0.92124 -7.89422,1.20289 -1.1631,0.17938 -2.51105,0.38563 -2.99561,0.45834 -0.48479,0.0728 -1.15075,0.18118 -1.48028,0.24107 -0.32954,0.0599 -0.91639,0.15623 -1.30393,0.21414 -0.38778,0.0579 -1.11727,0.17023 -1.62132,0.24963 -1.39793,0.22023 -1.49336,0.22961 -1.54127,0.15195 z m -23.96285,-11.4807 c -0.0257,-0.0259 -0.047,-0.88226 -0.047,-1.90314 0,-1.76213 0.007,-1.86326 0.14102,-1.9971 0.0776,-0.0776 0.20939,-0.14096 0.29265,-0.14096 0.0833,0 0.85263,-0.10997 1.70937,-0.24442 0.85676,-0.13443 2.08248,-0.32464 2.7241,-0.42271 0.64167,-0.0981 1.33951,-0.20794 1.5507,-0.24414 0.38801,-0.0666 0.75011,-0.12261 3.23872,-0.50128 0.75607,-0.11504 2.10406,-0.32244 2.99565,-0.46093 0.89183,-0.13848 1.99648,-0.30998 2.45489,-0.3811 0.45864,-0.0711 0.85146,-0.14709 0.87301,-0.16875 0.0229,-0.0218 0.052,-3.25186 0.0673,-7.17823 0.016,-3.92635 0.0445,-7.3031 0.0654,-7.50391 0.0206,-0.20082 0.0758,-0.39691 0.1227,-0.43578 0.0467,-0.0388 0.51278,-0.1372 1.03517,-0.21855 0.52264,-0.0813 1.23558,-0.19581 1.58461,-0.25437 0.3488,-0.0587 0.80884,-0.1131 1.02187,-0.12118 l 0.38777,-0.0146 0.0183,3.75643 0.0183,3.75644 0.22839,-0.0357 c 0.12569,-0.0199 0.52971,-0.0844 0.89803,-0.14373 0.64647,-0.10419 2.15105,-0.3358 3.91202,-0.60216 2.53034,-0.3827 6.38617,-0.98024 6.64323,-1.02947 l 0.15869,-0.0303 v -1.72556 c 0,-1.63611 -0.007,-1.72554 -0.13138,-1.72554 -0.072,0 -1.77706,0.25486 -3.78843,0.56641 -2.01161,0.31152 -3.7526,0.55735 -3.8689,0.54626 l -0.21143,-0.0204 -0.0206,-1.79741 c -0.0108,-0.98855 0,-1.86982 0.0206,-1.95835 0.0206,-0.0885 0.10986,-0.19079 0.19607,-0.22724 0.086,-0.0365 0.90193,-0.17926 1.81305,-0.31742 0.91109,-0.13817 2.03705,-0.31106 2.50211,-0.38421 0.46532,-0.0731 1.19477,-0.18572 1.62132,-0.25013 0.42631,-0.0643 1.63163,-0.25633 2.67849,-0.4265 1.04661,-0.1702 2.68009,-0.42345 3.62996,-0.56276 0.94983,-0.13932 2.01228,-0.29702 2.3613,-0.35047 0.34881,-0.0536 1.04665,-0.15981 1.55068,-0.23638 0.50384,-0.0766 1.24935,-0.19178 1.65642,-0.25594 0.40703,-0.0642 1.1207,-0.17491 1.58575,-0.24604 3.04887,-0.46617 4.17391,-0.64407 4.28214,-0.67714 0.116,-0.0355 0.1234,-0.36061 0.1234,-5.53083 v -5.49315 h -0.15872 c -0.0871,0 -0.34879,0.0324 -0.58156,0.0718 -0.23253,0.0391 -0.83518,0.1338 -1.33921,0.21022 -0.50386,0.0765 -1.32849,0.20367 -1.83255,0.28273 -0.50405,0.0791 -1.2177,0.18801 -1.58598,0.24214 -0.36829,0.0541 -1.09778,0.16624 -1.6211,0.24926 -0.5233,0.083 -1.23694,0.19403 -1.58598,0.24672 -0.3488,0.0526 -1.06245,0.16288 -1.58599,0.24492 -0.52333,0.0822 -1.2686,0.19707 -1.65641,0.2556 -1.17549,0.17745 -2.42991,0.36889 -3.13644,0.47863 -0.36829,0.0572 -1.00284,0.15353 -1.40988,0.21402 -0.40704,0.0605 -0.91452,0.14101 -1.12779,0.17886 -0.21304,0.0378 -0.72055,0.11937 -1.12759,0.1812 -0.40704,0.0618 -0.79574,0.12853 -0.86364,0.14821 -0.11299,0.0329 -0.12314,0.17883 -0.12314,1.76609 v 1.73027 l 0.40521,-0.0499 c 0.22291,-0.0274 1.30922,-0.19001 2.4141,-0.36137 1.10487,-0.17135 2.73834,-0.42182 3.62992,-0.55661 0.89185,-0.13478 2.33497,-0.35678 3.20733,-0.49333 1.45597,-0.22795 2.84039,-0.44101 3.91177,-0.60207 0.23276,-0.0348 0.83335,-0.12694 1.33467,-0.20437 0.6655,-0.10263 0.93677,-0.11998 1.00443,-0.0638 0.0723,0.06 0.0926,0.48509 0.0926,1.93111 0,1.59166 -0.0161,1.86988 -0.1107,1.96498 -0.0608,0.0608 -0.11949,0.1107 -0.13005,0.1107 -0.0108,0 -1.04731,0.16011 -2.30332,0.3558 -1.25621,0.19572 -2.68054,0.41585 -3.16508,0.48921 -0.48455,0.0732 -1.51558,0.23148 -2.29095,0.35143 -2.83465,0.43856 -3.25478,0.50319 -3.91178,0.60182 -1.38122,0.20725 -3.02226,0.46417 -3.80629,0.5958 -0.44581,0.0749 -1.3498,0.21761 -2.00885,0.3172 -0.6591,0.0996 -1.49955,0.22712 -1.86785,0.2834 -0.3683,0.0561 -1.30393,0.1981 -2.07927,0.3152 -0.77533,0.11709 -2.53332,0.38703 -3.90651,0.59985 -1.85063,0.28684 -2.52117,0.36688 -2.59043,0.30934 -0.0734,-0.0609 -0.0936,-0.47678 -0.0936,-1.93186 0,-1.59165 0.0161,-1.86988 0.1107,-1.96497 0.0609,-0.0609 0.11853,-0.1107 0.12796,-0.1107 0.01,0 0.52261,-0.0796 1.14042,-0.1769 1.51674,-0.23892 4.1755,-0.65209 5.21135,-0.80993 0.46506,-0.0709 0.98057,-0.15149 1.14524,-0.17915 l 0.29971,-0.0503 v -3.62565 c 0,-2.26203 0.0261,-3.67476 0.0699,-3.75628 0.0799,-0.14906 0.17909,-0.1752 1.1989,-0.31587 0.40704,-0.0561 1.16839,-0.16938 1.69171,-0.25161 0.5233,-0.0822 1.23695,-0.19269 1.58598,-0.24546 0.34879,-0.0528 1.06247,-0.16233 1.58576,-0.24342 0.52354,-0.0811 1.25304,-0.19327 1.62133,-0.2493 0.36829,-0.056 1.08194,-0.16735 1.58576,-0.24742 0.50404,-0.0801 1.21768,-0.18849 1.58598,-0.24089 0.3683,-0.0524 0.74897,-0.11515 0.84599,-0.13934 0.0968,-0.0242 0.50908,-0.09 0.91613,-0.14621 0.40705,-0.0561 1.04156,-0.14895 1.40987,-0.20614 0.36829,-0.0572 1.01843,-0.15333 1.44497,-0.21362 0.4263,-0.0602 0.91798,-0.14075 1.09251,-0.17872 0.17451,-0.038 0.49164,-0.0876 0.7047,-0.11022 0.21324,-0.0227 0.53042,-0.0713 0.70492,-0.10829 0.17454,-0.037 0.65037,-0.11323 1.05741,-0.16954 1.25966,-0.17416 2.21526,-0.31987 2.32809,-0.35491 0.0594,-0.0183 0.43985,-0.0799 0.84574,-0.13643 0.4059,-0.0565 1.16633,-0.16973 1.68967,-0.25148 0.5233,-0.0819 1.23695,-0.19145 1.58575,-0.24376 0.34902,-0.0524 1.06153,-0.16094 1.58324,-0.2413 0.52194,-0.0802 0.97531,-0.11974 1.00742,-0.0876 0.0647,0.0648 0.0741,18.76275 0.01,18.93109 -0.0553,0.14437 -0.0206,0.13697 -2.35331,0.49432 -8.35056,1.27905 -13.47223,2.08063 -13.53257,2.118 -0.0464,0.0284 -0.0711,1.31981 -0.0711,3.69998 0,3.22971 -0.0139,3.66898 -0.1107,3.76682 -0.0609,0.0608 -0.12021,0.1107 -0.13142,0.1107 -0.0229,0 -2.71286,0.41115 -5.32623,0.81405 -1.8754,0.28909 -3.205,0.49261 -3.8767,0.59338 -0.25203,0.0378 -1.267,0.19399 -2.25563,0.34709 -0.98859,0.15313 -2.3524,0.36384 -3.03093,0.46827 -0.67833,0.10444 -1.26014,0.21467 -1.29293,0.24494 -0.0328,0.0303 -0.0773,1.72374 -0.099,3.76324 -0.0271,2.56354 -0.0631,3.7264 -0.11649,3.7671 -0.0873,0.0666 -0.38687,0.11841 -2.72045,0.47036 -1.61327,0.24334 -8.24734,1.26563 -14.18522,2.18587 -3.1206,0.48364 -3.10524,0.48166 -3.17794,0.40905 z M 300.18957,363.816 c -0.31026,-0.047 -0.92873,-0.13824 -1.37453,-0.20273 -0.4458,-0.0643 -0.98519,-0.14785 -1.19824,-0.18523 -0.21327,-0.0373 -0.83174,-0.13387 -1.37456,-0.2144 -0.54279,-0.0805 -1.27226,-0.1907 -1.62108,-0.24483 -0.34902,-0.0541 -1.06266,-0.16254 -1.58597,-0.24091 -1.98228,-0.29676 -4.28902,-0.64579 -4.93412,-0.74651 -0.36829,-0.0577 -1.20875,-0.18454 -1.86781,-0.28222 -0.65909,-0.0978 -1.49955,-0.22474 -1.86785,-0.28228 -0.36827,-0.0576 -1.41492,-0.21673 -2.32602,-0.35376 -1.25185,-0.18825 -1.67794,-0.27763 -1.74444,-0.366 -0.11166,-0.14818 -0.12569,-3.43597 -0.0161,-3.72475 0.067,-0.17639 0.0937,-0.18693 0.36989,-0.14605 0.16397,0.0242 0.61505,0.0919 1.00257,0.15021 0.3878,0.0585 1.13311,0.16927 1.65665,0.24643 1.30646,0.19266 2.01666,0.29937 3.98242,0.59857 1.56513,0.23819 2.37967,0.36021 4.22918,0.63343 0.38754,0.0573 1.13286,0.1697 1.65637,0.24987 0.52333,0.0801 1.26862,0.19116 1.65641,0.24666 0.38756,0.0554 0.87558,0.13351 1.08448,0.17341 0.20891,0.0398 0.45084,0.0725 0.53754,0.0725 h 0.15799 l 0.0488,-7.41863 c 0.0271,-4.08025 0.0647,-7.47412 0.0841,-7.54196 0.0241,-0.0844 0.10552,-0.12302 0.25937,-0.12231 0.45314,0.002 3.86912,0.55791 3.97668,0.64702 0.0997,0.0825 0.10612,0.47006 0.0626,3.77577 l -0.0488,3.68373 0.16099,0.0606 c 0.0883,0.0334 0.52559,0.11372 0.97141,0.17862 1.03952,0.15129 5.08088,0.75802 9.65653,1.4497 0.71711,0.10841 1.32779,0.18282 1.35691,0.16536 0.0293,-0.0175 0.0528,-0.80213 0.0528,-1.74377 v -1.71207 l -1.00445,-0.15423 c -1.33559,-0.20511 -2.14323,-0.32707 -3.33045,-0.50279 -0.54257,-0.0802 -1.27228,-0.19096 -1.6211,-0.24579 -0.34878,-0.0549 -0.96751,-0.15083 -1.37452,-0.21329 -0.50313,-0.0773 -0.77053,-0.15142 -0.83519,-0.2319 -0.0775,-0.0961 -0.0863,-0.469 -0.0476,-1.98618 0.0263,-1.02731 0.0718,-1.89286 0.10142,-1.9234 0.0296,-0.0306 1.00259,0.0872 2.16228,0.26153 3.59807,0.54115 4.55138,0.68288 5.28016,0.78524 2.03041,0.28518 3.26922,0.47036 4.48303,0.67013 0.76455,0.12583 2.06457,0.32338 4.85634,0.738 0.63984,0.0949 2.63699,0.39345 4.43856,0.66323 2.14622,0.32141 3.29078,0.46554 3.32013,0.41812 0.0424,-0.0688 0.14148,-10.92817 0.1,-10.97417 -0.0243,-0.0269 -0.82144,-0.15519 -2.67782,-0.43117 -0.77534,-0.11527 -3.66183,-0.54575 -6.41414,-0.95669 -2.75258,-0.41092 -5.75004,-0.85725 -6.66115,-0.99183 -0.91086,-0.1346 -2.26684,-0.33916 -3.01305,-0.45461 -0.74623,-0.1154 -1.40438,-0.20985 -1.46262,-0.20985 -0.0913,0 -0.10564,0.24234 -0.10564,1.76211 0,1.36207 0.0206,1.76245 0.088,1.76339 0.0484,0 0.80172,0.10913 1.67407,0.24096 0.87208,0.13183 4.48804,0.67321 8.03523,1.20306 3.54739,0.52986 6.48913,0.99625 6.53776,1.03644 0.13803,0.11444 0.12566,3.81344 -0.0138,3.92865 -0.10552,0.0876 -0.31305,0.0653 -2.57738,-0.27711 -0.52332,-0.0791 -1.28465,-0.19291 -1.69171,-0.25286 -0.40705,-0.0599 -1.02551,-0.15238 -1.37432,-0.20541 -0.34903,-0.053 -0.96751,-0.14583 -1.37456,-0.20627 -0.86569,-0.12849 -2.17329,-0.32527 -3.55953,-0.53562 -3.35524,-0.50917 -4.18585,-0.63331 -5.18065,-0.77416 -0.52353,-0.0741 -1.26884,-0.18187 -1.65664,-0.23954 -0.38753,-0.0577 -1.05374,-0.15523 -1.48003,-0.21682 -0.42653,-0.0617 -1.23536,-0.188 -1.79743,-0.28093 -0.56206,-0.0929 -1.25989,-0.20233 -1.55066,-0.24319 -0.55818,-0.0784 -1.73485,-0.25373 -3.31283,-0.49355 -0.5233,-0.0795 -1.47063,-0.22182 -2.10494,-0.31616 -0.63452,-0.0946 -1.18216,-0.20019 -1.21702,-0.23515 -0.0358,-0.0356 -0.0555,-0.9134 -0.0449,-1.99728 l 0.0183,-1.93368 0.42287,0.007 c 0.23277,0.004 0.85124,0.0731 1.37456,0.15461 2.08844,0.32489 6.1986,0.93132 6.31211,0.93132 0.0635,0 0.0914,-0.8927 0.11444,-3.66555 0.0206,-2.34927 0.056,-3.69132 0.10226,-3.73726 0.0487,-0.0487 0.22913,-0.0475 0.56002,0.002 0.26855,0.0411 0.91661,0.13763 1.43992,0.21439 1.33879,0.19645 2.14049,0.3164 3.2777,0.49044 0.54259,0.0831 1.28811,0.19408 1.65642,0.24671 0.3683,0.0526 1.09776,0.16058 1.62108,0.23991 1.37892,0.20901 2.75208,0.4152 3.55953,0.53451 0.38756,0.0572 1.13308,0.16836 1.65641,0.24684 0.5233,0.0784 1.26884,0.18951 1.65637,0.24671 0.38779,0.0572 1.1331,0.1682 1.65642,0.24671 0.52333,0.0785 1.26883,0.18951 1.65638,0.2467 0.3878,0.0572 1.13309,0.16967 1.65642,0.24997 1.36193,0.20892 2.25448,0.3404 3.10136,0.45685 0.40702,0.0559 0.81362,0.11902 0.90329,0.14022 0.0896,0.0211 0.48595,0.0836 0.88106,0.13888 1.58301,0.22148 1.80156,0.25316 2.48012,0.35941 0.3878,0.0607 0.81592,0.13282 0.95146,0.16027 l 0.24676,0.0497 v 2.57008 c 0,1.41352 -0.0252,5.67849 -0.0554,9.47767 -0.042,5.25636 -0.0759,6.92798 -0.14104,6.9929 -0.0667,0.0667 -0.29241,0.0544 -1.037,-0.0565 -0.52335,-0.0778 -1.26862,-0.18702 -1.6564,-0.24244 -0.38755,-0.0554 -1.13307,-0.16572 -1.6564,-0.24511 -0.52332,-0.0794 -1.25279,-0.18884 -1.62109,-0.24325 -0.63407,-0.0936 -1.81854,-0.27242 -3.31279,-0.49994 -0.36829,-0.056 -1.09801,-0.16503 -1.6213,-0.24216 -1.98227,-0.29214 -3.74232,-0.55548 -4.73828,-0.70895 -0.29924,-0.0461 -0.59281,-0.0654 -0.65195,-0.0427 -0.0944,0.0364 -0.10757,0.47676 -0.10757,3.63255 0,1.97517 -0.0183,3.64138 -0.043,3.70271 -0.0528,0.13734 -0.24241,0.13961 -1.01454,0.0122 -0.32955,-0.0542 -0.96385,-0.15215 -1.40965,-0.21717 -0.44579,-0.0651 -1.19132,-0.17761 -1.65641,-0.25021 -0.9863,-0.1539 -1.65178,-0.25543 -3.912,-0.59686 -0.91111,-0.13759 -1.95773,-0.29615 -2.32602,-0.3523 -2.77641,-0.42349 -5.8913,-0.88053 -6.00044,-0.88053 -0.12705,0 -0.13185,0.13279 -0.13185,3.6602 0,3.23351 -0.0139,3.67314 -0.11083,3.771 -0.0608,0.0609 -0.11624,0.1066 -0.12336,0.10142 -0.007,-0.005 -0.26623,-0.0477 -0.57629,-0.0947 z m 32.17672,-2.75333 c -0.56206,-0.089 -1.38028,-0.21572 -1.81807,-0.28155 -0.45748,-0.0688 -0.83977,-0.16339 -0.89871,-0.22237 -0.0846,-0.0846 -0.10118,-0.39628 -0.0943,-1.77163 0.01,-1.99902 0.0229,-2.0845 0.30911,-2.11267 0.36029,-0.0354 3.92624,0.53 3.99159,0.63287 0.0872,0.13737 0.0763,3.63331 -0.0108,3.79785 -0.09,0.16762 -0.16487,0.16545 -1.47772,-0.0425 z m -7.0544,-1.04793 c -0.0161,-0.0155 -0.83818,-0.14705 -1.8268,-0.29191 -0.98861,-0.14484 -1.86875,-0.28982 -1.95614,-0.32215 l -0.15844,-0.0587 v -1.88725 c 0,-1.03799 0.0294,-1.93179 0.064,-1.98624 0.0528,-0.0835 0.37609,-0.0525 2.06048,0.1973 1.71992,0.25508 2.01528,0.31665 2.12192,0.44236 0.11396,0.13422 0.12022,0.29184 0.0787,1.95251 -0.0254,1.00696 -0.0763,1.84545 -0.11516,1.89457 -0.0677,0.0856 -0.21028,0.11721 -0.26946,0.0596 z m 20.3198,-0.33799 c -0.10637,-0.10636 -0.11781,-2.11817 -0.0138,-2.31355 0.0393,-0.0734 0.17402,-0.15041 0.29948,-0.17136 0.21945,-0.0366 1.32064,-0.2072 2.73054,-0.42306 1.44588,-0.22136 3.01605,-0.46552 3.41849,-0.53162 0.23279,-0.0382 0.96224,-0.14995 1.62132,-0.24835 0.65907,-0.0984 1.23792,-0.19286 1.28628,-0.20986 0.0647,-0.0226 0.0879,-0.28665 0.0879,-0.9923 v -0.96142 l -0.15847,0.0393 c -0.0873,0.0216 -1.31631,0.21603 -2.73147,0.43224 -1.41492,0.21621 -3.15936,0.4875 -3.87669,0.60287 -2.64593,0.42571 -2.53541,0.41307 -2.64593,0.30258 -0.0855,-0.0854 -0.0941,-0.60038 -0.0568,-3.42707 0.0241,-1.82965 0.0688,-3.37598 0.0997,-3.43627 0.0394,-0.0774 0.30015,-0.1464 0.88884,-0.23503 1.82472,-0.27466 2.64615,-0.39945 3.79369,-0.57633 1.24453,-0.19188 2.48149,-0.38148 3.62993,-0.55643 0.3683,-0.056 0.87578,-0.13537 1.12781,-0.17616 1.76829,-0.28613 2.34298,-0.36383 2.43381,-0.32899 0.0853,0.0328 0.10335,0.24171 0.1025,1.18738 0,0.6312 -0.0292,1.19195 -0.0635,1.24616 -0.0362,0.0573 -0.30822,0.13561 -0.65081,0.18733 -0.32381,0.0487 -1.11201,0.17056 -1.75156,0.27055 -0.63958,0.1 -1.38509,0.2154 -1.6564,0.25651 -0.5169,0.0782 -1.13012,0.17357 -2.71381,0.42157 -0.52333,0.082 -1.31631,0.20247 -1.76212,0.26783 l -0.81043,0.11889 -0.0206,0.97274 -0.0206,0.97276 0.23113,-0.039 c 0.12708,-0.0214 0.45316,-0.0712 0.72444,-0.1107 0.52127,-0.0758 1.35439,-0.204 2.74913,-0.42308 0.46507,-0.0731 1.17872,-0.18381 1.58574,-0.24604 1.32687,-0.2028 2.49507,-0.38945 2.85485,-0.45602 0.77878,-0.14425 1.17599,-0.16444 1.24018,-0.0631 0.034,0.0535 0.062,1.58005 0.0626,3.39241 0,3.82491 0.0632,3.52514 -0.74736,3.6088 -0.26672,0.0276 -0.61894,0.0791 -0.78245,0.11467 -0.16351,0.0355 -0.63936,0.11468 -1.0572,0.17573 -0.94112,0.1375 -2.0859,0.31233 -4.56624,0.69747 -0.70197,0.10901 -2.24464,0.34306 -3.27752,0.49735 -0.36826,0.055 -0.84044,0.13269 -1.04935,0.17262 -0.47035,0.09 -0.45544,0.0902 -0.55774,-0.012 z m -53.93576,-4.8571 c -0.41368,-0.0658 -3.07867,-0.46685 -4.65202,-0.70011 -0.52332,-0.0776 -1.14181,-0.17182 -1.37458,-0.20945 -0.23252,-0.0375 -1.39014,-0.21198 -2.57275,-0.38745 -1.18238,-0.17546 -2.27649,-0.338 -2.43174,-0.36118 -0.54694,-0.082 -0.52859,-0.0353 -0.52859,-1.33448 0,-1.01391 0.0161,-1.16844 0.116,-1.2072 0.12064,-0.0465 0.55152,0.0138 6.12202,0.85423 1.86071,0.28077 3.40703,0.49801 3.43615,0.48279 0.0293,-0.0151 0.053,-0.43917 0.053,-0.94208 0,-0.66811 -0.0239,-0.92265 -0.0883,-0.94512 -0.0787,-0.0275 -1.28856,-0.21353 -3.22476,-0.49594 -0.36827,-0.0537 -1.09775,-0.16327 -1.62107,-0.24345 -0.52332,-0.0802 -1.69699,-0.25461 -2.60808,-0.38753 -2.04715,-0.29876 -2.09578,-0.3088 -2.14738,-0.44315 -0.0231,-0.0601 -0.0406,-1.60205 -0.0389,-3.42655 0.002,-2.56253 0.0231,-3.33741 0.0913,-3.4057 0.0711,-0.0708 0.40959,-0.0396 1.7087,0.15802 0.8909,0.1355 2.98395,0.45109 4.6509,0.70131 5.19918,0.78037 5.75163,0.87059 5.85528,0.95662 0.14677,0.12179 0.14816,2.37861 0.002,2.4349 -0.0924,0.0354 -0.52537,-0.0216 -3.00228,-0.39453 -0.52332,-0.0788 -1.26862,-0.1892 -1.65641,-0.24526 -0.38755,-0.0561 -1.13307,-0.16793 -1.65638,-0.24854 -0.52335,-0.0806 -1.26862,-0.19246 -1.65642,-0.2486 -0.38779,-0.0561 -0.89412,-0.13361 -1.12549,-0.17221 -0.23118,-0.0387 -0.44628,-0.0443 -0.4779,-0.0129 -0.0317,0.0316 -0.0485,0.46679 -0.0376,0.9672 l 0.0206,0.90984 0.35248,0.0532 c 0.19378,0.0294 0.79645,0.11865 1.33925,0.19859 0.5428,0.08 1.27229,0.1897 1.62107,0.24371 1.24341,0.19249 2.54871,0.38789 3.27773,0.49064 2.76884,0.39026 2.95986,0.42524 3.04744,0.55807 0.0834,0.12679 0.0652,6.58656 -0.0183,6.74414 -0.0789,0.14714 -0.17038,0.15404 -0.77304,0.0582 z m 94.11078,-1.20645 c -0.12154,-0.12159 -0.11672,-3.72073 0.005,-3.87447 0.0576,-0.0725 0.35705,-0.15239 0.86363,-0.23034 0.4263,-0.0655 1.04479,-0.16166 1.37432,-0.21347 1.66579,-0.26185 1.77404,-0.27181 1.83896,-0.16911 0.0342,0.0538 0.0626,0.92977 0.0631,1.94653 0,1.84111 0,1.84902 -0.15753,1.94829 -0.0871,0.0548 -0.61849,0.16626 -1.18054,0.24768 -1.5539,0.225 -2.4164,0.35683 -2.57806,0.39405 -0.0802,0.0186 -0.18346,-0.004 -0.22909,-0.0491 z m 7.99969,-1.2294 c -0.0694,-0.0693 -0.0553,-3.77828 0.0138,-3.88885 0.07,-0.11046 3.25385,-0.64097 3.86754,-0.6444 l 0.22908,-0.002 v 1.92972 c 0,1.45827 -0.0206,1.94736 -0.0879,2.00194 -0.0485,0.0396 -0.92853,0.20233 -1.9559,0.36141 -2.02515,0.3135 -1.99877,0.3104 -2.06756,0.24151 z m -47.96189,-7.72404 c -0.049,-0.06 -0.0519,-2.58583 -0.01,-7.91203 0.0862,-10.6771 0.0918,-11.08285 0.15065,-11.14168 0.0842,-0.0837 0.75402,-0.1946 6.76891,-1.11999 3.1493,-0.48448 6.43962,-0.99288 7.31172,-1.12979 0.87234,-0.13689 2.93395,-0.45483 4.58162,-0.70658 1.6477,-0.25169 3.28116,-0.50406 3.62997,-0.5608 0.34901,-0.0566 1.586,-0.24934 2.74912,-0.42799 1.16288,-0.1787 2.39986,-0.36902 2.74888,-0.42303 0.3488,-0.0538 1.36378,-0.20942 2.25538,-0.34549 0.89184,-0.13607 2.03364,-0.31157 2.53771,-0.39006 3.1479,-0.49037 4.22984,-0.658 4.79282,-0.74279 2.43609,-0.36672 4.69495,-0.71426 5.70946,-0.87835 0.46526,-0.0752 1.59126,-0.24937 2.50212,-0.38692 0.91109,-0.13756 1.94189,-0.29612 2.29094,-0.35232 0.3488,-0.0561 1.07827,-0.16902 1.62109,-0.25064 0.54278,-0.0817 1.28212,-0.19666 1.64329,-0.25553 0.36098,-0.0588 0.70197,-0.0896 0.7577,-0.0682 0.0846,0.0324 0.10142,0.35182 0.10142,1.93556 0,1.64848 -0.0138,1.90887 -0.11238,1.98981 -0.0617,0.0512 -0.38665,0.13074 -0.72235,0.17677 -0.93655,0.12837 -2.13108,0.31016 -2.29553,0.34931 -0.0809,0.0193 -0.48042,0.0812 -0.88748,0.13735 -0.40703,0.0561 -1.04137,0.15161 -1.40964,0.21195 -0.36829,0.0604 -1.08217,0.17129 -1.586,0.24653 -0.50405,0.0752 -1.21769,0.18591 -1.586,0.24594 -0.36829,0.06 -1.08194,0.17117 -1.58598,0.24702 -0.50383,0.0758 -1.32848,0.20297 -1.83252,0.28249 -0.50405,0.0796 -1.21769,0.1891 -1.58601,0.24345 -0.36827,0.0544 -1.09776,0.16701 -1.62108,0.25033 -0.52331,0.0832 -1.253,0.19559 -1.62129,0.24949 -0.36829,0.054 -1.0659,0.16256 -1.55069,0.24145 -0.48455,0.0789 -1.1982,0.19012 -1.58577,0.24718 -0.64782,0.0953 -1.60225,0.24101 -3.2424,0.49494 -0.34901,0.054 -0.98333,0.14786 -1.40964,0.20857 -0.42652,0.0607 -0.93401,0.14045 -1.1278,0.17721 -0.19402,0.0367 -0.51116,0.0858 -0.70494,0.10913 -0.19377,0.0232 -0.49512,0.0726 -0.66961,0.10986 -0.17453,0.0371 -0.65012,0.11359 -1.05718,0.16995 -0.40706,0.0564 -1.04157,0.14933 -1.40987,0.20679 -1.77659,0.2771 -2.64754,0.41235 -3.48893,0.54176 -1.9481,0.29964 -2.21387,0.34081 -3.13667,0.48587 -0.52332,0.0822 -1.25278,0.19389 -1.62108,0.248 -0.6178,0.0908 -1.53691,0.23277 -3.24239,0.50087 -0.3683,0.0579 -1.08195,0.16751 -1.586,0.24359 -0.50404,0.0761 -1.20163,0.18447 -1.5507,0.24085 -0.34879,0.0565 -1.06243,0.167 -1.58597,0.24578 -1.66167,0.25026 -1.86577,0.28328 -1.9559,0.31664 -0.0673,0.0251 -0.0879,0.45169 -0.0879,1.80597 v 1.77333 l 0.33478,-0.0403 c 0.18413,-0.0223 0.73131,-0.10576 1.21587,-0.1859 0.48455,-0.0801 1.21403,-0.193 1.62108,-0.25085 0.40704,-0.0578 1.13651,-0.1684 1.62131,-0.24574 0.48456,-0.0774 1.1982,-0.18852 1.58575,-0.24707 0.3878,-0.0587 0.86365,-0.13456 1.0574,-0.16888 0.5731,-0.10142 0.55155,-0.19363 0.50042,2.14067 -0.0245,1.12542 -0.0613,3.67719 -0.082,5.6706 -0.0206,1.99339 -0.051,3.64617 -0.0675,3.67281 -0.0342,0.0554 -0.63038,0.1827 -1.30277,0.27823 -0.2518,0.0358 -0.88635,0.13168 -1.40965,0.21304 -0.52331,0.0813 -1.28466,0.19342 -1.69172,0.249 -0.75698,0.10347 -1.25691,0.18133 -3.17175,0.4947 -0.60082,0.0983 -1.39382,0.22299 -1.76211,0.27704 -0.3683,0.054 -1.09365,0.16373 -1.61191,0.24372 -1.11291,0.17179 -1.03126,0.1676 -1.12162,0.0573 z m 5.37671,-4.80888 c 0.38754,-0.0604 1.09775,-0.17074 1.57796,-0.24517 0.4802,-0.0743 0.89941,-0.16175 0.93174,-0.19399 0.0576,-0.0577 0.1,-3.39063 0.0438,-3.44679 -0.0161,-0.0158 -0.45407,0.0372 -0.97393,0.11733 -0.51988,0.0802 -1.27205,0.19298 -1.67176,0.25043 -0.39972,0.0575 -0.80402,0.13388 -0.89874,0.16988 l -0.1722,0.0654 v 1.73185 1.73184 l 0.22908,-0.0355 c 0.12612,-0.0195 0.54625,-0.0849 0.93404,-0.14533 z m -59.31386,0.023 c -0.41829,-0.0579 -1.17985,-0.17457 -3.66526,-0.56131 -1.39267,-0.21671 -2.21892,-0.34013 -3.24238,-0.48422 -0.52332,-0.0737 -1.26861,-0.18129 -1.6564,-0.23912 -3.06534,-0.45721 -2.92385,-0.43068 -3.01215,-0.56474 -0.0649,-0.0988 -0.0679,-5.97004 -0.007,-13.35423 0.0407,-4.89172 0.0609,-5.66859 0.15066,-5.70298 0.0571,-0.0218 1.12231,0.11155 2.3673,0.29663 1.24476,0.18506 2.99289,0.44443 3.8845,0.57637 0.89162,0.13197 1.93847,0.28781 2.32603,0.34631 0.38777,0.0585 1.54539,0.23089 2.57277,0.38311 6.75399,1.00071 19.49011,2.90118 19.84167,2.96078 0.23276,0.0394 1.39038,0.21438 2.57276,0.38886 1.18238,0.17444 2.46706,0.36627 2.85485,0.42627 0.38755,0.06 1.45022,0.21773 2.36132,0.35054 0.91111,0.1328 2.19556,0.32265 2.8546,0.42191 0.65909,0.0991 1.38857,0.20848 1.62134,0.24268 0.5091,0.075 1.64447,0.24485 2.88992,0.43258 0.50383,0.0759 1.34451,0.20034 1.86781,0.27637 3.58021,0.52015 5.5049,0.83375 5.5996,0.91237 0.0941,0.0781 0.10962,0.34898 0.10962,1.90155 0,1.37098 -0.0229,1.84085 -0.0912,1.93541 -0.0813,0.11154 -0.14356,0.1172 -0.58155,0.0531 -0.26947,-0.0395 -0.82329,-0.12034 -1.23032,-0.17987 -0.40707,-0.0596 -1.16817,-0.17382 -1.69148,-0.25396 -0.52357,-0.0801 -1.26885,-0.19164 -1.65643,-0.24775 -0.38777,-0.0561 -1.13308,-0.16663 -1.65636,-0.24566 -0.52357,-0.079 -1.25305,-0.18828 -1.62132,-0.24275 -1.24754,-0.18448 -4.54014,-0.67492 -5.70925,-0.85041 -0.63979,-0.096 -1.60731,-0.23935 -2.15012,-0.31855 -0.54255,-0.0793 -1.27227,-0.19003 -1.62109,-0.24628 -0.54691,-0.0881 -3.53752,-0.53429 -5.67413,-0.84643 -0.36828,-0.0537 -1.43094,-0.21151 -2.36131,-0.35043 -0.93037,-0.13894 -2.10405,-0.31354 -2.60785,-0.38799 -0.50405,-0.0745 -1.34453,-0.20067 -1.86784,-0.28049 -0.52356,-0.0801 -1.26884,-0.19153 -1.65637,-0.24824 -0.38781,-0.0566 -1.13312,-0.16734 -1.65665,-0.2458 -0.52331,-0.0785 -1.26862,-0.18952 -1.65639,-0.24671 -0.38756,-0.0572 -1.1331,-0.16821 -1.65641,-0.2467 -0.52332,-0.0785 -1.26862,-0.18951 -1.65642,-0.2467 -0.38754,-0.0572 -1.13306,-0.1686 -1.65637,-0.24751 -1.16083,-0.17509 -1.9848,-0.29806 -3.27746,-0.48917 -1.49566,-0.22109 -2.1731,-0.32207 -4.00423,-0.59689 -0.92302,-0.13854 -1.70798,-0.25187 -1.74445,-0.25187 -0.10841,0 -0.0868,3.52122 0.0229,3.56085 0.0484,0.0177 0.43685,0.0824 0.8634,0.14369 0.42653,0.0612 1.07667,0.15495 1.44496,0.20796 0.36828,0.0531 1.11358,0.16436 1.65641,0.24743 0.5428,0.0831 1.2881,0.19394 1.65638,0.2464 1.78366,0.25406 2.23246,0.32731 2.37898,0.38821 l 0.15846,0.066 v 5.60975 c 0,3.73216 -0.0243,5.65539 -0.0729,5.74608 -0.0802,0.15004 -0.18529,0.1564 -0.91386,0.0554 z m -3.38318,-6.37081 c 0,-1.31879 -0.0206,-1.73692 -0.0883,-1.76196 -0.15962,-0.0596 -3.68155,-0.57426 -3.73568,-0.54596 -0.0293,0.0151 -0.0528,0.80077 -0.0528,1.74564 0,1.57508 0.0108,1.72109 0.12314,1.75506 0.0679,0.0204 0.48824,0.0884 0.93404,0.1511 0.44578,0.0629 1.15945,0.1709 1.58599,0.24044 0.42629,0.0695 0.8783,0.13056 1.00443,0.1356 l 0.2291,0.01 z m 73.39331,1.1147 c -0.0677,-0.0243 -0.0883,-0.4754 -0.0883,-1.93069 v -1.89897 l 0.19401,-0.0758 c 0.10673,-0.0418 0.49509,-0.11829 0.8634,-0.1701 0.56507,-0.0795 1.33075,-0.19619 2.83695,-0.43246 l 0.26442,-0.0417 v 1.93902 c 0,1.4687 -0.0206,1.95517 -0.0881,2.00563 -0.0487,0.0367 -0.45293,0.12157 -0.89872,0.18879 -0.44581,0.0673 -1.19132,0.18093 -1.65639,0.25273 -1.18652,0.1831 -1.32778,0.19929 -1.4273,0.16344 z m -62.92634,-1.30383 c -1.00787,-0.15348 -1.91186,-0.31637 -2.00887,-0.36197 l -0.17611,-0.083 v -1.90215 -1.90216 l 0.38755,0.007 c 0.21327,0.004 0.8478,0.0777 1.40989,0.16433 0.56205,0.0866 1.31767,0.20031 1.67885,0.2528 0.36142,0.0525 0.70565,0.13586 0.76528,0.18523 0.15892,0.13187 0.11419,3.76573 -0.0476,3.86799 -0.0579,0.0367 -0.12156,0.0632 -0.14104,0.0588 -0.0183,-0.005 -0.85975,-0.13351 -1.86784,-0.28697 z"
     style="fill:#ffffff;fill-opacity:1;stroke:#ffffff;stroke-width:0.482879;stroke-linecap:round;stroke-linejoin:bevel;stroke-miterlimit:4;stroke-dasharray:none;stroke-opacity:1"
     transform="matrix(0.25415739,0,0,0.25415739,39.66734,-37.161205)" /><path
     inkscape:export-ydpi="131.06133"
     inkscape:export-xdpi="131.06133"
     inkscape:connector-curvature="0"
     id="path9266"
     d="m -607.3369,290.95239 c 0,0 0,0 0,0 z"
     style="fill:none;fill-opacity:1;stroke:#ffffff;stroke-width:0.264583px;stroke-linecap:butt;stroke-linejoin:miter;stroke-opacity:1"
     transform="matrix(0.32551835,0,0,0.32551835,322.50619,-59.401785)" /><path
     id="path9268"
     d="m -626.32086,266.34122 h 37.96794 v 38.21449 h -37.96794 z"
     style="fill:none;fill-opacity:1;stroke:#ffffff;stroke-width:3;stroke-linecap:round;stroke-linejoin:round;stroke-miterlimit:4;stroke-dasharray:none;stroke-opacity:1"
     transform="matrix(0.32551835,0,0,0.32551835,322.50619,-59.401785)"
     inkscape:connector-curvature="0" /><g
     style="fill:none;fill-opacity:1;stroke:#ffffff;stroke-width:4.18951;stroke-miterlimit:4;stroke-dasharray:none;stroke-opacity:1"
     id="g9274"
     transform="matrix(0.2123281,0,0,0.2123281,161.33894,7.3165921)"><path
       inkscape:export-ydpi="131.06133"
       inkscape:export-xdpi="131.06133"
       sodipodi:nodetypes="cc"
       inkscape:connector-curvature="0"
       id="path9270"
       d="m -193.52383,151.55542 1e-5,8.16363"
       style="fill:none;fill-opacity:1;stroke:#ffffff;stroke-width:4.18951;stroke-linecap:butt;stroke-linejoin:miter;stroke-miterlimit:4;stroke-dasharray:none;stroke-opacity:1" /><path
       inkscape:export-ydpi="131.06133"
       inkscape:export-xdpi="131.06133"
       sodipodi:nodetypes="cc"
       inkscape:connector-curvature="0"
       id="path9272"
       d="m -150.58571,151.70661 1e-5,8.16363"
       style="fill:none;fill-opacity:1;stroke:#ffffff;stroke-width:4.18951;stroke-linecap:butt;stroke-linejoin:miter;stroke-miterlimit:4;stroke-dasharray:none;stroke-opacity:1" /></g><path
     id="path9276"
     d="m -609.9519,292.31851 h 5.23001 v 4.18402 h -5.23001 z"
     style="fill:#ffffff;fill-opacity:1;fill-rule:nonzero;stroke:#ffffff;stroke-width:2.60911;stroke-linecap:square;stroke-linejoin:round;stroke-miterlimit:4;stroke-dasharray:none;stroke-opacity:1"
     transform="matrix(0.32551835,0,0,0.32551835,322.50619,-59.401785)"
     inkscape:connector-curvature="0" /><path
     d="m 413.566,394.69603 -77.97483,11.85131 m -78.5968,-11.85131 77.97483,11.85131"
     style="fill:none;fill-opacity:1;stroke:#ffffff;stroke-width:3;stroke-linecap:round;stroke-linejoin:round;stroke-miterlimit:4;stroke-dasharray:none;stroke-opacity:1"
     id="path9278"
     inkscape:connector-curvature="0"
     transform="matrix(0.25415739,0,0,0.25415739,39.66734,-37.161205)" /><rect
     style="fill:none;stroke:#ffffff;stroke-width:4.67532;stroke-linecap:round;stroke-linejoin:round;stroke-dasharray:none;stroke-opacity:1"
     id="rect3679"
     width="67.324677"
     height="67.324677"
     x="91.117325"
     y="13.015628"
     ry="0.14622039" /></g></svg>
