<?xml version="1.0" encoding="UTF-8" standalone="no"?>
<svg
   id="Layer_1"
   data-name="Layer 1"
   viewBox="0 0 59.688 13.61"
   version="1.1"
   sodipodi:docname="logotype.svg"
   xml:space="preserve"
   inkscape:version="1.2.2 (b0a8486541, 2022-12-01)"
   width="59.688"
   height="13.61"
   xmlns:inkscape="http://www.inkscape.org/namespaces/inkscape"
   xmlns:sodipodi="http://sodipodi.sourceforge.net/DTD/sodipodi-0.dtd"
   xmlns="http://www.w3.org/2000/svg"
   xmlns:svg="http://www.w3.org/2000/svg"
   xmlns:rdf="http://www.w3.org/1999/02/22-rdf-syntax-ns#"
   xmlns:cc="http://creativecommons.org/ns#"
   xmlns:dc="http://purl.org/dc/elements/1.1/"><sodipodi:namedview
     id="namedview11"
     pagecolor="#ffffff"
     bordercolor="#000000"
     borderopacity="0.25"
     inkscape:showpageshadow="2"
     inkscape:pageopacity="0.0"
     inkscape:pagecheckerboard="0"
     inkscape:deskcolor="#d1d1d1"
     showgrid="false"
     inkscape:zoom="7.9905745"
     inkscape:cx="36.042465"
     inkscape:cy="14.517104"
     inkscape:window-width="1280"
     inkscape:window-height="736"
     inkscape:window-x="0"
     inkscape:window-y="33"
     inkscape:window-maximized="1"
     inkscape:current-layer="Layer_1" /><defs
     id="defs4"><style
       id="style2">.cls-1{fill:#22282b;}</style><style
       id="style18547">.cls-1{fill:#22282b;}</style></defs><title
     id="title6">Artboard 1</title><g
     aria-label="AI Projek"
     id="text514"
     style="font-weight:bold;font-size:10.3619px;font-family:Poppins;-inkscape-font-specification:'Poppins Bold';fill:#22282b;stroke-width:4.31747;stroke-linecap:round;stroke-linejoin:round"
     transform="matrix(1.2409265,0,0,1.2409265,-29.658481,-4.2392458)"><path
       d="m 29.205381,11.630361 -0.404114,-1.222705 h -2.611199 l -0.404114,1.222705 h -1.885866 l 2.528304,-7.2947782 h 2.155275 l 2.517942,7.2947782 z M 26.63563,9.0606093 h 1.720076 L 27.495668,6.4701342 Z"
       id="path1402" /><path
       d="M 31.972002,11.630361 V 4.3563066 h 1.771885 v 7.2740544 z"
       id="path1404" /><path
       d="m 43.950343,6.5841151 q 0,0.735695 -0.528457,1.4195804 -0.279772,0.3523046 -0.839314,0.5802664 -0.549181,0.2175999 -1.3056,0.2175999 H 40.178611 V 11.630361 H 38.406726 V 4.3563066 h 2.870246 q 1.264152,0 1.968761,0.6527997 0.70461,0.6527997 0.70461,1.5750088 z m -3.771732,0.8703997 h 1.098361 q 0.404114,0 0.632076,-0.2383237 0.238324,-0.2383237 0.238324,-0.6217141 0,-0.3937522 -0.238324,-0.6424378 -0.238324,-0.2486856 -0.632076,-0.2486856 h -1.098361 z"
       id="path1406" /><path
       d="m 46.789508,5.8484202 v 1.0776377 q 0.621714,-1.1398091 1.657904,-1.1398091 v 1.8029707 h -0.4352 q -0.611352,0 -0.922209,0.2901332 -0.300495,0.2901332 -0.300495,1.0154662 V 11.630361 H 45.017623 V 5.8484202 Z"
       id="path1408" /><path
       d="m 52.882304,9.817028 q 0.352304,-0.3730284 0.352304,-1.0776376 0,-0.7046092 -0.362666,-1.0672757 -0.362667,-0.3730284 -0.860038,-0.3730284 -0.497371,0 -0.860038,0.3730284 -0.352304,0.3626665 -0.352304,1.0672757 0,0.7046092 0.362666,1.0776376 0.373029,0.373028 0.8704,0.373028 0.497371,0 0.849676,-0.373028 z m -3.015313,1.067276 q -0.8704,-0.81859 -0.8704,-2.1552755 0,-1.3366851 0.8704,-2.1345515 0.870399,-0.8082282 2.155275,-0.8082282 1.284876,0 2.144913,0.8082282 0.8704,0.7978664 0.8704,2.1345515 0,1.3366855 -0.860038,2.1552755 -0.860038,0.81859 -2.144913,0.81859 -1.284876,0 -2.165637,-0.81859 z"
       id="path1410" /><path
       d="m 56.177386,5.8484202 h 1.771885 v 6.6316158 q 0,1.046552 -0.538819,1.47139 -0.528456,0.4352 -1.502475,0.4352 H 55.21373 v -1.502475 h 0.424837 q 0.538819,0 0.538819,-0.404115 z m 1.616457,-0.6527997 q -0.300495,0.3004951 -0.735695,0.3004951 -0.4352,0 -0.735695,-0.3004951 -0.300495,-0.3004951 -0.300495,-0.7356949 0,-0.4455617 0.300495,-0.7460568 0.300495,-0.3004952 0.735695,-0.3004952 0.4352,0 0.735695,0.3004952 0.300495,0.3004951 0.300495,0.7460568 0,0.4351998 -0.300495,0.7356949 z"
       id="path1412" /><path
       d="m 61.959319,11.702894 q -1.264152,0 -2.07238,-0.808228 -0.808228,-0.81859 -0.808228,-2.1656375 0,-1.347047 0.797866,-2.1449134 0.808228,-0.7978663 2.082742,-0.7978663 1.274514,0 2.113828,0.7875044 0.839314,0.7875045 0.839314,2.186361 0,0.3004951 -0.04145,0.5595426 h -3.97897 q 0.05181,0.3833903 0.341943,0.6320759 0.290133,0.2383233 0.621714,0.2383233 0.341943,0 0.507733,-0.06217 0.165791,-0.07253 0.238324,-0.1347046 0.0829,-0.072533 0.207238,-0.2279619 h 1.916951 q -0.248685,0.8703995 -0.994742,1.4092185 -0.746057,0.528457 -1.771885,0.528457 z M 63.068042,8.2109335 Q 63.026595,7.8068194 62.715738,7.5581338 62.404881,7.2990863 61.980043,7.2990863 q -0.424838,0 -0.714971,0.2590475 -0.290134,0.2486856 -0.362667,0.6527997 z"
       id="path1414" /><path
       d="M 67.824155,11.630361 H 66.05227 V 3.9625544 h 1.771885 V 8.262743 l 1.792609,-2.4143228 h 2.383237 l -2.476494,2.9531416 2.476494,2.8287992 H 69.647849 L 67.824155,9.3196568 Z"
       id="path1416" /></g><metadata
     id="metadata352"><rdf:RDF><cc:Work
         rdf:about=""><dc:title>Artboard 1</dc:title></cc:Work></rdf:RDF></metadata></svg>
