<?xml version="1.0" encoding="UTF-8" standalone="no"?>
<!-- Generator: Adobe Illustrator 21.1.0, SVG Export Plug-In . SVG Version: 6.00 Build 0)  -->

<svg
   version="1.1"
   id="Layer_1"
   x="0px"
   y="0px"
   width="72px"
   height="17.8px"
   viewBox="0 0 72 17.8"
   enable-background="new 0 0 72 17.8"
   xml:space="preserve"
   sodipodi:docname="logo-outline.svg"
   inkscape:version="1.2.2 (b0a8486541, 2022-12-01)"
   xmlns:inkscape="http://www.inkscape.org/namespaces/inkscape"
   xmlns:sodipodi="http://sodipodi.sourceforge.net/DTD/sodipodi-0.dtd"
   xmlns="http://www.w3.org/2000/svg"
   xmlns:svg="http://www.w3.org/2000/svg"><defs
   id="defs19"><style
   id="style18547">.cls-1{fill:#22282b;}</style>
	
	
</defs><sodipodi:namedview
   id="namedview17"
   pagecolor="#ffffff"
   bordercolor="#000000"
   borderopacity="0.25"
   inkscape:showpageshadow="2"
   inkscape:pageopacity="0.0"
   inkscape:pagecheckerboard="0"
   inkscape:deskcolor="#d1d1d1"
   showgrid="false"
   inkscape:zoom="8.38301"
   inkscape:cx="40.200358"
   inkscape:cy="5.8451559"
   inkscape:window-width="1280"
   inkscape:window-height="736"
   inkscape:window-x="0"
   inkscape:window-y="33"
   inkscape:window-maximized="1"
   inkscape:current-layer="Layer_1" />

<g
   id="g1225"
   transform="matrix(0.24722223,0,0,0.24722223,-19.308056,10.3523)"><path
     style="fill:#22282b;fill-opacity:1;stroke-width:0.0659118"
     d="m 112.08971,13.699166 c -1.01505,-0.15867 -5.4641,-0.8386 -9.88678,-1.51095 -7.229292,-1.09902 -8.052902,-1.23632 -8.156602,-1.35973 -0.0634,-0.0755 -0.11534,-0.17187 -0.11534,-0.21417 0,-0.15864 0.20935,-0.36988 0.36657,-0.36988 0.0888,0 4.55837,0.66974 9.932482,1.48832 5.37411,0.81857 9.87492,1.48723 10.0018,1.48591 0.19792,-0.002 3.52576,-0.50334 17.32077,-2.60913 1.31546,-0.20081 2.46311,-0.3651 2.55035,-0.3651 0.15448,0 0.36382,0.21283 0.36382,0.36988 0,0.0423 -0.0519,0.13925 -0.11534,0.21546 -0.10113,0.12149 -0.41177,0.1836 -2.52113,0.50414 -1.32318,0.20107 -5.81289,0.88351 -9.97713,1.51654 -4.16424,0.63303 -7.64933,1.14786 -7.74464,1.14408 -0.0953,-0.004 -1.00379,-0.1367 -2.01883,-0.29537 z m -8.16715,-2.9227 C 94.715008,9.3698261 94.100108,9.2677661 93.986348,9.1272761 c -0.11391,-0.14067 -0.12128,-0.33761 -0.12128,-3.24032 v -3.09056 h -0.98389 -0.9839 l -0.1366,-0.17367 c -0.13412,-0.17051 -0.13661,-0.23447 -0.13661,-3.51479001 V -4.2331939 l 0.15255,-0.14331 c 0.14233,-0.13372 0.2174,-0.14332 1.1205,-0.14332 h 0.96795 v -3.56223 -3.5622401 l 0.16179,-0.16178 c 0.19455,-0.19456 0.14335,-0.19325 1.19671,-0.0307 0.46725,0.0721 0.88663,0.13144 0.93194,0.13182 0.062,5.3e-4 0.0824,-0.22712 0.0824,-0.92055 0,-0.89309 0.005,-0.92433 0.15421,-1.02228 0.14234,-0.0933 0.63333,-0.03 6.383222,0.82237 3.42596,0.50788 6.26329,0.92342 6.30516,0.92342 0.0419,0 0.0761,-0.0863 0.0761,-0.19173 v -0.19174 l -0.6904,-0.0225 c -0.61405,-0.02 -0.70698,-0.0391 -0.84037,-0.17259 l -0.14999,-0.15012 -0.0184,-6.27629 c -0.0102,-3.45196 -0.002,-6.34378 0.0181,-6.42627 0.0201,-0.0825 0.0952,-0.20854 0.16675,-0.28012 0.12779,-0.12779 0.24529,-0.13015 6.47822,-0.13015 6.29738,0 6.34921,0.001 6.49231,0.13439 l 0.14426,0.13439 v 6.44658 6.44658 l -0.13857,0.12556 c -0.1134,0.10276 -0.26304,0.12965 -0.8239,0.14804 l -0.68533,0.0225 v 0.19907 c 0,0.1886 0.0113,0.19704 0.21421,0.16035 0.11782,-0.0213 1.99384,-0.30768 4.16893,-0.63639 2.17509,-0.32871 4.91617,-0.74485 6.09129,-0.92476 1.95957,-0.3 2.14932,-0.31874 2.29044,-0.22628 0.14905,0.0977 0.15386,0.12956 0.15386,1.02206 0,0.69351 0.0204,0.92104 0.0824,0.92039 0.0453,-4.6e-4 0.45314,-0.0594 0.90628,-0.13097 1.03717,-0.16379 1.0284,-0.16401 1.22237,0.03 l 0.16178,0.16179 v 3.5951901 3.59519 h 0.94424 c 0.90177,0 0.95067,0.007 1.08754,0.15255 0.14324,0.15248 0.14331,0.15423 0.14331,3.48443999 0,3.27098001 -0.002,3.33507001 -0.1366,3.50556001 -0.1363,0.17328 -0.13874,0.17367 -1.08755,0.17367 h -0.95094 v 3.06123 3.06122 l -0.1483,0.16958 c -0.14508,0.16589 -0.36232,0.20247 -10.00212,1.6843699 -5.41961,0.83314 -10.00213,1.51217 -10.18339,1.50895 -0.18126,-0.003 -4.74628,-0.68059 -10.1445,-1.50528 z m 20.26197,-0.9172099 9.26062,-1.42766 0.0172,-2.8176 0.0172,-2.8176 h -0.92647 c -0.89577,0 -0.93183,-0.005 -1.08825,-0.16178 l -0.16178,-0.16179 v -3.32265001 c 0,-3.26163999 0.002,-3.32584999 0.1366,-3.49632999 0.1363,-0.17328 0.13874,-0.17367 1.08755,-0.17367 h 0.95094 v -3.26997 -3.2699701 l -0.21422,0.0392 c -0.70674,0.12926 -18.97768,2.8756101 -19.1309,2.8756101 -0.15322,0 -18.424352,-2.6842701 -19.130942,-2.8105901 l -0.21421,-0.0383 v 3.2370201 3.23701 h 0.91798 c 0.91321,0 0.91869,9.1e-4 1.05459,0.17367 0.1341,0.17048 0.13661,0.23469 0.13661,3.49632999 V 2.4728361 l -0.16178,0.16179 c -0.15585,0.15584 -0.19456,0.16178 -1.05459,0.16178 h -0.89281 v 2.83421 c 0,1.55882 0.0222,2.83529 0.0494,2.83662 0.0272,0.001 4.37985,0.66239 9.672572,1.46904 8.58513,1.3084499 9.66579,1.4603899 10.01861,1.4086499 0.2175,-0.0319 4.56274,-0.70044 9.65608,-1.4856599 z m -11.10615,-0.0985 -0.39547,-0.0766 v -3.4055 c 0,-1.87302 0.0178,-3.42326 0.0395,-3.44497 0.048,-0.0479 0.99535,0.0871 1.11048,0.15828 0.0648,0.04 0.0703,0.76013 0.0262,3.43733 l -0.0557,3.38668 -0.16478,0.0107 c -0.0906,0.006 -0.34274,-0.0238 -0.56025,-0.0659 z m 1.63344,-0.0243 c -0.0466,-0.12144 0.0995,-16.37371 0.14766,-16.42184 0.05,-0.05 1.04588,-0.19817 1.10206,-0.16396 0.0269,0.0164 0.0294,2.60864 0.006,5.76055 -0.0372,4.91748 -0.0301,5.73046 0.0499,5.72877 0.0513,-0.001 1.39831,-0.20473 2.99337,-0.45256 1.59507,-0.24782 2.92237,-0.43798 2.94956,-0.42256 0.0272,0.0154 0.0494,0.26038 0.0494,0.54437 0,0.40891 -0.0216,0.52464 -0.10371,0.55615 -0.0571,0.0219 -1.36952,0.23394 -2.9166,0.47122 -1.54709,0.23728 -2.87962,0.45919 -2.96119,0.49313 -0.14662,0.061 -0.1483,0.0763 -0.1483,1.34842 v 1.28669 l 0.18125,-7.2e-4 c 0.0997,-3.6e-4 0.29249,-0.0191 0.42843,-0.0416 l 0.24717,-0.0408 v -0.94005 c 0,-0.73788 0.0195,-0.94754 0.0908,-0.9749 0.18892,-0.0725 2.75513,-0.4481 2.92654,-0.42835 l 0.17935,0.0207 v 1.43039 c 0,0.86687 -0.026,1.45568 -0.0659,1.49457 -0.0362,0.0353 -1.14851,0.2299 -2.47169,0.43245 -1.32318,0.20254 -2.4595,0.38042 -2.52516,0.39528 -0.0667,0.0151 -0.13669,-0.0181 -0.15863,-0.0753 z m 3.82077,-1.63922 0.24717,-0.0425 v -0.35518 c 0,-0.3437 -0.006,-0.35516 -0.18126,-0.35446 -0.0997,3.6e-4 -0.29248,0.0191 -0.42842,0.0416 l -0.24717,0.0409 v 0.39208 0.39209 l 0.18125,-0.0359 c 0.0997,-0.0198 0.29249,-0.0551 0.42843,-0.0785 z m -7.59634,1.33344 -0.36252,-0.076 -0.0196,-0.48795 c -0.0108,-0.26837 0.008,-0.51585 0.0424,-0.54994 0.0694,-0.0694 0.99569,0.0527 1.08621,0.14323 0.084,0.084 0.13178,0.56185 0.0825,0.82457 -0.04,0.21308 -0.0637,0.23428 -0.25529,0.22851 -0.11617,-0.003 -0.37436,-0.0406 -0.57374,-0.0824 z m -1.87849,-0.27357 c -0.0362,-0.0123 -0.17714,-0.041 -0.31308,-0.0637 l -0.24717,-0.0413 v -0.55726 c 0,-0.3065 0.0222,-0.55704 0.0494,-0.55677 0.097,9.8e-4 0.9084,0.13697 1.02164,0.17123 0.0972,0.0294 0.11534,0.11703 0.11534,0.55775 v 0.52285 l -0.28012,-0.005 c -0.15407,-0.003 -0.30979,-0.0153 -0.34604,-0.0276 z m -2.04327,-0.31515 c -0.25376,-0.0327 -0.49846,-0.09 -0.54377,-0.12745 -0.0526,-0.0434 -0.0824,-0.24751 -0.0824,-0.56401 v -0.49594 l 0.48461,0.041 c 0.72315,0.0611 0.7018,0.0416 0.7018,0.64066 0,0.28399 -0.0222,0.52733 -0.0494,0.54075 -0.0272,0.0134 -0.25706,-0.002 -0.51082,-0.035 z m 13.80854,-0.52809 v -0.55939 l 0.21421,-0.038 c 0.11782,-0.0209 0.36846,-0.0575 0.55697,-0.0813 0.32358,-0.0409 0.345,-0.0344 0.3827,0.11579 0.022,0.0875 0.0308,0.33382 0.0197,0.54736 -0.0229,0.44109 -0.0234,0.44142 -0.77306,0.52843 l -0.40057,0.0465 z m -15.98332,0.20472 c -0.21734,-0.0354 -0.43238,-0.0953 -0.47786,-0.13308 -0.0953,-0.0791 -0.11273,-0.82578 -0.0226,-0.96807 0.0449,-0.0708 0.15089,-0.0812 0.46652,-0.0455 0.72855,0.0824 0.73435,0.088 0.71204,0.68034 -0.0221,0.58623 -0.007,0.57574 -0.67807,0.46627 z m 18.04025,-0.52188 0.0193,-0.55282 0.48564,-0.0868 c 0.2671,-0.0477 0.52663,-0.0711 0.57673,-0.0518 0.0664,0.0255 0.0911,0.17 0.0911,0.53299 0,0.57916 -0.0129,0.59049 -0.76007,0.66704 l -0.43198,0.0443 z m -22.09414,-0.0951 c -1.250682,-0.19357 -2.370362,-0.36982 -2.488172,-0.39166 l -0.21422,-0.0397 0.001,-8.15361001 c 6.3e-4,-4.79289999 0.0258,-8.19273999 0.0611,-8.24855999 0.0511,-0.0808 0.13695,-0.083 0.57381,-0.0151 0.28256,0.0439 0.53836,0.1045 0.56846,0.13459 0.0301,0.0301 0.0458,2.62606 0.0349,5.7688 -0.0197,5.66821 -0.0188,5.71432 0.11195,5.74439 0.0725,0.0167 1.422052,0.22426 2.998992,0.46128 1.57695,0.23703 2.91908,0.44653 2.98252,0.46556 0.0971,0.0291 0.11534,0.11644 0.11534,0.55357 0,0.28543 -0.0241,0.53385 -0.0535,0.55205 -0.0294,0.0182 -1.41475,-0.17284 -3.07845,-0.42453 -1.6637,-0.2517 -3.048482,-0.45763 -3.077272,-0.45763 -0.0714,0 -0.0669,2.61972 0.005,2.66392 0.0313,0.0194 0.22414,0.0549 0.42843,0.0789 l 0.371442,0.0437 v -0.90096 c 0,-0.72023 0.0189,-0.9082 0.0942,-0.9371 0.0778,-0.0298 2.38964,0.28402 3.02013,0.41001 l 0.18126,0.0362 v 1.51074 1.51073 l -0.18126,-0.007 c -0.0997,-0.004 -1.20454,-0.16517 -2.45522,-0.35874 z m 1.45006,-1.30998 c 0,-0.39447 0.0465,-0.35867 -0.61321,-0.47236 l -0.2507,-0.0432 0.02,0.38699 c 0.0199,0.38557 0.0208,0.38714 0.25069,0.42775 0.12688,0.0224 0.31226,0.0447 0.41195,0.0494 0.17651,0.008 0.18126,-7.2e-4 0.18126,-0.3486 z m 22.6981,1.57816 c -0.0168,-0.0439 -0.0218,-0.29862 -0.011,-0.56612 l 0.0196,-0.48635 0.49434,-0.0837 c 0.27189,-0.046 0.53141,-0.07 0.57673,-0.0533 0.0559,0.0206 0.0824,0.18901 0.0824,0.52289 0,0.32286 -0.0284,0.51009 -0.0824,0.54354 -0.0453,0.0281 -0.29988,0.0852 -0.5657,0.12691 -0.37536,0.0589 -0.49014,0.0581 -0.51391,-0.004 z m 2.01885,-0.77807 c 0,-0.64914 -0.0265,-0.62327 0.7018,-0.68484 l 0.48462,-0.041 v 0.49594 c 0,0.5636 -0.0292,0.60591 -0.46139,0.66963 -0.16313,0.024 -0.393,0.061 -0.51081,0.0822 l -0.21422,0.0385 z m -16.08249,0.14318 c -0.16314,-0.0323 -1.21608,-0.19614 -2.33988,-0.36416 -1.12379,-0.16801 -2.06776,-0.33856 -2.09771,-0.379 -0.0546,-0.0737 -0.004,-4.8491 0.0525,-4.90507 0.0353,-0.0353 1.0122,0.10401 1.09697,0.1564 0.0322,0.0199 0.0585,0.88959 0.0585,1.9327 v 1.89656 l 1.40063,0.20994 c 0.77035,0.11546 1.43205,0.20939 1.47045,0.20873 0.041,-7.2e-4 0.0683,-0.15104 0.0661,-0.36446 -0.004,-0.423 0.069,-0.38286 -0.95979,-0.52531 -0.41689,-0.0577 -0.83955,-0.12105 -0.93924,-0.14073 l -0.18126,-0.0358 7.2e-4,-1.26357 c 9e-4,-1.53936 0.0289,-1.75791 0.22532,-1.75791 0.14621,0 2.65332,0.36917 2.92125,0.43014 0.13847,0.0315 0.1483,0.0684 0.1483,0.55591 0,0.28718 -0.0251,0.53765 -0.0558,0.55661 -0.0307,0.019 -0.43521,-0.0238 -0.89899,-0.095 -1.18217,-0.18147 -1.09884,-0.20062 -1.07533,0.2471 l 0.0198,0.37653 0.92276,0.13662 c 0.50752,0.0751 0.95984,0.15956 1.00516,0.1876 0.0617,0.0382 0.0824,0.3971 0.0824,1.42586 0,0.75618 -0.018,1.42179 -0.04,1.47913 -0.0451,0.11745 -0.38571,0.12947 -0.88276,0.0311 z m 18.14165,-3.36595 0.0171,-3.44871001 0.51883,-0.0854 c 0.28536,-0.0469 0.53747,-0.0667 0.56025,-0.044 0.0636,0.0635 0.0882,6.28969001 0.0261,6.58454001 -0.0607,0.28775 -0.11088,0.31376 -0.76288,0.39522 l -0.3764,0.047 z m -8.18896,2.25103 c 0,-0.61421 0.007,-0.62078 0.75725,-0.69763 l 0.42916,-0.044 -9e-4,0.42105 c -10e-4,0.66501 -0.0144,0.68555 -0.4895,0.77308 -0.72804,0.13415 -0.69601,0.15497 -0.69601,-0.45253 z m -16.04954,0.17708 -0.39547,-0.0766 -0.0193,-0.5535 -0.0193,-0.5535 0.4705,0.0437 c 0.71202,0.0662 0.73063,0.0843 0.70779,0.68804 -0.0185,0.4885 -0.0252,0.50744 -0.18396,0.51772 -0.0906,0.006 -0.34274,-0.0238 -0.56025,-0.0659 z m 18.09281,-2.24343 c 0,-1.24615 0.0181,-2.35652 0.0403,-2.46748 0.0481,-0.24032 0.0985,-0.26358 0.69021,-0.31858 l 0.45585,-0.0424 v 1.88796 c 0,1.59342 0.0147,1.88795 0.0943,1.88795 0.13361,0 2.62386,-0.39044 2.72345,-0.427 0.0526,-0.0193 0.0824,-0.16466 0.0824,-0.40197 0,-0.35171 -0.008,-0.36989 -0.1483,-0.33746 -0.0816,0.0188 -0.51387,0.087 -0.96067,0.15133 -0.70295,0.1013 -0.82044,0.10431 -0.87232,0.0223 -0.033,-0.0521 -0.0604,-0.72577 -0.061,-1.49701 -0.001,-1.39456 -1.8e-4,-1.40256 0.1473,-1.45666 0.24662,-0.0905 2.943,-0.48146001 3.01468,-0.43717001 0.0849,0.0525 0.088,1.00120001 0.003,1.05349001 -0.0348,0.0215 -0.42783,0.0974 -0.87333,0.16852 -1.21228,0.19364 -1.10661,0.14022 -1.10661,0.55936 0,0.42648 -0.0895,0.40728 1.06314,0.22811 0.47112,-0.0732 0.88439,-0.11598 0.91836,-0.095 0.0727,0.0449 0.0835,2.86153 0.0113,2.97114 -0.0452,0.0686 -4.67086,0.81623 -5.05016,0.81623 h -0.17235 z m -6.07311,-0.91453 c -0.01,-0.3008 0.0129,-0.79694 0.0378,-0.82381 0.0176,-0.019 3.81756,-0.60977 3.92217,-0.60977 0.0473,0 0.0699,-0.49847 0.0699,-1.53926001 0,-0.8466 0.0188,-1.71935999 0.0418,-1.93948999 0.0471,-0.45016 0.0259,-0.43533 0.73263,-0.5134 l 0.41195,-0.0455 v 0.93128 c 0,0.92211999 0.001,0.93126999 0.1483,0.93027999 0.0816,-5.3e-4 0.71185,-0.0891 1.40063,-0.19674 0.68878,-0.10766 1.27457,-0.19619 1.30176,-0.19674 0.0272,-5.3e-4 0.0494,-0.18096 0.0494,-0.40091 0,-0.34931999 -0.0146,-0.39579999 -0.11534,-0.36738999 -0.29779,0.084 -1.72512,0.25606 -1.82043,0.21949 -0.0849,-0.0326 -0.10728,-0.13515 -0.10649,-0.48823 5.4e-4,-0.24583 0.0228,-0.48118 0.0494,-0.523 0.0448,-0.0703 1.3504,-0.29587 4.13496,-0.71439 0.61628,-0.0926 1.30588,-0.20041 1.53245,-0.23953 l 0.41195,-0.0711 v -1.34521 -1.3452 l -0.28013,0.0453 c -0.15406,0.0249 -1.24408,0.19584 -2.42226,0.37977 l -2.14213,0.33442 -0.0198,0.37899 c -0.0145,0.2777 0.003,0.37861 0.0659,0.37753 0.0471,-8e-4 0.931,-0.13141 1.96417,-0.29023 1.03317,-0.15883 1.90073,-0.27506 1.92792,-0.2583 0.0884,0.0545 0.058,1.0785 -0.0329,1.10967 -0.10191,0.0349 -6.95211,1.08812 -7.07742,1.08812 -0.0696,0 -0.0905,-0.12841 -0.0905,-0.55501 0,-0.64089 -0.12099,-0.5545 1.02163,-0.72943 0.36252,-0.0555 0.74069,-0.11782 0.84038,-0.13849 l 0.18126,-0.0376 v -0.95049 c 0,-0.52276 0.0155,-0.95048 0.0343,-0.95048 0.0189,0 1.56994,-0.23728 3.44679,-0.5273 1.87685,-0.29001 3.49307,-0.52729 3.59162,-0.52729 h 0.17917 l -0.0173,2.45522 -0.0173,2.45521 -0.39547,0.0749 c -0.21751,0.0412 -1.1288,0.1872 -2.0251,0.32445 l -1.62962,0.24956 -0.0182,0.96083999 -0.0182,0.96083 -1.97735,0.30942 c -1.08755,0.17019 -1.99961,0.31108001 -2.02679,0.31308001 -0.0272,0.002 -0.0494,0.43174 -0.0494,0.95494 0,0.84906 -0.0124,0.95494 -0.11534,0.98535 -0.14707,0.0434 -4.85404,0.76576 -4.99003,0.76576 -0.0742,0 -0.10415,-0.0756 -0.11088,-0.28013 z m -14.12888,-1.01344 c -1.26881,-0.19548 -2.34399,-0.36904 -2.38931,-0.38571 -0.0566,-0.0208 -0.0824,-0.19627 -0.0824,-0.55966 V 0.95092609 l 0.21422,0.004 c 0.11781,0.002 1.03833,0.12941001 2.04558,0.28330001 1.00726,0.15388 1.84516,0.26601 1.86201,0.24916 0.0168,-0.0169 0.0306,-0.87101001 0.0306,-1.89814001 V -2.2782539 h 0.2217 c 0.34781,0 0.91911,0.12506 0.9821,0.21498 0.0314,0.0449 0.0398,0.47212 0.0185,0.94941 l -0.0387,0.86778999 0.18265,0.038 c 0.16168,0.0336 2.77215,0.43449 2.82944,0.43449 0.0501,0 0.0187,-0.71968 -0.0328,-0.75151 -0.0305,-0.0189 -0.45315,-0.0952 -0.93924,-0.1696 -0.48609,-0.0744 -0.93571,-0.15175 -0.99915,-0.17181 -0.0971,-0.0307 -0.11535,-0.1192 -0.11535,-0.55931999 v -0.52285 l 0.24717,5e-5 c 0.13594,3e-5 1.52256,0.19254 3.08138,0.4278 1.55882,0.23527 2.85646,0.42803 2.88364,0.42838 0.0272,3.3e-4 0.0494,-0.60742 0.0494,-1.35057 0,-0.74316 -0.0147,-1.3512 -0.0326,-1.3512 -0.0179,0 -1.12504,-0.16313 -2.46025,-0.36251 -1.33522,-0.19939 -2.44764,-0.36252 -2.47206,-0.36252 -0.0244,0 -0.0444,0.17152 -0.0444,0.38115 v 0.38115 l 2.00922,0.30636 c 1.10507,0.1685 2.03937,0.325 2.07622,0.34777 0.0369,0.0228 0.067,0.26305 0.067,0.53393 0,0.36915 -0.0239,0.50169 -0.0954,0.52915 -0.0525,0.0201 -0.92007,-0.0859 -1.92793,-0.2356 -4.85831,-0.72172 -5.3243,-0.80007 -5.40819,-0.90941 -0.046,-0.0599 -0.0824,-0.29215 -0.0824,-0.52527 0,-0.33085 0.0231,-0.42676 0.11093,-0.46046 0.061,-0.0234 0.53344,0.0158 1.04985,0.0872 l 0.93892,0.12972 0.0212,-0.90368 c 0.0117,-0.49702 0.0389,-0.92133 0.0606,-0.94289 0.0339,-0.0337 6.86729,0.9522 7.30243,1.05361 l 0.15744,0.0367 -0.032,2.43604 c -0.0176,1.33981999 -0.0507,2.45475999 -0.0736,2.47763999 -0.034,0.034 -3.31124,-0.41825 -3.94986,-0.54508 l -0.18126,-0.036 v 0.92411 c 0,0.50826001 -0.0257,0.93999001 -0.0571,0.95941001 -0.0314,0.0194 -0.92864,-0.0971 -1.99384,-0.25902 -1.0652,-0.16187 -1.98863,-0.29464001 -2.05207,-0.29505001 -0.1044,-6.7e-4 -0.11535,0.0869 -0.11535,0.92202001 v 0.92277 l -0.28012,-0.008 c -0.15407,-0.004 -1.31824,-0.16763 -2.58704,-0.3631 z m 10.3976,-0.36709 -0.34604,-0.0631 v -0.56169 -0.56170001 l 0.40057,0.0465 c 0.77965,0.0905 0.75019,0.0646 0.77203,0.67957001 l 0.0191,0.53921 -0.24983,-0.008 c -0.13741,-0.004 -0.40555,-0.0362 -0.59587,-0.0709 z m -1.69724,-0.2588 c -0.18125,-0.0278 -0.42595,-0.0684 -0.54377,-0.0902 l -0.21421,-0.0396 v -0.52041 c 0,-0.28623001 0.0271,-0.53720001 0.0603,-0.55770001 0.0332,-0.0205 0.28624,-0.004 0.56239,0.0374 0.37179,0.0553 0.51911,0.10652 0.56775,0.19741 0.0665,0.12429 0.0138,0.96717001 -0.0628,1.00423001 -0.0221,0.0107 -0.18845,-0.003 -0.36971,-0.0311 z m 5.43922,-0.0828 c -0.0727,-0.0727 -0.0909,-0.43044 -0.0299,-0.58928 0.0272,-0.0708 0.36205,-0.14822001 1.21937,-0.28180001 l 1.1819,-0.18417 v -0.19321 c 0,-0.17543 -0.0167,-0.18995 -0.18126,-0.15774 -0.72973,0.14278 -2.07427,0.3191 -2.16572,0.28401 -0.0997,-0.0383 -0.10743,-0.13444 -0.0731,-0.9067 0.0211,-0.47515 0.0626,-0.88614999 0.0923,-0.91333999 0.0836,-0.0768 2.88887,-0.48675 3.01065,-0.44002 0.1175,0.0451 0.1515,0.46829 0.0504,0.62773 -0.0347,0.0547 -0.48706,0.15423999 -1.20188,0.26437999 l -1.14624,0.17661 -0.0208,0.18052 c -0.0115,0.0993 0.003,0.18097 0.0329,0.18151 0.0296,5.3e-4 0.55161,-0.0776 1.16004,-0.17356 0.60842,-0.096 1.12747,-0.15332 1.15345,-0.12736 0.026,0.026 0.0569,0.40808 0.0687,0.84916 0.0159,0.59395 -0.001,0.83002001 -0.0659,0.91013001 -0.11298,0.13993 -2.97977,0.59819 -3.08484,0.49313 z M 101.72012,0.32294609 c -0.77306,-0.12023 -1.44783,-0.23481 -1.49949,-0.25464 -0.14033,-0.0539 -0.12813,-0.6244 0.0145,-0.67914 0.0934,-0.0358 1.82191,0.18563 2.2479,0.28804 0.12876,0.031 0.1483,0.01 0.1483,-0.16207 v -0.19773 l -0.77446,-0.11513 c -0.42596,-0.0633 -0.98209,-0.14897 -1.23585,-0.19034 l -0.46138,-0.0752 -0.0185,-0.8826 c -0.0104,-0.49576 0.009,-0.90999 0.044,-0.9451 0.0625,-0.0625 2.78305,0.30947 3.08876,0.42234 0.12408,0.0458 0.1483,0.1038 0.1483,0.35506 0,0.21019 -0.0306,0.31205 -0.10196,0.33944 -0.0851,0.0327 -1.59553,-0.15895 -2.22143,-0.28181 -0.1592,-0.0312 -0.18126,-0.0154 -0.18126,0.13054 0,0.0914 0.0255,0.1819 0.0567,0.20117 0.0312,0.0193 0.57249,0.11298 1.20289,0.20824 0.63041,0.0952 1.16799,0.20729 1.19462,0.24897 0.0583,0.0912 0.0673,1.57012996 0.0104,1.71818996 -0.0494,0.12885 0.0303,0.135 -1.66217,-0.12822 z m 25.27965,-0.13803 c -0.0258,-0.0258 -0.0469,-0.26518 -0.0469,-0.53192 0,-0.56424 0.0157,-0.57772 0.76007,-0.65397999 l 0.43198,-0.0443 -0.0193,0.54859999 c -0.0185,0.52533 -0.0264,0.5505 -0.18726,0.59334 -0.30378,0.0809 -0.89069,0.13609 -0.93855,0.0882 z m 2.01014,-0.83239 0.0191,-0.54376999 0.47553,-0.0903 c 0.65226,-0.12391 0.67814,-0.10731 0.67691,0.43429999 -5.3e-4,0.24584 -0.025,0.48475 -0.0543,0.53093 -0.0506,0.0797 -0.66207,0.21145 -0.98547,0.21227 -0.14673,3.9e-4 -0.15043,-0.0149 -0.13183,-0.5434 z M 116.84132,-2.1222439 c -0.0518,-0.13503 -0.0492,-2.34616 0.004,-3.76023 l 0.0429,-1.13198 0.40176,-0.0695 c 1.66471,-0.28794 12.78752,-1.97468 12.83364,-1.94617 0.0321,0.0199 0.0584,0.25576 0.0584,0.52424 0,0.39854 -0.0212,0.49892 -0.11534,0.54692 -0.0634,0.0323 -2.79219,0.47087 -6.06388,0.97452 l -5.94854,0.91572 -1e-5,0.40138 -1e-5,0.40137 0.93556,-0.15018 c 0.51456,-0.0826 0.95947,-0.13542 0.98868,-0.11736 0.0292,0.018 0.0531,0.67997 0.0531,1.47092 0,1.08872 -0.0205,1.45513 -0.0845,1.50819 -0.0464,0.0385 -0.67672,0.16029 -1.40062,0.27055 -0.72391,0.11027 -1.39507,0.21456 -1.49148,0.23176 -0.11842,0.0211 -0.18793,-0.002 -0.21422,-0.0701 z m 1.75718,-1.31935 0.24717,-0.0409 v -0.39418 -0.39418 l -0.24717,0.0425 c -0.65542,0.11282 -0.60968,0.0774 -0.60968,0.47171 0,0.34599 0.006,0.35725 0.18126,0.35655 0.0997,-4e-4 0.29248,-0.0191 0.42842,-0.0416 z m -16.79105,-0.0286 c -0.65252,-0.10246 -1.28317,-0.20399 -1.40142,-0.2256 l -0.21502,-0.0393 0.0173,-2.45208 0.0173,-2.45208 0.16478,-0.0192 c 0.17071,-0.0199 13.42732,1.94428 13.52354,2.00375 0.0299,0.0185 0.0543,0.2691 0.0543,0.55697 0,0.51295 -0.003,0.5234 -0.16313,0.5234 -0.0897,0 -2.85555,-0.40106 -6.14628,-0.89125 -3.29073,-0.49018 -6.04247,-0.89801 -6.11497,-0.90628 -0.11437,-0.013 -0.13442,0.0294 -0.15138,0.32037 -0.0127,0.2173 0.0105,0.35865 0.0659,0.40141 0.047,0.0363 0.44139,0.11635 0.87641,0.1779 0.43502,0.0615 0.87251,0.12796 0.9722,0.1476 l 0.18126,0.0357 v 1.51073 1.51074 l -0.24717,-0.008 c -0.13595,-0.005 -0.78106,-0.0921 -1.43359,-0.19452 z m 0.48061,-1.47793 c -0.0165,-0.19934 -0.0426,-0.37501 -0.058,-0.39038 -0.0154,-0.0154 -0.21313,-0.0489 -0.43948,-0.0745 l -0.41155,-0.0466 v 0.36977 c 0,0.39649 -0.0302,0.36395 0.42842,0.46094 0.0725,0.0153 0.21707,0.0313 0.32125,0.0355 l 0.18942,0.008 z m 18.64833,0.32201 c -0.0422,-0.0422 -0.0719,-1.07812 -0.031,-1.08139 0.009,-7.3e-4 0.26045,-0.041 0.55865,-0.0895 0.2982,-0.0485 0.55772,-0.0726 0.57673,-0.0536 0.0746,0.0746 0.0331,0.98627 -0.0478,1.05079 -0.0453,0.0361 -0.23069,0.0864 -0.41195,0.11167 -0.18125,0.0253 -0.38977,0.0603 -0.46336,0.0777 -0.0736,0.0175 -0.15516,0.0104 -0.18126,-0.0157 z m -16.01732,-0.31901 c -0.24619,-0.0446 -0.47751,-0.1109 -0.51405,-0.14744 -0.0365,-0.0365 -0.0576,-0.27112 -0.0467,-0.52129 l 0.0197,-0.45485 0.51558,0.0124 c 0.28357,0.007 0.55792,0.0475 0.60968,0.0905 0.0968,0.0803 0.13529,0.80072 0.0541,1.01229 -0.0453,0.11812 -0.0333,0.11796 -0.63831,0.008 z m -8.944822,4.08345999 V -3.5970039 h -1.7137 -1.71371 v 2.73533999 2.73534001 h 1.71371 1.7137 z m 39.678952,0 V -3.5970039 h -1.71371 -1.71371 v 2.73533999 2.73534001 h 1.71371 1.71371 z M 119.34262,-9.8275539 c 2.75368,-0.4179301 6.47488,-0.9820401 8.26933,-1.2535801 1.79445,-0.27154 3.35903,-0.51128 3.47685,-0.53275 l 0.21422,-0.039 v -0.65178 c 0,-0.4774 -0.022,-0.65183 -0.0824,-0.65195 -0.0453,-7e-5 -3.90575,0.57945 -8.57873,1.28787 l -8.49634,1.28804 -1.62113,-0.23659 c -0.89163,-0.13012 -2.59993,-0.38277 -3.79623,-0.56143 -6.52539,-0.97454 -11.541422,-1.71182 -11.646292,-1.71182 -0.10677,0 -0.11898,0.0677 -0.11898,0.65912 0,0.48139 0.0222,0.66012 0.0824,0.66282 0.0453,0.002 3.819592,0.56229 8.387292,1.24501 4.56769,0.6827301 8.43954,1.2446201 8.6041,1.2486401 0.16457,0.004 2.55223,-0.33464 5.30591,-0.75256 z m -3.21498,-1.6147401 c 2.36222,-0.35578 2.12483,-0.28912 2.12483,-0.59667 v -0.25841 h -4.1195 -4.11949 v 0.26239 c 0,0.21784 0.0252,0.26831 0.1483,0.29725 0.36797,0.0865 3.60862,0.54821 3.88964,0.55419 0.17265,0.004 1.10696,-0.11277 2.07622,-0.25875 z m 3.70671,-7.57809 v -5.73433 h -5.70138 -5.70137 v 5.73433 5.73433 h 5.70137 5.70138 z m -6.82487,3.85884 c -0.15393,-0.15393 -0.16179,-0.20047 -0.16179,-0.95872 0,-0.75824 0.008,-0.80479 0.16179,-0.95871 0.15698,-0.15699 0.1903,-0.16179 1.12349,-0.16179 0.9332,0 0.96651,0.005 1.1235,0.16179 0.15393,0.15392 0.16179,0.20047 0.16179,0.95871 0,0.75825 -0.008,0.80479 -0.16179,0.95872 -0.15699,0.15699 -0.1903,0.16179 -1.1235,0.16179 -0.93319,0 -0.96651,-0.005 -1.12349,-0.16179 z"
     id="path391" /><rect
     style="fill:none;stroke:#22282b;stroke-width:4.67532;stroke-linecap:round;stroke-linejoin:round;stroke-dasharray:none;stroke-opacity:1"
     id="rect3679"
     width="67.324677"
     height="67.324677"
     x="80.43766"
     y="-39.536812"
     ry="0.14622039" /></g><g
   aria-label="AI Projek"
   id="text514"
   style="font-weight:bold;font-size:10.3619px;font-family:Poppins;-inkscape-font-specification:'Poppins Bold';fill:#22282b;stroke-width:4.31747;stroke-linecap:round;stroke-linejoin:round"><path
     d="m 29.205381,11.630361 -0.404114,-1.222705 h -2.611199 l -0.404114,1.222705 h -1.885866 l 2.528304,-7.2947782 h 2.155275 l 2.517942,7.2947782 z M 26.63563,9.0606093 h 1.720076 L 27.495668,6.4701342 Z"
     id="path1402" /><path
     d="M 31.972002,11.630361 V 4.3563066 h 1.771885 v 7.2740544 z"
     id="path1404" /><path
     d="m 43.950343,6.5841151 q 0,0.735695 -0.528457,1.4195804 -0.279772,0.3523046 -0.839314,0.5802664 -0.549181,0.2175999 -1.3056,0.2175999 H 40.178611 V 11.630361 H 38.406726 V 4.3563066 h 2.870246 q 1.264152,0 1.968761,0.6527997 0.70461,0.6527997 0.70461,1.5750088 z m -3.771732,0.8703997 h 1.098361 q 0.404114,0 0.632076,-0.2383237 0.238324,-0.2383237 0.238324,-0.6217141 0,-0.3937522 -0.238324,-0.6424378 -0.238324,-0.2486856 -0.632076,-0.2486856 h -1.098361 z"
     id="path1406" /><path
     d="m 46.789508,5.8484202 v 1.0776377 q 0.621714,-1.1398091 1.657904,-1.1398091 v 1.8029707 h -0.4352 q -0.611352,0 -0.922209,0.2901332 -0.300495,0.2901332 -0.300495,1.0154662 V 11.630361 H 45.017623 V 5.8484202 Z"
     id="path1408" /><path
     d="m 52.882304,9.817028 q 0.352304,-0.3730284 0.352304,-1.0776376 0,-0.7046092 -0.362666,-1.0672757 -0.362667,-0.3730284 -0.860038,-0.3730284 -0.497371,0 -0.860038,0.3730284 -0.352304,0.3626665 -0.352304,1.0672757 0,0.7046092 0.362666,1.0776376 0.373029,0.373028 0.8704,0.373028 0.497371,0 0.849676,-0.373028 z m -3.015313,1.067276 q -0.8704,-0.81859 -0.8704,-2.1552755 0,-1.3366851 0.8704,-2.1345515 0.870399,-0.8082282 2.155275,-0.8082282 1.284876,0 2.144913,0.8082282 0.8704,0.7978664 0.8704,2.1345515 0,1.3366855 -0.860038,2.1552755 -0.860038,0.81859 -2.144913,0.81859 -1.284876,0 -2.165637,-0.81859 z"
     id="path1410" /><path
     d="m 56.177386,5.8484202 h 1.771885 v 6.6316158 q 0,1.046552 -0.538819,1.47139 -0.528456,0.4352 -1.502475,0.4352 H 55.21373 v -1.502475 h 0.424837 q 0.538819,0 0.538819,-0.404115 z m 1.616457,-0.6527997 q -0.300495,0.3004951 -0.735695,0.3004951 -0.4352,0 -0.735695,-0.3004951 -0.300495,-0.3004951 -0.300495,-0.7356949 0,-0.4455617 0.300495,-0.7460568 0.300495,-0.3004952 0.735695,-0.3004952 0.4352,0 0.735695,0.3004952 0.300495,0.3004951 0.300495,0.7460568 0,0.4351998 -0.300495,0.7356949 z"
     id="path1412" /><path
     d="m 61.959319,11.702894 q -1.264152,0 -2.07238,-0.808228 -0.808228,-0.81859 -0.808228,-2.1656375 0,-1.347047 0.797866,-2.1449134 0.808228,-0.7978663 2.082742,-0.7978663 1.274514,0 2.113828,0.7875044 0.839314,0.7875045 0.839314,2.186361 0,0.3004951 -0.04145,0.5595426 h -3.97897 q 0.05181,0.3833903 0.341943,0.6320759 0.290133,0.2383233 0.621714,0.2383233 0.341943,0 0.507733,-0.06217 0.165791,-0.07253 0.238324,-0.1347046 0.0829,-0.072533 0.207238,-0.2279619 h 1.916951 q -0.248685,0.8703995 -0.994742,1.4092185 -0.746057,0.528457 -1.771885,0.528457 z M 63.068042,8.2109335 Q 63.026595,7.8068194 62.715738,7.5581338 62.404881,7.2990863 61.980043,7.2990863 q -0.424838,0 -0.714971,0.2590475 -0.290134,0.2486856 -0.362667,0.6527997 z"
     id="path1414" /><path
     d="M 67.824155,11.630361 H 66.05227 V 3.9625544 h 1.771885 V 8.262743 l 1.792609,-2.4143228 h 2.383237 l -2.476494,2.9531416 2.476494,2.8287992 H 69.647849 L 67.824155,9.3196568 Z"
     id="path1416" /></g></svg>
